<?xml version="1.0" encoding="UTF-8"?><svg id="Layer_2" xmlns="http://www.w3.org/2000/svg" viewBox="0 0 661.96 195.42"><defs><style>.cls-1{fill:#0297d7;}</style></defs><g id="Layer_1-2"><path class="cls-1" d="m283.85,148.06c.03-.31.06-.62.11-1.04-.04.42-.07.73-.11,1.04.19,0,.38,0,.57.01.27-.01.54-.02.81-.04.46-.09.91-.19,1.37-.28.19-.07.37-.13.56-.2,1.28-.3,2.57-.6,3.85-.9.53-.3.97-.65.88-1.35,0-.28-.02-.55-.02-.83-.02-.5-.03-.99-.05-1.49-.09-.42-.19-.84-.28-1.27-.03,0-.07,0-.11,0,.04,0,.08,0,.11,0,0-.92.02-1.84.02-2.75-.09-.37-.18-.74-.27-1.11,0,0,.13.03.13.03-.03-.65-.06-1.3-.09-1.96,0-.18,0-.37,0-.55-.1-.92-.2-1.84-.29-2.75.37-.3.32-.57-.04-.83-.07-1.1-.13-2.21-.2-3.31.34-.29.31-.56-.04-.82-.05-.56-.09-1.13-.14-1.69-.14,0-.3.02-.44.02.14,0,.3-.02.44-.02-.04-.35-.09-.71-.13-1.06l.1-.55c0-.37-.01-.74-.02-1.11-.05-.92-.11-1.83-.16-2.75-.03-.18-.05-.36-.08-.54,0-.13-.01-.25-.02-.38-.22-.22-.62-.41-.1-.74,0-.92,0-1.84,0-2.75-.33-.07-.71-.28-.99-.19-.89.26-1.74.64-2.61.97-1.01.33-2.01.68-3.02,1-2.45.78-4.9,1.55-7.36,2.3-.76.23-1.55.38-2.32.56-1.67.34-3.33.69-5,1.02-.35.07-.71.08-1.07.12-.68.57-1.47.18-2.21.23-.55.12-1.1.23-1.65.35-.4-.45-.47-.08-.57.22-.36,0-.73-.01-1.09-.02-.37,0-.74,0-1.1.01-.44.03-.89.07-1.33.1-.12.01-.24.03-.36.04-3.4.06-6.8.11-10.2.17-.28,0-.55,0-.83-.01-.04.07-.08.14-.11.21-.03-.07-.06-.14-.09-.22-.49-.08-.99-.21-1.49-.22-2.58-.04-5.06-.68-7.54-1.24-1.9-.42-3.76-1.06-5.64-1.59-.28-.09-.55-.18-.83-.28-1.61-.73-3.22-1.44-4.81-2.2-1.08-.52-2.13-1.1-3.19-1.65-.24-.16-.49-.32-.73-.48h0c-1.52-1.26-3.01-2.58-4.58-3.77-2.12-1.61-3.78-3.64-5.48-5.65-.62-.73-.92-1.73-1.83-2.22-.12-.27-.23-.53-.35-.8.04-.41-.02-.76-.52-.82-.46-.82-.91-1.65-1.37-2.47-.06-.13-.12-.25-.18-.38-.22-.48-.43-.96-.65-1.45-.38-.69-.76-1.38-1.14-2.07-.08-.45-.16-.9-.24-1.35-.09-.18-.18-.37-.28-.55-.07-.17-.14-.34-.21-.51h0c-.11-.33-.24-.66-.33-1-.48-1.89-1.06-3.76-1.41-5.67-.32-1.81-.39-3.67-.57-5.51l-.22-.11c.07-.04.14-.08.21-.12-.03-1.11-.07-2.22-.1-3.33,0-.73,0-1.47,0-2.2.02-.37.04-.75.05-1.12l.08.04c.08,0,.15-.01.23-.02-.09-.37-.18-.73-.27-1.1-.11.09-.22.18-.33.27h0c.11-.09.22-.18.33-.27.04-.48.06-.97.12-1.45.16-1.33.29-2.66.53-3.98.28-1.51.63-3,1.01-4.49.21-.84.52-1.66.79-2.49.09-.18.18-.37.28-.55.1-.43.16-.87.3-1.28.36-1.04.76-2.07,1.15-3.11.08-.09.16-.18.24-.27.19-.39.39-.78.57-1.19.38-.87.74-1.75,1.11-2.63.39-.4.95-.71.86-1.4h.12s.12,0,.12,0c.48-1.04,1.02-2.05,1.97-2.75l1.32-1.7c.41-.54.49-1.38,1.35-1.53.88-.95,1.76-1.89,2.64-2.84.04-.04.09-.08.13-.12.1-.05.21-.1.31-.15.18-.18.36-.35.55-.53.64-.47,1.28-.95,1.93-1.42.74-.53,1.48-1.06,2.21-1.59.09-.11.18-.23.27-.34.09,0,.18.01.27.01.47-.35.94-.71,1.4-1.06.17-.03.35-.07.52-.1,1.24-.7,2.48-1.39,3.72-2.09.16-.06.33-.11.49-.17.01-.29.08-.52.19-.72-.11.2-.18.43-.19.72.47-.17.94-.37,1.42-.51,2.45-.71,4.91-1.41,7.37-2.11.46-.08.92-.16,1.38-.24,1.47-.19,2.94-.39,4.42-.58.18-.02.36-.04.54-.06.1-.08.19-.15.29-.23,1.56-.03,3.13-.05,4.69-.08.09.04.18.08.28.12.64,0,1.29.02,1.93.02.56.05,1.11.1,1.67.16l.54.06,3.31.28c.55.08,1.1.17,1.66.25,1.49.23,2.97.46,4.46.69.37.08.75.16,1.12.24.99.23,1.99.45,2.98.68.28.11.55.21.83.32.27.02.54.04.81.06.28.08.56.15.84.23.35.12.71.24,1.06.36,0,.06.02.12.04.18.2.05.39.11.59.16.3.11.61.23.91.34.79.28,1.59.55,2.38.83.55.21,1.09.42,1.64.63.38.16.75.31,1.13.47.38.16.76.32,1.14.48.44.14.88.28,1.33.43.03.09.1.13.19.12h0c.02.06.05.11.07.17l.84.22c.04.07.1.09.17.06.03.08.06.16.1.23,1.29.64,2.58,1.28,3.87,1.93.47.11.93.22,1.4.33.18-1.3.36-2.61.55-3.91,0-.18.02-.37.03-.55.02-.55,0-1.1.05-1.64.54-5.46,1.09-10.91,1.65-16.37.2-1.9.44-3.81.66-5.71.03-1.09.07-2.19.1-3.28-1.69-.53-3.37-1.07-5.06-1.6l-.1.03s-.08-.08-.08-.08c-.31-.06-.63-.1-.94-.18-2.22-.55-4.43-1.17-6.66-1.64-3.43-.73-6.88-1.37-10.33-2.04-1.73-.34-3.45-.73-5.2-.94-1.86-.22-3.73-.26-5.6-.38-.74-.1-1.47-.2-2.21-.3-.25-.02-.51-.03-.76-.05l-.34-.21c-.46-.02-.92-.03-1.38-.05-.37.02-.74.05-1.1.07-.54-.03-1.08-.09-1.62-.1-1.76-.03-3.52-.04-5.28-.06-.64.07-1.29.14-1.93.21-.47.02-.94.05-1.41.07l-1.07.11c-.18-.03-.37-.06-.55-.09-.66.07-1.32.14-1.98.2-.81.03-1.63.06-2.44.09-3.18.48-6.37.94-9.54,1.46-1.8.3-3.58.7-5.36,1.06-.65.18-1.29.37-1.94.55-.64.17-1.29.33-1.93.5l-.83.35c-.09.07-.18.15-.27.22-.52.12-1.07.18-1.57.36-3.16,1.17-6.32,2.36-9.48,3.54l-1.66.81c-1.1.55-2.21,1.1-3.31,1.65l-1.38.83c-1.31.83-2.63,1.65-3.93,2.49-.64.41-1.24.87-1.86,1.31-2.63,2.2-5.27,4.41-7.9,6.61-.31.3-.61.61-.92.91-.36.36-.73.73-1.09,1.09-.19.27-.39.54-.58.81-.38.46-.77.93-1.15,1.39-.37.4-.74.8-1.11,1.2l-1.31,1.58c-.27.36-.55.73-.82,1.09-.11.18-.22.36-.33.54-.36.47-.71.95-1.07,1.42-.84,1.46-1.67,2.91-2.51,4.37-.26.46-.53.93-.79,1.39-.33.75-.66,1.5-.98,2.25-.17.37-.34.74-.51,1.11-.23.44-.47.89-.7,1.33-.19.46-.38.91-.57,1.37-.21.55-.41,1.1-.62,1.65-.25.64-.51,1.29-.76,1.93-.5,1.78-1.04,3.56-1.48,5.35-.64,2.63-1.25,5.28-1.8,7.93-.22,1.06-.25,2.16-.37,3.25-.05.37-.09.74-.14,1.1-.01.09-.02.18-.04.27-.03.37-.06.74-.09,1.11-.07.73-.14,1.47-.22,2.2-.01.28-.02.55-.04.83,0,3.76,0,7.53,0,11.29.01.46.02.92.03,1.38.07.73.13,1.47.2,2.2.1,1.19.21,2.39.31,3.58.08.37.16.74.23,1.1.01.46.03.92.04,1.38.1.46.21.92.31,1.38.28,1.16.55,2.32.83,3.48.35,1.41.71,2.82,1.06,4.23.12.55.24,1.09.35,1.64.09.28.18.55.28.83.25.65.5,1.29.75,1.94.39,1,.78,2,1.16,3,.19.47.38.93.57,1.4.28.55.55,1.1.83,1.65l.82,1.65c.18.37.37.73.55,1.1.27.45.54.91.81,1.36.37.64.74,1.29,1.1,1.93.19.23.38.46.56.7.72,1,1.44,2,2.15,3.01.14.21.22.46.33.69.37.46.74.92,1.1,1.37.64.66,1.27,1.33,1.91,1.99.09.09.18.18.28.27,0,.16.02.33.03.49.46.46.92.92,1.38,1.37.37.37.74.73,1.1,1.1.08.02.17.04.25.06l.85,1.04c.36.3.72.59,1.08.89,1.06.92,2.12,1.84,3.17,2.77.16.14.3.32.44.48.18.18.37.37.55.55.44.28.9.55,1.33.86.86.62,1.69,1.27,2.54,1.9.55.37,1.1.73,1.66,1.1,1.28.76,2.57,1.52,3.85,2.28.46.25.93.5,1.39.75.34.17.67.33,1.01.5.68.38,1.35.77,2.03,1.16.23.03.48,0,.67.09,1.34.62,2.67,1.27,4.01,1.92l1.12.47c.64.21,1.28.42,1.92.63.74.28,1.47.55,2.21.83.55.18,1.1.37,1.66.55.46.09.91.17,1.37.26.1.1.19.19.29.29.46.06.92.12,1.38.18.39.1.77.2,1.16.3.16.02.32.04.48.07-.16-.02-.32-.04-.48-.07,0,0,.02.12.02.12.16,0,.31,0,.47,0,.19.11.37.22.56.34.19.02.38.04.57.05l.53.28c.18.03.37.06.55.09.09-.03.18-.06.28-.09.1.1.19.19.29.29.65.09,1.29.17,1.94.26.18.09.36.18.54.28.18.03.36.06.55.09.29.04.58.08.87.11.26.03.52.07.79.1.19.08.37.17.56.25,2.3.3,4.59.6,6.89.9h1.76s0,0,0,0c.24.18.48.36.73.53.27-.11.55-.22.82-.33.09,0,.19.01.28.02.46.09.92.19,1.38.28.19,0,.38-.02.56-.03.17.09.35.18.52.28.01-.08.02-.16.01-.24l2.21.09c.19,0,.37,0,.56.01.46,0,.92,0,1.38,0,.83.07,1.65.13,2.48.2.09,0,.19,0,.28,0,.46,0,.92,0,1.38-.01.28,0,.55,0,.83,0l1.09-.06c.19-.08.38-.17.56-.25,1.1,0,2.21,0,3.31-.01.37.02.74.04,1.1.07,1.01-.03,2.02-.05,3.04-.08.28-.08.55-.15.83-.23h0c.26.02.53.05.79.07,0,.07,0,.13.02.19.1.02.2.03.29.05.27-.03.54-.06.82-.09.01-.08.02-.16.01-.24.28-.07.55-.14.83-.21.45,0,.9-.02,1.36-.03,0,.07,0,.14.03.21.46-.08.93-.17,1.39-.25.05-.05.09-.11.13-.17,0,0,0,0,0,0,.03.05.05.09.07.14.57-.07,1.14-.15,1.71-.22.46-.03.92-.06,1.38-.09.18,0,.36,0,.54,0,.01-.08.01-.16.01-.24.27,0,.55-.01.82-.02.55-.12,1.11-.24,1.66-.36.28.02.55.04.83.06.18,0,.36,0,.54,0,0-.07.01-.15.02-.22.28.01.56.02.84.03l-.03-.09c.37-.06.75-.12,1.12-.18.37-.09.74-.18,1.1-.28.37,0,.74,0,1.1,0,.18-.03.36-.06.53-.09.01-.08.02-.16.02-.24.83-.11,1.66-.21,2.48-.32.1-.08.19-.15.29-.23.63-.12,1.26-.24,1.88-.36,0-.07.01-.13.03-.2.37-.03.73-.06,1.1-.09,0-.06,0-.13,0-.19Zm-18.5,3.01s0,0,0,0c.09.03.17.05.26.08-.09-.03-.17-.05-.26-.08Zm12.69-1.91c-.07,0-.15,0-.22,0,.07,0,.15,0,.22,0,.3-.44.57-.81.83-1.11-.27.3-.53.67-.83,1.11Z"/><polygon class="cls-1" points="53.62 97.4 53.56 97.46 53.56 97.47 53.57 97.47 53.62 97.4"/><path class="cls-1" d="m149.43,149.44c.04.07.08.15.13.22.04-.07.08-.15.13-.22.22-.09.43-.18.65-.27.01-.28.02-.55.03-.83,0-.27,0-.55,0-.82-.04-.09-.09-.18-.13-.28.02-.5.06-1.01.06-1.51,0-47.29,0-94.58,0-141.87,0-.59-.04-1.19-.06-1.78.04-.28.09-.55.13-.83-.04-.18-.08-.37-.13-.55.04-1-.69-.46-1.1-.54-.28-.04-.55-.09-.83-.13-.37.02-.73.06-1.1.06-48.54,0-97.08,0-145.63,0C1.09.09.59.03.09,0,.06,1.01,0,2.02,0,3.02,0,32.87,0,62.72,0,92.57c0,1.14.06,2.29.09,3.43v1.21c.33-.36.49-.54.66-.72.24-.19.48-.39.72-.58.29-.22.57-.43.86-.65,2.3-1.43,4.62-2.8,7.2-3.69,3.31-1.14,6.74-1.67,10.21-2,4.95-.47,9.82-.09,14.58,1.31,5.63,1.65,10.57,4.49,14.76,8.64,2.35,2.33,4.61,4.71,6.11,7.71.43.86.99,1.66,1.5,2.49.03.11.05.22.08.33.08.04.14.09.17.18.11.12.22.24.33.36.17.51.33,1.02.53,1.52.93,2.36,1.7,4.75,1.96,7.29.14.25.27.49.41.74.13,2.23.37,4.47.37,6.7,0,2.23-.23,4.46-.36,6.69-.42.24-.57.57-.37,1.03-.02.28-.04.56-.06.84-.07.18-.13.36-.2.54-.13.65-.25,1.29-.38,1.94-.06.08-.12.17-.18.25,0,.2-.02.4-.03.59-.09.17-.17.35-.26.52-.03.19-.06.38-.08.57-.06.08-.13.16-.19.25-.12.39-.23.77-.35,1.16-.34.27-.56.59-.35,1.05-.07.1-.14.21-.21.31-.07.08-.14.15-.21.23-.12.29-.23.58-.35.87-.07.08-.13.16-.2.24-.12.29-.23.58-.35.86-.08.08-.15.16-.23.24-.47.76-.94,1.53-1.41,2.29l-.57.74c-.18.2-.36.4-.54.6-.17.17-.34.34-.51.51.17.07.34.13.51.2.64.04,1.27.08,1.91.11.64-.03,1.28-.07,1.92-.07,30.28,0,60.56,0,90.83,0,.37,0,.73.02,1.1.03Zm-40.73-109.5c-.26-.11-.55-.16-.86-.15.31,0,.6.04.86.15Zm-39.7-27.74c-.08-.03-.17-.11-.23-.09.06-.02.15.05.23.09,0,0,0,0,0,0Zm-18.83-4.53s-.09-.04-.15-.01c.06-.02.11-.01.15.01Zm-1.1-.27s-.04-.03-.07-.03c.02,0,.05.01.07.03Zm50.65,136.8q-.06,1.14-1.09,1.09c-.37.02-.73.06-1.1.06-11.23,0-22.46,0-33.69,0-.37,0-.73-.04-1.1-.06h-1.42c.23-.43.41-.76.59-1.09.77-2.39,1.66-4.75,2.29-7.17,1.14-4.4,1.35-8.92,1-13.43-.28-3.59-.99-7.12-2.18-10.54-.07-.08-.13-.17-.2-.25-.87-2.04-1.73-4.08-2.61-6.11-.05-.13-.29-.17-.44-.26-.11-.36-.23-.73-.34-1.09-.08-.09-.16-.17-.24-.26-.45-.65-.9-1.3-1.36-1.96-.56-.86-1.13-1.72-1.69-2.58l-.55-.7c-.46-.55-.91-1.11-1.37-1.66-.23-.24-.45-.49-.68-.73-.47-.19-.96-.34-1.01-.96-.83-.74-1.66-1.48-2.5-2.22-.17-.08-.34-.15-.51-.23-.28-.22-.55-.43-.83-.65-.11-.14-.22-.28-.33-.41-2.02-1.28-4.05-2.56-6.07-3.85-.37-.18-.74-.37-1.1-.55-.92-.39-1.83-.79-2.75-1.18-.64-.18-1.28-.35-1.92-.53-.13-.11-.27-.23-.4-.34-.04.06-.09.11-.15.14-1.48-.37-2.95-.74-4.43-1.11-.26-.06-.52-.12-.79-.18-.93-.13-1.87-.25-2.8-.38-.18-.01-.37-.03-.55-.04-.55-.1-1.1-.2-1.66-.3-.28,0-.55-.02-.83-.03-1.38.02-2.75.03-4.12.06-2.34.05-4.66.31-6.93.92-.14.05-.28.09-.41.14-.78.19-1.55.38-2.33.58h0c-.2.04-.4.09-.61.13-.72.25-1.44.49-2.15.74l-.83.29c-.37.09-.73.17-1.1.26-.25.1-.49.19-.74.29-.44.1-.91.96-1.31-.04-.02-.07-.05-.14-.06-.21,0,.07.04.14.06.21,0-.1.02-.2.03-.3l.1.03c-.01-1.23-.04-2.47-.04-3.7,0-10.29-.01-20.59-.01-30.88,0-.41.03-.82.05-1.23-.02-.46-.03-.92-.05-1.38.09-.03.14-.1.16-.19.6-.09,1.2-.18,1.81-.27l7.17-1.16c.28,0,.55.01.83.02.74-.1,1.47-.2,2.21-.3.26-.05.52-.11.79-.16.57-.02,1.13-.05,1.7-.07.55,0,1.11,0,1.66-.01,2.12-.03,4.23-.06,6.35-.08.18,0,.37,0,.55.01.28.09.55.19.83.28.28.02.55.03.83.05,2.53.31,5.06.59,7.58.94.98.14,1.94.44,2.91.67.29.05.57.11.86.16l1.9.47c.28.08.55.15.83.23.56.16,1.11.32,1.67.48.28.08.56.16.84.23l2.56.85c.08-.03.13-.02.18.05.73.2,1.46.41,2.19.61.46.19.91.38,1.37.57.45.17.9.34,1.34.51,0,0,0,0,0,0,.21.15.42.31.64.46.19.08.38.17.57.25.17.02.35.04.52.06l3.2,1.55s0,0,0,0c.96.57,1.93,1.14,2.89,1.72l.99.38c.24.2.48.39.72.59.25.16.51.33.76.49.55.28,1.1.55,1.65.83.01.07.02.14.03.21l1.65,1.1c.38.26.75.52,1.13.78.17.13.34.25.51.38.71.46,1.43.93,2.14,1.39h0c.38.3.76.59,1.15.89.26.22.51.43.77.65h0c.16.19.32.39.49.58l.35.1c.41.41.81.83,1.22,1.24l.94.61c.42.47.84.93,1.26,1.4.08,0,.16.01.25.02.8.88,1.61,1.76,2.41,2.65.25.25.51.5.76.76,0,0,.04.04.04.04l.91.75c.13.24.27.49.4.73.24.29.48.57.73.86.37.35.74.71,1.12,1.06.01.1.03.19.04.29.24.2.49.4.73.6.68,1,1.36,1.99,2.04,2.99.15.12.31.25.46.37.11.24.21.48.32.72.2.28.4.56.6.83.89,1.29,1.79,2.59,2.68,3.88.18.29.37.57.55.86.1.17.2.34.3.51.19.46.38.92.56,1.37.07.01.14.02.21.03.31.72.63,1.44.94,2.16.09.18.19.36.28.55.32.65.63,1.31.95,1.96l.4.55c.25.56.5,1.11.74,1.67.29.91.59,1.83.88,2.74.26.64.51,1.29.77,1.93.11.37.22.73.33,1.1.12.18.24.37.36.55-.02.09-.04.18-.07.27.37,1.01.73,2.02,1.1,3.03.09.37.19.73.28,1.1.1.46.2.92.3,1.38l.28,1.38.28,1.38.26.83c.1.55.2,1.1.3,1.65.09.46.18.92.26,1.38.05,0,.11,0,.16,0-.06,0-.11,0-.16,0,.05.74-.28,1.52.26,2.2.09.73.18,1.47.27,2.2.1,1.19.19,2.39.29,3.58.02,2.48.04,4.96.06,7.44-.13,1.79-.27,3.59-.4,5.38-.04.12-.07.25-.11.37l-.64,3.33c-.03.64-.07,1.27-.1,1.91-.04.19-.09.38-.13.57-.04.27-.08.55-.11.82-.18.46-.36.92-.54,1.38ZM36.92,47.31c-.02-.05.05-.15.09-.22,0,0,0,0,0,0-.03.08-.11.17-.09.22Zm17.72,6.85s-.02,0-.03,0c0,0,.02,0,.03,0Zm3.78,1.51c.08.1.13.21.14.33-.02-.12-.06-.23-.14-.33Zm26.57,18.78c-.08-.03-.15-.07-.23-.1.08.03.15.07.23.1,0,0,0,0,0,0Zm12.97,20.68c.02.06-.05.15-.09.23,0,0,0,0,0,0,.03-.08.11-.17.09-.22Zm46.23,50.23c-12.56,0-25.13,0-37.69-.01-.6,0-1.19-.03-1.79-.05v-.82c.15-.38.3-.75.45-1.13.14-.91.28-1.82.42-2.73.09-.37.18-.73.26-1.1-.03-.09-.06-.18-.09-.28,0-.28,0-.55,0-.83.15-.64.3-1.28.44-1.93-.03-.18-.06-.37-.09-.55.09-1.01.18-2.02.26-3.03.08-.12.15-.23.23-.35-.05-.07-.05-.14.02-.2.01-.37.02-.73.03-1.1-.02-.55-.05-1.1-.07-1.65.03-.54.11-1.08.1-1.62-.08-2.76-.18-5.53-.28-8.29l-.28-2.2-.28-2.48c-.09-.64-.19-1.29-.28-1.93-.04-.17-.08-.34-.11-.51-.05-.2-.1-.39-.15-.59-.05-.36-.09-.72-.14-1.07-.14-.56-.28-1.12-.42-1.68-.18-.83-.37-1.65-.55-2.48-.37-1.38-.74-2.75-1.11-4.13l-.27-.83c-.49-1.38-.97-2.76-1.46-4.14-.17-.46-.38-.91-.56-1.37.02-.09.04-.18.05-.28-.17-.28-.35-.56-.52-.84l-.33-.82c-.17-.38-.34-.77-.51-1.15-.57-1.36-1.15-2.72-1.72-4.07-.51-.92-1.02-1.85-1.52-2.77l-.4-.75c-.28-.48-.56-.96-.84-1.44-.13-.11-.26-.22-.38-.33h0c-.15-.35-.29-.7-.44-1.05-.07,0-.14-.01-.22-.02-.88-1.41-1.76-2.83-2.64-4.24,0,0-.01-.04-.01-.04-1.07-1.41-2.14-2.82-3.21-4.23-.14-.16-.28-.32-.41-.48-2.01-2.17-4.01-4.34-6.02-6.52,0,0-.05-.05-.05-.05-.83-.76-1.65-1.53-2.5-2.27-.37-.32-.78-.6-1.16-.9-.45-.4-.91-.79-1.36-1.19-2.65-2.4-5.57-4.43-8.58-6.34-.5-.32-.99-.65-1.48-.97-.54-.33-1.07-.67-1.61-1-1.27-.69-2.54-1.38-3.82-2.08-.37-.18-.74-.36-1.11-.54-1.29-.55-2.58-1.1-3.87-1.65-.03-.08-.07-.15-.09-.23-.34-.13-.67-.26-1.01-.39-.09.01-.18.03-.27.04-.2-.14-.39-.28-.59-.42-.26-.04-.52-.09-.79-.13-.2-.12-.41-.25-.61-.37-2.3-.73-4.6-1.46-6.9-2.18-.25-.08-.53-.08-.79-.12-1.1-.28-2.21-.56-3.31-.84-.37-.09-.74-.18-1.1-.27-.18-.03-.37-.06-.55-.09-.28-.09-.55-.18-.83-.28-.09.03-.18.06-.28.09-.55-.09-1.1-.18-1.66-.27-.46-.09-.92-.18-1.38-.27l-1.66-.38c-.28,0-.55,0-.83,0-.46-.06-.92-.12-1.38-.18-.64-.12-1.29-.24-1.93-.36-.09.04-.18.07-.28.11h0c-1.47-.12-2.94-.25-4.42-.37-1.93,0-3.86,0-5.8,0-.09.04-.18.08-.27.12-.38.01-.76.03-1.13.04-.82.03-1.64.06-2.46.09-.28.02-.55.03-.83.05-.55.07-1.1.14-1.66.22-.43.11-.85.25-1.29.31-.67.1-1.35.16-2.03.24-1.2.18-2.39.37-3.59.55-.55.09-1.11.18-1.66.27-.09-.08-.19-.16-.28-.23.01-.37.02-.73.04-1.1-.02-.27-.06-.55-.06-.82,0-11.11,0-22.23,0-33.34,0-.27.03-.55.05-.82-.04-.55-.07-1.1-.11-1.65,0-.1,0-.2,0-.3l.1.02c.09-.13.18-.27.28-.4,1.75-.26,3.49-.52,5.24-.78.46-.06.92-.11,1.37-.17,2.57-.25,5.14-.51,7.71-.76.1.13.19.25.29.38.1-.13.19-.25.29-.38,3.79,0,7.59,0,11.38,0,0,0,0,0,0,0,.36.55.8.6,1.31.22.18.02.36.05.54.07l1.39.15c1.01.1,2.02.2,3.03.3.09.11.18.22.28.33l.56-.08.54.08c.28-.03.56-.05.84-.08.15.38.33.38.54.05.46.08.92.16,1.38.24.18.08.36.17.54.25.37.01.74.02,1.11.04.18.08.36.16.55.24.28,0,.56,0,.85,0,.57-.34.89-.5,1.17-.43-.29-.07-.6.09-1.17.43.64.57,1.5.19,2.19.51l.57.04c.18.09.36.18.54.27.28,0,.56,0,.85,0h0c.18.08.36.15.53.23.19.01.38.02.57.04h0c.18.07.35.14.53.22.28.04.56.07.84.11.08.06.17.12.25.17.2,0,.4.01.6.02h0c.17.09.35.17.52.26.19.01.38.02.58.03.18.1.35.19.53.29.19.02.38.03.57.05.08.07.17.15.25.22.19.02.37.03.56.05l.55.23c.09,0,.19.02.29.02.18.07.36.13.54.2.19.01.38.03.57.04.73.28,1.46.55,2.19.83.09.01.19.02.28.04.18.08.36.16.55.24.09.01.19.02.28.03.18.08.36.16.55.24.09.01.19.03.28.04.18.08.37.16.55.24.09.01.19.02.28.03.18.02.36.05.55.07l.32.21c.07.06.14.12.22.18.2.03.4.07.59.1.08.08.16.15.24.23.1.01.19.02.29.04.18.03.36.06.54.09.21.12.43.24.64.37.25.06.49.11.74.17.21.13.43.25.64.38,0,0,0,0,0,0,.25.06.49.12.74.19.59.35,1.18.71,1.77,1.06.33.07.67.15,1,.22.01.08.02.16.02.23.36.04.72.09,1.08.13.1.07.21.14.31.2.08.08.15.15.23.23.46.2.93.4,1.39.59.18.07.36.14.55.21.1.03.19.05.29.08.08.06.17.13.25.19.1.03.2.06.3.09.08.06.17.13.25.19.1.03.2.06.3.08.49.63,1.16.89,1.92,1.01.1.03.19.06.29.09.34.26.65.59,1.04.78,1.39.69,2.79,1.33,4.19,1.99.67.46,1.34.92,2.01,1.38.08.02.14.07.18.14l.33.12c.08.08.17.15.25.23.65.38,1.3.77,1.94,1.15.09.09.17.18.26.27.74.46,1.49.93,2.23,1.39.08.07.16.14.24.2.83.58,1.66,1.16,2.49,1.74.37.27.74.54,1.11.81,1.22.97,2.44,1.95,3.66,2.92.53.41,1.08.8,1.62,1.2.35.29.71.57,1.06.86.23.18.46.37.69.55,0,0,0,0,0,0,.41.29.81.59,1.22.88.55.58,1.08,1.19,1.66,1.74.59.55,1.34.96,1.83,1.59.6.76,1.28,1.37,2.11,1.83h0c.64.71,1.27,1.41,1.91,2.12.72.76,1.44,1.53,2.17,2.29.3.29.59.59.89.88.07.16.11.35.22.48,1.08,1.15,2.17,2.29,3.26,3.43.57.71,1.13,1.43,1.7,2.14,1.64,2.22,3.29,4.44,4.93,6.66.46.62.9,1.24,1.36,1.86.18.28.35.56.53.83.51.81,1.02,1.63,1.53,2.44,1.36,2.36,2.74,4.71,4.08,7.08.72,1.27,1.39,2.56,2.08,3.85.1.21.2.42.29.63,0,0,0,0,0,0,1.01,2.22,2.02,4.44,3.03,6.66.11.27.22.55.33.82.99,2.78,2.02,5.55,2.97,8.34.9,2.66,1.79,5.33,2.14,8.13.09.37.18.73.27,1.1.16.56.31,1.11.47,1.67,0,.09,0,.19-.01.28.21.66.46,1.32.63,1.99.22.89.36,1.79.54,2.69-.02.28-.04.55-.06.83.1.14.27.28.29.43.11.68.18,1.36.27,2.04.03.36.06.72.09,1.08.17.84.37,1.68.52,2.53.18,1,.33,2,.49,3,.09.39.19.78.28,1.17-.01.08,0,.15.06.21-.02.37-.04.73-.06,1.1.05.18.1.37.15.55.08.83.15,1.65.23,2.48,0,1,.01,2,.02,3,.04.22.11.44.11.66,0,3.19,0,6.39-.03,9.58,0,.36-.1.72-.15,1.07-.1,2.11-.21,4.22-.31,6.34-.07.64-.14,1.29-.22,1.93-.1.39-.2.77-.3,1.16.34.43.68.86,1.03,1.3-.35-.44-.69-.87-1.03-1.3Z"/><path class="cls-1" d="m461.52,181.14c-.11-.22-.22-.45-.33-.67-1.78-2.98-4.52-4.23-7.88-4.39-.28.01-.55.03-.83.04-.49.12-.98.22-1.46.35-3.51.94-5.8,3.24-6.46,6.73-.46,2.39-.41,4.9.68,7.26,1.16,2.5,2.94,4.17,5.73,4.65.15.03.28.18.42.28,1-.06,1.99-.17,2.99-.18,1.65-.01,3.06-.67,4.41-1.52.75-.9,1.59-1.74,2.22-2.71,1.16-1.81,1.28-3.91,1.38-6-.14-.81-.29-1.63-.43-2.44-.15-.46-.3-.92-.45-1.39Zm-4.89,9.01c-1.65,2.29-4.91,2.29-6.56,0-1.66-2.31-1.61-6.72.09-8.99,1.78-2.36,5.01-2.24,6.59.25.84,1.32,1.06,2.81,1.22,4.37-.19,1.51-.39,3.05-1.34,4.37Z"/><path class="cls-1" d="m209.35,180.84c-1.26-2.49-3.29-3.95-6-4.51-.67-.14-1.36-.16-2.04-.24-.28.01-.55.02-.83.03-1.28.42-2.74.57-3.8,1.3-2.52,1.75-4.37,4.04-4.25,7.38.05,1.37-.23,2.82.16,4.08.99,3.21,3.01,5.55,6.5,6.27,1.2.01,2.39.02,3.59.04,2.14-.32,4.05-1.1,5.4-2.86.52-.68.95-1.43,1.41-2.15.15-.38.3-.76.45-1.13.52-2.17.55-4.33.02-6.5-.21-.57-.42-1.14-.63-1.7Zm-4.53,9.04c-1.37,2.5-4.91,2.68-6.62.4-.92-1.24-1.47-2.63-1.34-4-.07-1.65.18-3.05.84-4.34.76-1.49,1.94-2.45,3.69-2.47,1.71-.02,2.88.89,3.59,2.36,1.32,2.7,1.27,5.44-.17,8.06Z"/><path class="cls-1" d="m230,177.32c-1.29-.56-2.6-1.04-4.02-1.15-1.69-.14-3.26.31-4.8.91-.08.06-.17.13-.25.19-.1.03-.2.06-.3.09-.09.06-.19.11-.28.17-.08,0-.16.02-.24.04-.74.82-1.48,1.63-2.23,2.45-.18.31-.37.61-.55.92-.03.09-.09.14-.18.18-.03.11-.05.21-.08.32-.06.08-.11.15-.17.23-.04.2-.07.39-.11.59-.06.08-.12.16-.17.24,0,.2-.01.4-.02.6-.56.19-.47.47-.12.8-.08.36-.16.73-.24,1.09-.45.46-.43.92,0,1.38.06.44.11.88.17,1.33.03.11.06.21.09.32-.07,0-.15.02-.22.02.09.17.18.35.28.52.01.19.03.38.04.56,0,.18-.01.35-.02.53.17.18.33.37.5.55,0,.1,0,.2.01.3.86,1.08,1.7,2.17,2.59,3.23.15.18.46.24.7.36l.27.16c.1.03.21.07.31.1.08.06.16.12.24.19.1.03.21.06.31.09.08.08.17.15.25.23.1.01.19.03.29.04.18.07.37.13.55.2.2.02.4.05.6.07.08,0,.15.01.23.01,1.2,0,2.39.01,3.59.02,1.39-.34,2.7-.87,3.87-1.73.08-.08.17-.15.25-.23,1.17-.96,1.84-2.27,2.53-3.58l.64-3.31c-.21-1.47-.42-2.94-.63-4.41-.66-1.97-1.89-3.51-3.65-4.63Zm-.83,11.61c-.68,1.96-2.07,2.87-4.14,2.94-1.27.04-2.18-.62-2.9-1.53-1.86-2.36-1.92-6.61-.16-9.05,1.78-2.48,4.99-2.44,6.66.11.88,1.34,1.18,2.86,1.28,4.49-.24,1.02-.39,2.06-.73,3.04Z"/><path class="cls-1" d="m287.52,187.47c.06-.08.13-.16.19-.24,2.18-.03,4.36-.06,6.71-.1v-3.25c-.05-.08-.1-.17-.16-.25-2.1-.02-4.19-.03-6.29-.05-.13-.09-.27-.17-.4-.26-.17-1.12-.17-2.24.04-3.47,2.42-.08,4.78.07,7.2-.13v-3c-.07-.09-.14-.18-.21-.27-3.68-.01-7.36-.02-11.04-.04-.07.1-.14.2-.2.3,0,5.96-.01,11.93-.02,17.89.08.09.15.18.23.27,3.61.22,10.45.12,11.43-.16v-3.09c-2.55-.17-5.01.03-7.48-.17v-3.99Z"/><path class="cls-1" d="m380.74,187.45c.09-.08.17-.16.26-.24.46-.01.91-.03,1.37-.04,1.74-.03,3.47-.07,5.21-.1-.03-.07-.01-.13.06-.18v-3.28h-6.86v-3.76h6.81c.1-.04.2-.09.3-.13v-3.26h-11.34v18.39h11.59v-3.31h-7.4v-4.09Z"/><path class="cls-1" d="m127.36,187.45c.09-.08.17-.16.26-.24,2.15-.03,4.29-.05,6.63-.08v-3.26l-.06-.06.02-.08c-1.65-.04-3.3-.08-4.95-.11-.59-.01-1.18,0-1.86,0v-3.68c.34-.04.69-.1,1.04-.1,1.65-.01,3.31.02,4.96-.02.42,0,.83-.23,1.24-.35,0-.92,0-1.83,0-2.75-.04-.09-.07-.18-.11-.27l.02-.03h-11.42c0,.76,0,1.44,0,2.12,0,4.68,0,9.35,0,14.03,0,.5-.06,1-.09,1.5.05.31.1.61.16.92,3.87-.02,7.74-.05,11.57-.07v-3.38h-7.38v-4.06Z"/><path class="cls-1" d="m417.4,179c-1.35-1.81-3.22-2.53-5.42-2.57-1.22-.02-2.44-.07-3.66-.11-.12.01-.24.03-.36.04-.99.11-1.98.21-2.96.32-.06.1-.12.2-.19.31-.04,1.93-.08,3.85-.12,5.78,0,.64,0,1.29,0,1.93.02.5.06.99.06,1.49.02,2.81.03,5.61.05,8.42.07.09.14.18.21.26,1.3.11,2.6.08,3.92.03v-6.33c.08-.08.15-.16.23-.25,1.58-.13,3.2-.12,4.75-.43,1.72-.33,3-1.39,3.71-3.05.59-1.38.65-2.81.4-4.27l-.61-1.56Zm-4.82,5.59c-1.08.58-2.24.74-3.56.46v-5.43c1.16-.27,2.18-.26,3.21.1,1.08.37,1.67,1.13,1.75,2.24.08,1.14-.37,2.08-1.4,2.63Z"/><path class="cls-1" d="m513.14,183.61c-.83-.34-1.66-.75-2.4-1.25-.92-.63-.74-1.53.05-2.03,1.03-.64,2.15-1.14,3.46-.59.84.35,1.74.63,2.71.45.29-1.05.56-2.04.86-3.16-.69-.22-1.28-.48-1.89-.57-1.08-.17-2.18-.25-3.27-.37-.18,0-.37.01-.55.02-.8.2-1.59.42-2.39.61-1.4.33-2.45,1.18-3.09,2.41-.35.68-.4,1.51-.59,2.27-.43.28-.45.55.01.82.1.56.02,1.28.34,1.63.88.96,1.58,2.14,2.83,2.7,1.09.49,2.19.97,3.3,1.44,1.07.45,1.59,1.1,1.52,1.98-.07.92-.63,1.48-1.8,1.72-.44.09-.93.16-1.36.09-1.12-.2-2.22-.49-3.32-.74-.37-.08-.73-.17-1.07-.25-.24.88-.43,1.6-.64,2.31-.26.89-.16,1.12.72,1.53,1.45.64,2.99.66,4.54.64.7,0,1.39-.05,2.08-.08,1.82-.39,3.43-1.13,4.5-2.75,1.31-1.98,1.03-4.75-.59-6.46-1.11-1.16-2.52-1.77-3.97-2.36Z"/><path class="cls-1" d="m275.99,187.73c-.38-.94-.94-1.7-1.77-2.35-1.25-.98-2.72-1.43-4.12-2.07-.64-.29-1.26-.73-1.74-1.24-.56-.59-.34-1.34.35-1.81,1.13-.76,2.28-.97,3.6-.41.71.3,1.54.31,2.3.45.21-.55.37-.97.53-1.39.06-.18.12-.36.18-.54.07-.39.14-.79.22-1.21-.1-.09-.19-.21-.31-.26-2.95-1.09-5.91-1.12-8.75.25-2.25,1.08-3.47,4.38-2.37,6.58.75,1.51,2.04,2.6,3.72,3.19,1.15.4,2.28.9,3.32,1.52,1.21.72,1.17,1.96,0,2.76-.87.59-1.86.75-2.87.54-1.24-.25-2.46-.58-3.78-.9-.62.74-.5,1.79-.87,2.65-.27.61-.05.84.44,1.03.62.23,1.24.44,1.86.67,1.56,0,3.13.02,4.69.02,1.04-.29,2.11-.42,3.07-1.03,2.11-1.32,2.83-3.22,2.59-5.59-.09-.29-.18-.57-.27-.86Z"/><path class="cls-1" d="m534.63,184.86c-1.09-.56-2.26-.98-3.35-1.53-.64-.32-1.26-.72-1.78-1.21-.5-.48-.4-1.04.08-1.55.86-.91,1.93-1.23,3.12-.98.94.2,1.86.55,2.96.89.36-1.11.72-2.2,1.09-3.35-1.54-.69-3.01-.91-4.51-1.04-.18,0-.37,0-.55,0-.57.12-1.14.29-1.72.34-2.04.17-4.18,1.31-4.91,3.82-.57,1.96.22,4.41,2.03,5.62,1.11.74,2.41,1.19,3.61,1.8.68.35,1.38.69,1.96,1.16.61.49.56,1.33.04,1.93-.84.96-1.96,1.17-3.13.98-1.33-.22-2.64-.58-4.16-.93-.21.85-.3,1.79-.68,2.59-.29.63.12.79.37,1.1.13.15.35.22.53.33,2.09.38,4.2.5,6.33.35.37-.09.74-.18,1.1-.27,1.36-.24,2.29-1.18,3.29-2.02.15-.28.31-.56.45-.84,1.32-2.62.28-5.94-2.2-7.21Z"/><path class="cls-1" d="m367.53,179.95c.72.27,1.03,0,1.46-.08.25-1.06.47-2.01.72-3.11-1.49-.24-2.83-.45-4.17-.66-.74.03-1.47.06-2.21.09-.44.11-.89.21-1.32.33-3.73,1.03-6.2,3.28-6.92,7.17-.21,1.14-.1,2.3-.09,3.45.02,2.83,1.3,5.02,3.53,6.59.99.7,2.27.99,3.42,1.47l4.67.2c.91-.29,1.81-.59,2.82-.91-.18-1.09-.35-2.09-.52-3.13-.9.12-1.7.22-2.5.32-.12.01-.24.03-.37.04-.34,0-.69.01-1.03.02-.12-.02-.24-.04-.37-.06-1.11-.06-2.15-.33-3.05-1.03-2.13-1.66-2.84-5.28-1.6-7.98,1.17-2.54,4.64-3.81,7.51-2.72Z"/><path class="cls-1" d="m9.48,176.14c-1.51.39-3.07.6-4.45,1.41-1.42.83-3.22,2.96-3.76,4.57-.19.58-.39,1.16-.58,1.74.04.15.13.31.11.45-.28,1.66-.28,3.36.2,4.92.6,1.96,1.73,3.7,3.64,4.75.34.18.66.39.99.59.55.18,1.1.36,1.66.55,1.64.09,3.29.18,4.93.27.59-.18,1.16-.41,1.76-.52.92-.17,1.08-.27,1-1.2-.06-.76-.24-1.5-.39-2.34-.89.12-1.74.23-2.58.34-.12.02-.25.03-.37.04-.34,0-.69.02-1.03.03-.12-.03-.24-.06-.36-.09-.49-.09-.99-.14-1.46-.29-2.47-.82-3.47-2.74-3.63-5.14-.29-4.19,2.38-7.01,6.71-6.56.38-.21.53.04.66.33.72-.18,1.43.43,2.15,0,.12-.36.23-.72.35-1.09.1-.66.19-1.32.29-1.98-1.67-.77-3.35-.73-5.02-.85-.28.02-.55.03-.83.05Z"/><path class="cls-1" d="m638.24,47.82c-.06-.03-.13-.07-.19-.1.06.04.13.07.19.1,0-.11,0-.22-.01-.33.02-.08.04-.16.06-.24-.03-.55-.05-1.09-.08-1.64-.12-.82-.24-1.64-.36-2.45-.04-.2-.07-.39-.11-.59-.29-1.29-.58-2.58-.85-3.88-.05-.26,0-.54.02-.81-.09-.28-.18-.55-.27-.83-.15-.61-.27-1.22-.45-1.82-1.17-3.85-2.75-7.52-5.04-10.85-1.12-1.63-2.42-3.14-3.65-4.7-.47-.37-.93-.74-1.4-1.12-.64-.58-1.27-1.16-1.92-1.72-2.6-2.26-5.53-4.08-8.6-5.59-3.44-1.69-7.1-2.87-10.78-3.97-3.09-.92-6.28-1.35-9.44-1.9-1.07-.19-2.18-.2-3.26-.34-.99-.13-1.96-.44-2.95-.47-1.15-.03-2.26-.19-3.36-.49l-1.11-.12c-.37,0-.73.03-1.1.02-2.84-.09-5.68-.26-8.53-.27-15.33-.03-30.66-.02-46-.02-.87,0-1.74.04-2.61.05-.15.1-.41.18-.43.3-.16,1.18-.39,2.37.14,3.53.01.6.04,1.19.04,1.79,0,45.31,0,90.63,0,135.94,0,.46-.04.91-.06,1.37,0,.83,0,1.66,0,2.48,0,0,.09-.03.09-.03.06.1.13.21.19.31.08.04.15.09.22.16.46-.03.91-.08,1.37-.08,11.85,0,23.69,0,35.54-.01.59,0,1.18-.1,1.77-.16-.02-1.17-.04-2.33-.05-3.5-.02-.67-.03-1.34-.05-2.02-.08-.7-.22-1.4-.24-2.1-.03-.93.02-1.86.03-2.79.11-.17.3-.34.3-.51,0-2.23-.03-4.46-.05-6.69-.01-.73,0-1.45-.05-2.17-.04-.63-.23-1.25-.24-1.87-.02-3.01.01-6.01,0-9.02,0-.67-.14-1.35-.21-2.02.64,0,.56-.5.55-.88,0-3.4-.03-6.8-.04-10.21.03-.07.03-.14,0-.21-.06-1.43-.12-2.86-.18-4.29,0,0,0,0,0,0,.1-.31.2-.63.31-.95-.04-.28-.08-.55-.12-.83l.04-.55c.2-.1.4-.19.6-.29,3.88.02,7.76.05,11.63.05,1.55,0,3.1-.04,4.65-.06,1.47.02,2.94.03,4.41.05.29.33.57.35.84-.02.91-.09,1.83-.2,2.74-.25,1.94-.11,3.88-.2,5.75-.81.17-.06.36-.02.54-.04,1.34-.19,2.7-.29,4-.62,2.05-.52,4.09-1.13,6.08-1.84,2.48-.88,4.9-1.91,7.35-2.87.66-.32,1.31-.64,1.97-.97l2.49-1.68c.18.01.37.02.55.04.08-.04.16-.05.25-.06.78-.65,1.56-1.31,2.35-1.95,1.24-1.01,2.49-2.01,3.74-3.02.92-.92,1.84-1.84,2.76-2.76.63-.82,1.26-1.64,1.89-2.47.49-.73.98-1.45,1.46-2.18,0-.09,0-.18,0-.27-.65-.19-1.3-.37-1.96-.56.65.19,1.3.37,1.96.56.1-.1.2-.19.29-.29.08-.09.16-.17.24-.26.32-.53.65-1.05.97-1.58.42-.85.84-1.7,1.27-2.55.07,0,.14-.02.21-.02.02-.09.04-.18.07-.26.28-.73.55-1.47.83-2.2.17-.37.33-.73.5-1.1l-.07-.46c-.25-.12-.5-.25-.74-.37.25.12.5.25.74.37.1-.09.19-.17.29-.26,0-.22.02-.44.03-.66.04-.09.08-.17.12-.26-.37-.13-.55-.37-.61-.69.06.32.24.56.61.69.1-.37.19-.75.29-1.12.06-.09.13-.18.19-.27.11-.37.21-.74.32-1.1.24-1.11.48-2.22.72-3.32.12-.54.24-1.09.36-1.63l.15-1.69c.03-.54.06-1.07.08-1.61-.35-.29-.35-.57.02-.83.04-1.38.09-2.75.13-4.13,0-1.01-.01-2.02-.02-3.03-.04-.09-.08-.17-.12-.26Zm-2.47-5.53h0c-.09.38-.19.76-.29,1.15.1-.38.2-.76.29-1.15Zm0,5.78c.07.35.15.71.22,1.06-.07-.36-.15-.71-.22-1.06h0Zm-43.82-42.57c-.11.14-.23.29-.34.43h0c.11-.14.23-.29.34-.43Zm-23.53,65.47h-.83c-.19-.05-.38-.09-.57-.14l.03.12c-.28,0-.56,0-.84,0l-.92-.3c0-1.19,0-2.39,0-3.58h0c.02-.36.06-.73.06-1.09,0-10.2,0-20.39,0-30.59,0-.36-.04-.73-.06-1.09.04-.64.07-1.29.11-1.93l-.1-.27c.02-.18.03-.37.05-.55.29-.05.58-.11.87-.16.37,0,.74,0,1.1,0,.37,0,.73,0,1.1,0,1.66,0,3.31,0,4.97,0,2.04.1,4.08.19,6.12.29.35.05.71.1,1.06.14,3.5.3,6.84,1.16,9.93,2.87.37.24.74.47,1.11.71.37.27.74.54,1.11.81.68.59,1.37,1.18,2.05,1.77,0,0,.06.06.06.06.22.31.45.62.67.93h0c.36.46.71.93,1.07,1.4,1.57,2.43,2.23,5.15,2.51,7.98.05.64.11,1.29.16,1.93-.01,1.09.03,2.18-.05,3.26-.21,2.89-1.12,5.6-2.39,8.19-.47.67-.93,1.34-1.4,2.01-.86.82-1.67,1.72-2.6,2.44-3.44,2.65-7.47,3.89-11.7,4.44-2.36.31-4.77.23-7.15.3-1.47.04-2.94.04-4.41.06h-1.1Z"/><path class="cls-1" d="m92.62,194.61c.07.09.15.18.22.27h3.92c0-1.29-.02-2.47,0-3.65.02-1.21-.1-2.43.1-3.64h5.36c.37-.04.74-.08,1.11-.12.04-.28.08-.56.12-.84,0-.46,0-.92,0-1.38-.05-.35-.11-.7-.18-1.17h-6.41v-4.23c2.4-.09,4.72.07,6.96-.1v-3.31h-11.2v18.17Z"/><path class="cls-1" d="m636.81,191.38c-2.19-.03-4.38-.06-6.57-.09-.14-.09-.28-.18-.43-.27-.03-.41-.07-.82-.07-1.23,0-3.99,0-7.98,0-11.97,0-.44,0-.88,0-1.38-1.47-.04-2.77-.16-4.15.05,0,.62,0,1.11,0,1.61-.01,5.23-.03,10.46-.04,15.69-.46.71-.41.89.28,1.09,3.76.11,7.52.03,11.26.06.07-.42.1-.65.14-.87,0-.18,0-.37,0-.55,0-.37.02-.73.03-1.1-.05-.31-.1-.62-.15-.9-.13-.06-.21-.13-.29-.13Z"/><path class="cls-1" d="m115.24,190.52c0-3.74,0-7.47,0-11.21,0-.5.05-1,.07-1.5-.04-.47-.07-.94-.11-1.41-1.29,0-2.58,0-3.88.01-.07.1-.14.2-.2.3,0,5.96-.01,11.93-.02,17.89.08.09.15.18.23.27,1.29,0,2.58,0,3.87.01.05-.09.1-.18.15-.28-.01-.28-.03-.55-.04-.83-.02-1.09-.06-2.18-.07-3.27Z"/><path class="cls-1" d="m548.74,176.72c-.07-.09-.14-.18-.2-.26-1.26,0-2.53,0-3.8,0v18.43h3.81c.08-.09.16-.19.23-.28.02-1.19.05-2.38.07-3.57,0-4.41,0-8.81,0-13.22-.03-.36-.07-.73-.1-1.09Z"/><polygon class="cls-1" points="443.21 89 443.24 89.06 443.27 89 443.21 89"/><path class="cls-1" d="m595.46,176.45h-3.68c0,.77,0,1.49,0,2.22.02,2.75.05,5.49.08,8.24.07.54.14,1.07.21,1.61-.05.16-.1.33-.16.49-.09-.15-.19-.31-.28-.46-.15-.42-.31-.84-.46-1.26-.23-.39-.46-.78-.68-1.18-1.64-2.99-3.27-5.99-4.94-8.97-.18-.31-.56-.71-.87-.72-1.45-.08-2.9-.03-4.43-.03v18.46h3.86c0-.45,0-.81,0-1.17-.05-3.71-.11-7.42-.17-11.13v-.82c.09-.01.19-.02.28-.03.07.27.13.53.2.8,1.96,4.25,4.26,8.32,6.56,12.4h4.47c.07-.09.14-.18.21-.27,0-5.96,0-11.93,0-17.89-.07-.09-.14-.18-.21-.27Z"/><path class="cls-1" d="m157.47,181.39c-1.01-2.54-3.06-3.94-5.55-4.58-3.19-.82-6.45-.66-9.7-.26-.12.02-.24.13-.5.28,0,.38,0,.83,0,1.27,0,4.45-.01,8.9,0,13.35,0,1.14.06,2.29.1,3.43l.17.22c1.29.03,2.57.06,3.86.09,1.01,0,2.02-.01,3.04-.02,2.61-.45,5.08-1.22,7.08-3.08.95-1.4,1.85-2.81,2.01-4.55.07-.77.2-1.53.3-2.29-.1-.83-.19-1.65-.29-2.48-.17-.46-.34-.92-.5-1.38Zm-4.5,7.47c-1.23,2.25-3.79,3.29-7.02,2.78v-11.85c2.14-.88,5.35.09,6.49,1.5,1.45,1.79,1.74,5.35.53,7.57Z"/><path class="cls-1" d="m565.66,176.39c-.19-.07-.37-.14-.56-.22-.76.09-1.52.18-2.28.26-1.77.19-3.33.88-4.61,2.11-2.96,2.83-3,6.39-2.54,10.11.12,1,.67,1.75,1.06,2.58.62,1.31,1.6,2.31,2.9,2.98.63.33,1.26.66,1.89.98,1.84-.02,3.67-.04,5.51-.06.18-.11.36-.24.56-.31,2.44-.91,4.24-2.55,5.14-4.98.86-2.31,1.01-4.73.36-7.14-.94-3.53-3.35-6.2-7.42-6.32Zm2.69,12.63c-.61,1.68-1.84,2.74-3.7,2.84-1.81.1-3.09-.81-3.85-2.38-1.26-2.61-1.19-5.24.16-7.79.73-1.38,1.92-2.22,3.55-2.21,1.63,0,2.78.84,3.53,2.24.66,1.23,1,2.55,1.1,4-.25,1.11-.4,2.25-.79,3.31Z"/><path class="cls-1" d="m250.68,176.75c-2.42-.51-4.88-.63-7.37-.36-2.2.24-2.21.15-2.36,2.25.02,1.23.06,2.46.06,3.68,0,4.01-.04,8.01-.06,12.02.08.41.3.58.74.61.53.03,1.05.16,1.58.24.18,0,.37.01.55.02,1.56,0,3.13,0,4.69,0,.85-.21,1.7-.39,2.54-.63.45-.13.88-.33,1.32-.5.71-.49,1.45-.95,2.11-1.49,2.98-2.45,3.47-7.89,2.35-10.79-1.12-2.88-3.26-4.44-6.15-5.05Zm2.02,10.69c-.47,2.19-1.86,3.52-3.99,4.09-1.11.3-2.25.34-3.5.2-.03-3.96-.07-7.84-.1-11.72.03-.09.06-.19.08-.28,3.88-1.03,7.81.86,7.74,5.53,0,.73-.09,1.46-.24,2.17Z"/><path class="cls-1" d="m435.73,186.62c-.16-.12-.26-.3-.41-.46.2-.16.29-.26.41-.32,2.72-1.38,3.41-4.81,1.68-7.25-1.02-1.45-2.52-1.87-4.13-2.11-2.71-.4-5.41-.19-8.11.07-.07.06-.13.12-.2.17-.02.32-.07.64-.07.96,0,5.64.02,11.29.03,16.93.08.09.15.19.23.28h3.96v-7.04c2.15-.5,3.44.33,4.03,2.2.36,1.13.58,2.31.88,3.46.16.61.33,1.34,1.06,1.4,1.26.1,2.53.03,3.82.03-.48-1.84-.89-3.51-1.37-5.17-.34-1.19-.76-2.35-1.82-3.15Zm-3.09-2.41c-1.07.48-2.21.54-3.5.32v-4.94c1.2-.56,2.37-.36,3.49.05,1.07.39,1.42,1.27,1.4,2.42-.02,1.07-.48,1.74-1.39,2.15Z"/><path class="cls-1" d="m51.26,186.24c.11-.12.14-.17.18-.19,1.96-1.09,3.13-3.15,2.78-5.19-.37-2.18-1.47-3.58-4.12-4.14-1.07-.23-2.17-.43-3.25-.44-1.96-.01-3.91.13-5.91.21v18.4c1.42,0,2.73.16,4.17-.12v-6.78c.09-.08.18-.16.27-.25.27-.01.55-.04.82-.03,1.47.04,2.33.68,2.75,2.09.41,1.39.8,2.78,1.18,4.18.18.65.53.98,1.25.95,1.14-.05,2.29-.03,3.43-.04.03-.1.06-.2.08-.3-.25-.78-.47-1.57-.74-2.34-.75-2.12-.74-4.6-2.88-6.03Zm-2.77-2c-1.03.43-2.12.49-3.38.35v-5.03c1.19-.5,2.35-.32,3.46.11.98.38,1.5,1.17,1.5,2.24,0,1.13-.56,1.91-1.58,2.34Z"/><path class="cls-1" d="m312.29,186.18c.29-.18.47-.25.6-.37.69-.63,1.68-1.15,1.99-1.93.45-1.12.66-2.33.24-3.69-.53-1.7-1.48-2.79-3.08-3.35-.72-.25-1.52-.28-2.28-.41-2.2-.39-4.39-.03-6.59.04-.35.01-.71.08-1.11.12v18.34c.74,0,1.38,0,2.02,0,.67-.01,1.33-.04,2.13-.06v-6.87c.09-.08.18-.17.27-.25,2.69-.1,3.42.55,3.95,3.3.19.99.54,1.95.8,2.93.17.64.52.99,1.24.96,1.14-.05,2.29-.03,3.44-.04.03-.1.05-.2.08-.3-.24-.78-.46-1.57-.72-2.35-.72-2.15-.79-4.59-2.98-6.08Zm-2.8-1.91c-.99.29-2.05.34-3.27.52v-5.22c1.18-.5,2.31-.32,3.4.07,1.04.37,1.59,1.29,1.55,2.36-.04,1.15-.65,1.96-1.69,2.27Z"/><path class="cls-1" d="m607.46,176.45c-1.88,6.18-3.73,12.27-5.6,18.42h4.53c.45-1.58.87-3.1,1.29-4.59h5.22c.39,1.34.81,2.56,1.09,3.81.13.55.36.83.87.84,1.32.02,2.64,0,4.07,0-1.93-6.25-3.81-12.35-5.71-18.48h-5.77Zm4.56,10.64c-.96.02-1.92.04-2.88.05-.18,0-.36-.04-.71-.08.12-1.29.65-2.44.9-3.65.25-1.19.55-2.37,1.08-3.58.28,1.17.53,2.35.83,3.52.31,1.19.65,2.37.98,3.55-.07.07-.14.13-.21.2Z"/><path class="cls-1" d="m661.78,11.44c-.35-2.52-1.34-4.63-3.07-6.4-2.71-2.78-6.11-3.85-9.95-3.69-.38.05-.76.11-1.13.16-1.83.58-3.58,1.25-5.15,2.48-2.44,1.9-3.72,4.41-4.2,7.3-.58,3.58.31,6.89,2.64,9.73,1.88,2.29,4.35,3.7,7.23,4.12,1.86.27,3.8.2,5.67-.53,3.8-1.49,6.4-4.08,7.69-7.94.57-1.71.52-3.43.26-5.24Zm-11.61,11.56c-5.87.07-9.79-5.15-9.72-9.76,0-5.54,4.65-9.88,9.66-9.79,5.84.11,9.69,4.99,9.57,9.84-.14,5.57-3.96,9.64-9.51,9.7Z"/><path class="cls-1" d="m498.66,191.55c-1.84,0-3.68,0-5.52,0-.35,0-.69-.08-1.07-.13v-4.05c1.14-.07,2.23-.16,3.31-.19,1.13-.03,2.27,0,3.47,0v-3.3l.05.05.06-.04c-.05-.09-.1-.18-.14-.26-.09-.03-.17-.02-.25.04-2.02-.03-4.05-.06-6.07-.08-.13-.09-.26-.18-.39-.27v-3.48c.53,0,.97,0,1.42,0,1.87-.02,3.74-.04,5.61-.06.06-.1.12-.21.18-.32,0-.91,0-1.82,0-2.73-.07-.1-.13-.19-.2-.29h-11.26v18.18c.07.09.15.18.22.27,3.77,0,7.54,0,11.31,0,.07-.09.14-.19.22-.28.03-.55.05-1.1.08-1.64,0-.28,0-.55,0-.83-.08-.66-.59-.59-1.04-.59Z"/><path class="cls-1" d="m26.42,190.21v-1.11c0-.55-.02-1.09-.02-1.64.07-.08.14-.16.2-.25,2.18-.03,4.36-.06,6.55-.09.05-.08.1-.16.15-.24,0-1.04,0-2.07,0-3.29h-6.88v-3.71c2.43-.22,4.84.09,7.27-.18v-2.99c-.07-.08-.14-.17-.21-.25-3.62-.03-7.25-.06-10.87-.08-.08,0-.16.07-.39.18v18.04c.08.09.15.19.23.28,3.81.22,10.45.12,11.48-.18v-3.14h-7.51v-1.36Z"/><path class="cls-1" d="m469.31,176.44v18.41h4.14v-7.29h6.56v-3.12c-.07-.1-.13-.19-.2-.29-2.09-.03-4.18-.06-6.32-.1v-4.2c.52,0,.96,0,1.41,0,1.83-.03,3.65-.05,5.48-.08.06-.1.12-.21.18-.31v-2.73c-.06-.09-.13-.19-.19-.28h-11.05Z"/><path class="cls-1" d="m174.86,194.61c.08.09.15.18.23.27h3.93v-2.16c.16-.02.31-.04.47-.06-.15-.09-.31-.18-.46-.28.02-.27.04-.54.06-.81,0-.16,0-.33,0-.49v-3.54c2.23-.02,4.36.05,6.46-.07v-3.39h-6.45v-1.31c0-.46,0-.92,0-1.38v-1.55c2.43-.04,4.75.04,7-.09v-3.31h-11.21v18.17Z"/><path class="cls-1" d="m84.55,176.44h-3.86v18.51c1.4-.1,2.71.12,3.98-.14.05-.18.1-.27.1-.35,0-5.91-.01-11.83-.02-17.74-.07-.09-.13-.19-.2-.28Z"/><path class="cls-1" d="m348.22,177.59c0-.39-.05-.78-.07-1.15h-3.86c-.07.09-.13.19-.2.28-.02.27-.05.55-.05.82,0,5.59,0,11.17,0,16.76,0,.17.06.34.11.59h4c.04-.09.09-.19.13-.28-.03-.5-.08-1-.08-1.5,0-5.17.01-10.35.02-15.52Z"/><path class="cls-1" d="m337.74,176.39c-.48-.03-.97-.06-1.45-.09-.55,0-1.1,0-1.66,0-.53.06-1.06.12-1.46.17-.34,1.13-.64,2.1-.91,3.08-.77,2.75-1.53,5.51-2.3,8.26-.17.62-.36,1.24-.54,1.86-.11,0-.22-.01-.32-.02-1.24-4.41-2.48-8.82-3.71-13.22h-4.8c1.98,6.23,3.94,12.36,5.9,18.52h5.11c.18-.39.35-.79.53-1.18.84-2.58,1.65-5.17,2.51-7.75,1.03-3.1,2.09-6.19,3.14-9.28.07,0,.15,0,.21-.03-.01-.12-.03-.24-.04-.36-.07,0-.15.01-.22.03Z"/><path class="cls-1" d="m74.05,176.32s-.04.06-.04.06c0,0,.05.05.05.05h-13.98v3.31c.06.07.13.13.19.2,1.47.04,2.94.09,4.41.13.08.08.16.15.24.23.02.5.06,1,.06,1.49.02,4.27.03,8.55.04,12.82.07.09.14.18.22.27h3.93v-14.9h4.62c.15-.09.29-.17.44-.26.01-1,.02-2,.03-3.01.06-.08.07-.16.05-.26-.09-.05-.18-.1-.26-.15Z"/><path class="cls-1" d="m223.17,195.42c.08-.08.15-.17.23-.25-.08,0-.15,0-.23-.01-.02.09-.02.18,0,.26Z"/><path class="cls-1" d="m283.84,148.25c.18.02.36.04.54.06.01-.08.02-.16.03-.24-.19,0-.38,0-.57-.01,0,.06,0,.13,0,.19Z"/><path class="cls-1" d="m83.78,77.24h0s-.01,0-.02-.01c0,0,.02.01.02.01Z"/><path class="cls-1" d="m399.45,29.63c0-8.35,0-16.7,0-25.05,0-.26-.08-.52-.13-.88-.6,0-1.14,0-1.69,0-31.58,0-63.16,0-94.74,0-.36,0-.73.04-1.09.07-.07.08-.13.17-.2.25-.04.73-.08,1.46-.12,2.19.03,1.33.08,2.66.08,3.99,0,38.9,0,77.79,0,116.69,0,7.43,0,14.86,0,22.29-.06.05-.12.09-.18.14.14.05.27.1.41.15.41.02.82.06,1.23.06,11.69,0,23.39,0,35.08,0,.59,0,1.19.04,1.78.06.26-.05.52-.11.78-.16,0-18.58.01-37.17.02-55.75,0-.78-.03-1.56-.05-2.34.02-.1.03-.19.05-.29.93-.09,1.86-.19,2.79-.28.18,0,.37,0,.55,0,.41.02.82.06,1.23.06,16.75,0,33.5,0,50.25,0,.41,0,.82-.04,1.23-.06.07-.09.14-.18.2-.26.02-8.22.04-16.43.05-24.65,0-.78-.04-1.56-.06-2.34-.07-.08-.13-.16-.2-.24-1.19,0-2.39,0-3.58,0-.37-.02-.73-.06-1.1-.06-17.1,0-34.2,0-51.3-.01-.03-.41-.08-.82-.08-1.23,0-9.18.01-18.36.01-27.54,0-.78-.03-1.56-.05-2.34.02-.18.03-.37.05-.55.58-.08,1.15-.22,1.73-.22,17.93-.01,35.85,0,53.78-.01.55,0,1.1-.04,1.65-.06h1.61c-.03-.47-.04-.78-.06-1.09.02-.18.06-.36.06-.55Z"/><path class="cls-1" d="m301.52,3.76c0,.09.02.17.07.25.07-.08.13-.17.2-.25-.09-.03-.18-.03-.27,0Z"/><path class="cls-1" d="m290.3,119.6c.06-.15.13-.31.19-.46-.1-.09-.2-.18-.29-.28-.52.32-.12.52.11.74Z"/><path class="cls-1" d="m507.39,130.16c.37-.46.73-.92,1.1-1.38h0c.32-.63.64-1.26.96-1.89h0c.63-1.32,1.32-2.62,1.89-3.97.36-.85.55-1.77.82-2.65.1-.36.2-.73.3-1.09.16-.47.31-.94.47-1.4.02-.16.03-.33.05-.49h0c.2-.56.41-1.13.61-1.69-.01-.1-.02-.2-.03-.3.08-.18.17-.36.25-.54l.02-.84c.11-.54.22-1.08.34-1.62-.02-.1-.04-.2-.06-.3.09-.27.19-.54.28-.8.42-3.84.3-7.69.2-11.53-.02-.55-.13-1.09-.2-1.64-.12-.94-.24-1.88-.36-2.82l-.19-.56c-.1-.28-.19-.56-.29-.83.13-.58.04-1.1-.25-1.62-.14-.25-.18-.57-.27-.85-.02-.18-.05-.37-.07-.55-.06-.09-.13-.18-.19-.27-.03-.19-.05-.39-.08-.58-.06-.08-.12-.16-.18-.24-.03-.2-.06-.4-.1-.6-.06-.08-.12-.15-.18-.23-.03-.2-.07-.4-.1-.6-.06-.08-.12-.15-.18-.23-.03-.19-.07-.39-.1-.58-.08-.08-.15-.17-.23-.25-.02-.18-.04-.37-.06-.55-.78-1.48-1.55-2.97-2.33-4.45-2.02-3.26-4.47-6.12-7.47-8.53-2.53-2.04-5.23-3.8-8.1-5.3-3.9-2.03-7.95-3.72-12.18-4.95-.09-.06-.18-.12-.27-.18-.37-.08-.74-.15-1.11-.23-.36-.12-.73-.24-1.09-.36-1.6-.51-3.19-1.06-4.8-1.54-2.4-.7-4.84-1.31-7.23-2.03-2.44-.73-4.87-1.51-7.28-2.33-1.61-.55-3.21-1.12-4.76-1.82-2.13-.97-4.13-2.17-5.88-3.78-1.29-1.2-2.17-2.64-2.96-4.17-.11-.57-.22-1.14-.33-1.7h0c-.29-1.75.09-3.46.33-5.18.04-.08.06-.17.06-.27.12-.19.24-.37.35-.56.48-.83.83-1.76,1.44-2.48,2.94-3.41,6.92-4.78,11.2-5.53.84-.15,1.69-.19,2.54-.31,1.61-.23,3.21-.62,4.82-.69,2.61-.12,5.23-.06,7.85-.05,1.27,0,2.56-.08,3.77.49,1.66-.69,3.18.58,4.82.33.55-.08,1.15.09,1.72.2,1.83.36,3.68.68,5.48,1.13,2.22.56,4.44,1.15,6.62,1.87,2.45.81,4.84,1.79,7.37,2.73.06-.24.17-.57.22-.91.11-.67.19-1.35.28-2.03.02-.46.04-.91.06-1.37-.03-.28-.05-.55-.08-.83h0c.09-1.01.18-2.02.27-3.03h0c.19-1.91.42-3.82.58-5.73.42-4.97.81-9.95,1.22-14.92.04-.49.1-.97.15-1.44-.23-.1-.35-.17-.47-.2-2.63-.71-5.24-1.52-7.91-2.1-3.15-.69-6.33-1.2-9.51-1.76-1.66-.29-3.33-.53-4.99-.79-1.02-.06-2.04-.12-3.06-.18-2.38-.16-4.76-.33-7.14-.49l-.55-.02c-.92,0-1.84-.02-2.76-.02-1.38,0-2.76,0-4.14.01-.46.05-.92.1-1.38.15-.09-.03-.18-.07-.28-.1-.18.05-.37.1-.55.15-.28-.04-.55-.08-.83-.12-.74.06-1.49.13-2.23.19l.04.12c-.37-.03-.74-.05-1.11-.08-.55.03-1.1.06-1.66.09-.28.08-.55.16-.83.25-1.03-.11-2.03,0-3.04.22-2.02.29-4.05.57-6.07.86-.26.04-.53.09-.79.13-.2.04-.39.09-.59.13-.73.1-1.45.19-2.18.29-.08.03-.17.04-.27.03-.18.11-.34.27-.54.32-1.12.31-2.24.6-3.36.9l-1.66.41c-.55.18-1.11.36-1.66.54-.46.15-.92.31-1.37.46-.64.22-1.29.44-1.93.66l-2.21.83c-.37.18-.74.36-1.11.53-1.68.88-3.37,1.73-5.03,2.63-1.37.75-2.71,1.56-4.06,2.35-.28.19-.55.38-.83.57l-1.13,1.08c-.08.07-.17.15-.25.22-.38.29-.76.59-1.14.88l-.81.73c-1.37,1.41-2.75,2.83-4.12,4.24-.21.3-.43.61-.64.91-.61.89-1.23,1.78-1.84,2.67-.3.55-.6,1.1-.9,1.65-.02.13-.01.28-.07.39-1.25,2.34-2.31,4.76-3.03,7.32-.07.18-.14.37-.21.55-.19.92-.39,1.84-.58,2.75-.08.28-.16.55-.24.83-.07.73-.15,1.47-.22,2.2-.01.37-.03.73-.04,1.1.02.18.04.37.06.55-.05.29-.11.58-.16.87-.05.35-.09.7-.14,1.06.05,0,.1-.01.15-.03.11.09.27.16.4.25-.13-.08-.28-.16-.4-.25-.06.56-.11,1.12-.17,1.69.04.64.09,1.29.13,1.93,0,.1,0,.2,0,.3-.03.49-.1.98-.08,1.46.03.88.12,1.76.18,2.64.09.37.18.75.27,1.12.07.45.14.9.21,1.36.58.04,1.17.05,1.75.09-.58-.03-1.17-.04-1.75-.09,0,.38-.04.77,0,1.14.09.73.22,1.45.34,2.17.21.73.43,1.47.64,2.2,0,0,.07.1.07.1l.67,1.83c.03.18.05.36.08.54.92,1.84,1.84,3.67,2.76,5.51.36.64.72,1.27,1.08,1.91.38.43.78.84,1.14,1.29,1.71,2.16,3.64,4.11,5.8,5.83.1.08.16.21.24.32.18.18.37.37.55.55.75.47,1.51.94,2.25,1.42.79.51,1.56,1.04,2.34,1.56.21.13.43.27.64.4.55.28,1.1.55,1.66.83,1.01.55,2.02,1.1,3.04,1.65.34.14.68.28,1.02.42.58.29,1.17.58,1.75.88,1.17.41,2.34.83,3.52,1.24.75.26,1.51.52,2.27.78.18.09.37.18.55.27.68.18,1.36.33,2.03.54,1.54.49,3.07,1,4.6,1.5.46.14.92.29,1.38.43,1.2.37,2.39.73,3.59,1.1l.13-.03.13.02c.28.1.56.19.84.29.18.06.37.12.55.18,1.39.47,2.77.94,4.16,1.41.63.21,1.27.41,1.91.61.74.28,1.47.55,2.21.83,1.38.55,2.75,1.09,4.13,1.64.46.25.93.5,1.39.75.37.28.74.56,1.12.84.18.09.37.18.55.27.46.3.91.6,1.37.9.19.16.38.32.56.47,1.03.72,1.96,1.55,2.67,2.59.27.39.45.85.67,1.28.52.2.51.66.56,1.1.46.55,1.01,2.16,1.05,3.05.46,1.56.48,3.12,0,4.68-.08.28-.16.56-.24.84-.09.28-.18.55-.27.83-.21.64-.43,1.28-.64,1.91-.37.6-.67,1.26-1.13,1.8-.91,1.06-1.88,2.07-3.21,2.62-.02.08-.03.15-.04.23l-.83.55c-.45.11-.91.23-1.36.34-.36.09-.72.17-1.08.26-.47.7-1.33.66-1.97,1.04-.55.11-1.11.21-1.66.32-.19.09-.37.26-.56.26-1.32,0-2.59.25-3.88.51-1.06.21-2.2.08-3.3.07-3.49-.03-6.98-.08-10.47-.11-.27,0-.55.03-.82.05-.92-.09-1.84-.18-2.76-.28-.19-.07-.37-.14-.56-.22-.92-.11-1.84-.22-2.76-.33l-.83-.25c-.75-.04-1.56.28-2.21-.36-.28-.04-.56-.08-.84-.12-.36-.04-.73-.09-1.09-.13-.1-.06-.2-.12-.3-.17-.27-.1-.53-.19-.8-.29-1.44-.3-2.89-.59-4.32-.91-.41-.09-.81-.28-1.21-.43-.18-.09-.37-.19-.55-.28-.46-.12-.91-.24-1.37-.35l-3.61-1.27c-1.19-.47-2.39-.93-3.58-1.4-.46-.21-.91-.43-1.37-.64l-.13.03s-.13-.02-.13-.02c-.18-.09-.37-.18-.55-.27-.74-.44-1.49-.88-2.23-1.31-.45-.09-.9-.18-1.35-.26-.03.45-.05.89-.08,1.34-.13,1.6-.25,3.19-.41,4.78-.06.61-.24,1.22-.37,1.83,0,.55-.02,1.1-.03,1.65-.01.18-.02.37-.04.55-.02.19-.05.39-.07.58-.04.26-.08.53-.12.79,0,.09,0,.19,0,.28-.09.28-.17.56-.26.83-.02.36-.05.73-.07,1.09-.09.64-.19,1.29-.28,1.93-.06.64-.12,1.29-.18,1.93.55.18,1.1.36,1.63.54-.53-.18-1.08-.36-1.63-.54-.03.46-.06.92-.1,1.38.03.09.06.18.09.28-.12.64-.25,1.29-.37,1.93-.07.55-.13,1.11-.2,1.66-.03.27-.05.54-.08.82,0,.37-.01.74-.02,1.1-.06.46-.11.92-.17,1.38-.04.37-.07.73-.11,1.1-.07.83-.14,1.65-.21,2.48-.08.28-.16.56-.24.84.08.58.16,1.16.23,1.74.48.23.95.47,1.43.7.81.21,1.62.41,2.43.62,1.09.2,2.19.4,3.28.61.66.13,1.31.27,1.96.41.21.03.43.07.64.1,0,0,0,0,0,0,.02.07.04.15.06.22.32.08.63.16.95.24,1.1.2,2.21.41,3.31.61.47.06.93.12,1.4.18l-.03.1c.28-.02.56-.04.84-.06.79.5,1.68.47,2.58.56,1.46.14,2.89.52,4.34.79.27.05.54.04.82.06,1.1.09,2.21.17,3.31.26.83,0,1.66.02,2.48.02.05-.47.11-.95.16-1.42-.05.47-.11.95-.16,1.42.18.09.37.17.55.26.28.01.55.03.83.04.74.06,1.48.12,2.23.18.64.03,1.28.07,1.91.1,1.85.06,3.69.12,5.54.18.36.03.72.05,1.09.08.28,0,.55,0,.83,0,.37,0,.74,0,1.11-.01.37,0,.73,0,1.1,0,1.45-.09,2.9-.19,4.35-.25,1.59-.07,3.18-.11,4.77-.17l1.01-.1c.21-.05.43-.1.64-.15.18.03.37.07.55.1.46-.11.92-.22,1.38-.32h.83c.28.03.55.06.83.09.83-.12,1.66-.25,2.48-.37.09.03.18.06.28.09l.28-.3c.46-.08.92-.16,1.38-.24.09-.03.18-.06.28-.09h0c.09.03.18.06.28.09.37-.1.74-.19,1.11-.29h0c.46-.11.91-.22,1.37-.33.55-.1,1.1-.2,1.66-.3-.06-.54-.35-.74-.74-.77.39.03.68.24.74.77.55-.09,1.1-.18,1.66-.28,1.2-.34,2.39-.67,3.59-1.01.65-.19,1.29-.38,1.94-.57.7-.27,1.4-.53,2.1-.8.3-.05.6-.1.9-.15.38-.23.72-.54,1.13-.69,2.15-.79,4.29-1.6,6.19-2.92.35-.25.83-.31,1.25-.46.46-.28.92-.56,1.37-.83l1.15-.97c.46-.38.91-.76,1.37-1.14.73-.5,1.46-1,2.19-1.51.27-.17.54-.34.82-.51.69-1.24,1.78-2.09,2.85-2.97.63-.82,1.25-1.63,1.88-2.45.54-.75,1.07-1.5,1.61-2.25Zm-3.33-98.34c-.09,0-.18,0-.27,0,.09,0,.18,0,.27,0Zm-85.79,116.27c.32-.06.63-.12.95-.17-.32.05-.63.11-.95.17Zm50.99,1.84c.19-.03.32-.09.41-.18-.09.09-.22.15-.41.18Z"/><path class="cls-1" d="m653.05,14.07c1.79-.63,2.62-1.88,2.47-3.97-.17-2.29-1.11-3.37-3.23-3.62-1.95-.23-3.94-.18-5.91-.24-.3,0-.61.07-.94.12v13.85h2.12v-5.45c.04-.09.08-.17.12-.26,1.34-.29,2.25.18,2.93,1.4.71,1.28,1.6,2.46,2.37,3.71.33.53.72.8,1.35.71.43-.06.86-.06,1.49-.1-1.3-2.01-2.48-3.83-3.71-5.74.38-.16.66-.3.95-.4Zm-5.38-1.46v-4.16c1.34,0,2.62-.09,3.89.03,1.17.11,1.64.74,1.65,1.83.01,1.11-.44,1.74-1.56,1.92-1.26.19-2.53.26-3.98.39Z"/></g></svg>