<?xml version="1.0" encoding="UTF-8"?><svg id="Layer_2" xmlns="http://www.w3.org/2000/svg" viewBox="0 0 425.44 190.45"><defs><style>.cls-1{fill:#029ddc;}.cls-2{fill:#fefeff;}.cls-3{fill:#183986;}</style></defs><g id="Layer_1-2"><path class="cls-3" d="m423.12,148.19c-2.58-4.31-6.42-7.35-10.6-9.96-6.34-3.94-13.22-6.64-20.35-8.81-3.35-1.02-6.71-1.98-10.16-2.59-1.19,1.16-1.51,2.73-1.99,4.23,1.46.57,2.94,1.09,4.41,1.63,2.87,1.06,5.69,2.28,8.42,3.69,4.53,2.34,8.8,5.03,12.12,8.98,1.94,2.31,3.33,4.94,3.5,8.03.24,4.17-1.57,7.52-4.38,10.41-4.16,4.28-9.24,7.1-14.64,9.55-3.81,1.72-7.69,3.24-11.64,4.54-9.23,3.03-18.72,4.86-28.38,5.8-3.85.37-7.69.74-11.55.98-3.88.24-7.77.37-11.65.45-3.74.07-7.48.05-11.22.01-2.65-.03-5.3-.15-7.93-.18-3.14-.04-6.26-.48-9.4-.27-.19.01-.38-.16-.57-.19-1.26-.21-2.62.06-3.75-.77-1.21.92-2.52.07-3.78.19-1.3.13-2.68-.05-3.92-.31-3.01-.64-6.12-.54-9.1-1.33-.49-.13-.91.07-1,.65-.08.51,0,.89.61,1.02.87.19,1.73.43,2.6.64,3.91.94,7.83,1.8,11.82,2.37,2.82.41,5.61,1.11,8.44,1.41,2.39.26,4.75.82,7.18.83,1.13,0,2.3.13,3.44.26,2.65.31,5.3.58,7.97.67,2.7.09,5.4.16,8.1.21,5.19.1,10.38.15,15.57-.03v-.06s.02.06.02.06c2.77-.04,5.54-.12,8.3-.37,3.85-.35,7.71-.52,11.54-1.03,4.23-.57,8.5-.98,12.69-1.79,5.59-1.08,11.15-2.3,16.65-3.85,7.42-2.09,14.63-4.6,21.33-8.47,4.58-2.65,8.67-5.89,11.33-10.56,3.02-5.3,3.2-10.73.01-16.06Z"/><path class="cls-3" d="m195.23,121.04c-1.43-1.78-3.24-3.06-5.29-4.05-3.66-1.77-7.61-2.59-11.48-3.7-1.84-.53-3.66-1.1-5.23-2.23-2.25-1.62-2.27-4.36-.05-6.02,1.09-.81,2.33-1.18,3.69-1.25,1.95-.09,3.85.16,5.71.75,2.54.8,4.98,1.8,7.08,3.45.64.5,1.01.45,1.41-.12,1.56-2.25,3.11-4.5,4.66-6.76.44-.65.37-1.1-.35-1.64-5.25-3.89-11.17-5.49-17.63-5.38-1.4.03-2.8-.04-4.21.24-3.81.75-7.18,2.29-9.66,5.37-2.77,3.44-3.73,7.4-3.06,11.75.63,4.09,2.74,7.14,6.41,9.12,3.32,1.79,6.91,2.78,10.54,3.69,2.46.61,4.91,1.36,7.14,2.64,1.11.64,1.81,1.55,1.84,2.89.05,2.34-1.43,3.94-3.86,4.65-3.16.92-6.16.34-9.12-.66-2.79-.95-5.35-2.39-7.62-4.29-.74-.62-1.15-.57-1.76.23-1.6,2.06-3.31,4.05-5.02,6.02-.55.63-.63.96.1,1.55,3.78,3.01,7.91,5.26,12.67,6.36,5.39,1.25,10.73,1.31,15.96-.53,3.63-1.28,6.56-3.55,8.2-7.17.77-1.7,1.11-3.47,1.26-5.35.27-3.46-.07-6.72-2.32-9.53Z"/><path class="cls-3" d="m288.92,144.49c2.8.29,5.44-.11,8.06-.67,3.65-.78,6.64-2.83,9.11-5.62.35-.39.5-.71.02-1.14-1.78-1.55-3.54-3.11-5.29-4.69-.42-.38-.68-.23-1.07.05-1.82,1.32-3.56,2.82-5.9,3.2-3.5.56-6.78.31-9.43-2.42-.31-.32-.83-.76-.78-1.06.15-.86-.37-1.18-.86-1.67-.28-.28-.46-.85-.39-1.23.09-.48.66-.35,1.06-.36,2.7-.01,5.4-.04,8.1-.03,5.19,0,10.39.03,15.58.06.65,0,.99-.05,1.11-.89.2-1.45.09-2.84.02-4.28-.12-2.41-.6-4.75-1.43-6.94-2.24-5.92-6.35-9.86-12.79-10.96-1.78-.3-3.57-.78-5.4-.37,0,0-.07,0-.07,0-.85.12-1.72.19-2.56.35-6.36,1.22-11.62,6.12-13.69,12.67-.93,2.94-1.14,5.94-.83,9.06.36,3.66,1.73,6.87,3.84,9.72,3.33,4.52,7.98,6.66,13.59,7.23Zm-6.62-24c1.7-5.29,6.29-7.84,11.4-5.39,2.47,1.19,3.4,3.61,3.91,6.17.17.86-.52.66-.95.66-2.2.02-4.4.01-6.61.01h0c-2.16,0-4.32,0-6.48,0-.92,0-1.54-.62-1.27-1.46Z"/><path class="cls-3" d="m237.32,143.8c.93.02,1.02-.42,1.02-1.13-.01-3.48,0-6.97,0-10.9-.16-4.26.25-8.99-.43-13.69-.7-4.94-2.92-8.71-7.64-10.79-2.12-.93-4.38-1.36-6.65-1.48-5.61-.29-11.13.25-16.34,2.6-.44.2-.74.34-.49.87.99,2.14,1.45,4.46,2.19,6.68.26.8.5,1.06,1.49.75,4.33-1.37,8.69-2.51,13.27-.99,2.37.79,3.74,2.53,3.94,5.12.08,1.08-.14,1.27-1.16,1-3.02-.81-6.1-1.29-9.25-1.07-1.31.09-2.63.2-3.91.47-2.67.56-5.18,1.54-7.02,3.66-2.47,2.84-3.36,6.12-2.64,9.86.66,3.44,2.35,6.12,5.42,7.87,3.24,1.85,6.68,2.42,10.35,1.63,2.23-.48,4.39-1.11,6.25-2.51.58-.43,1.15-1.49,1.7-1.21.61.32.23,1.43.22,2.18-.01.86.28,1.04,1.08,1.03,2.87-.04,5.73-.04,8.6.03Zm-9.54-12.09c-1.07,4.73-8.13,6.22-11.18,4.54-1.31-.72-2.45-1.67-2.63-3.2-.22-1.86.62-3.36,2.17-4.43,1.33-.91,2.56-1.17,5.75-1.17,1.25-.24,2.72.18,4.2.54,1.78.43,2.15,1.67,1.69,3.73Z"/><path class="cls-3" d="m267.93,92.88c-.88-.19-1.75-.45-2.65-.52-2.74-.22-5.45-.43-8.23.15-1.91.4-3.57,1.04-4.88,2.36-2.19,2.2-3.09,4.98-3.16,8.05-.01.08-.03.16-.04.24,0,.26-.01.51-.02.77.03.06.06.11.08.18,0,.01-.05.04-.08.06,0,.25,0,.5,0,.75.03.06.06.12.08.19,0,.01-.05.04-.08.07-.04.45.07.92-.24,1.32-.2-.01-.4-.02-.6-.03-1.14-.03-2.3-.43-3.41.19.01.05.03.1.03.15,0,0-.05.02-.07.02-.01,1.82-.04,3.64-.04,5.46,0,3.15,0,3.18,3.18,3.15.86,0,1.1.2,1.1,1.1-.04,8.65-.01,17.3-.05,25.96,0,.97.23,1.29,1.24,1.26,3.19-.07,6.39-.12,9.58.08,0,0,.06-.01.06-.01.09-.17.17-.35.26-.52,0,0,0-.02,0-.02-.02-2.03-.05-4.06-.06-6.09-.02-6.93-.01-13.86-.08-20.78,0-.91.43-.93,1.05-.93,2.12-.01,4.24-.07,6.36-.03.82.01,1.1-.24,1.08-1.06-.05-2.28-.02-4.56-.03-6.84,0-.4.09-.85-.35-1.12,0,0-.01-.02-.01-.02-2.36.02-4.73.05-7.09.03-.47,0-1.19.21-1.27-.59-.2-2.08.79-4.14,2.91-4.48,1.7-.27,3.4-.03,4.97.61.83.34,1.03.22,1.03-.57.01-2.53.01-5.05.02-7.58,0-.44-.09-.84-.6-.95Z"/><path class="cls-3" d="m347.3,123.63c1.37.26,2.76.56,4.12.75,3.69.51,7.32,1.35,10.99,1.94,2.69.43,5.27,1.32,7.9,1.98,1.56.39,3.21.49,4.61,1.39,1.27-1.14,1.46-2.69,1.62-4.26-.56.17-1.04-.18-1.56-.25-2.94-.38-5.88-.85-8.82-1.28-3.06-.45-6.08-1.19-9.2-1.2-1.26,0-2.52-.32-3.78-.4-1.93-.14-3.86-.2-5.79-.29-.53-.03-.96.3-.94.74.01.35.29.79.85.89Z"/><path class="cls-3" d="m98.32,162.39c-.88-1.18-.87-1.19.46-1.89,2.19-1.15,2.73-4.57.97-6-1.47-1.2-3.12-1.71-5-1.5-.11,0-.23,0-.34,0-1.03-.08-2.06-.12-3.08.01,0,0-.02,0-.02,0-.24,0-.48.02-.72.03,0,0,0,0,0,0-.48-.05-.65.17-.63.64.05.92.07,1.85.1,2.78,0,0,0,0,0,0-.01,3.02-.02,6.04-.05,9.06,0,.78.43,1,1.11,1,.7,0,.8-.46.78-1.01-.02-1.03-.05-2.07-.06-3.1,0-.4-.06-.86.58-.86,1.72-.01,3.5-.34,4.42,1.78.37.85,1.1,1.54,1.67,2.31.42.56.92.91,1.67.9.83,0,.98-.33.51-.96-.78-1.07-1.6-2.11-2.39-3.17Zm-1.93-2.66c-1.28.1-2.56.04-3.84.09-.53.02-.64-.29-.66-.69-.09-1.23.13-2.47-.15-3.7-.1-.44.36-.6.68-.77l.04-.04.05.03c1.47.17,2.99-.22,4.43.28,1.72.59,2.17,1.17,2.03,2.57-.12,1.2-1.12,2.13-2.58,2.24Z"/><path class="cls-3" d="m17.65,154.37c0-.58.26-1.36-.9-1.31-1.05.05-.82.71-.82,1.3,0,2.61,0,5.23,0,7.84,0,.25.17.6-.32.74-1.21-1.54-2.43-3.11-3.66-4.66-1.23-1.56-2.49-3.1-3.7-4.67-.46-.6-1.07-.66-1.67-.48-.56.17-.36.77-.36,1.19-.02,3.73-.02,7.47-.02,11.2,0,.46-.07.95.61,1,.62.04,1.08-.11,1.05-.86h-.06s.06-.02.06-.02c-.03-1.66-.06-3.31-.09-4.97,0,0,0,0,0,0-.04-1.28.41-2.6-.31-3.83.11-.33-.38-1.18.63-.72,2.59,3.23,5.16,6.47,7.52,9.88.45.65,1.09.59,1.66.5.58-.1.44-.72.44-1.15,0-3.66,0-7.32-.04-10.98Z"/><path class="cls-3" d="m206.4,158.84c-.82-1.59-1.36-3.29-2.11-4.9-.25-.53-.55-1.1-1.23-1.08-.56.01-.98.35-1.23.9-1.71,3.83-3.44,7.65-5.16,11.47-.19.41-.52.95-.02,1.21.55.29,1.15.06,1.47-.55.28-.55.64-1.09.78-1.67.21-.89.76-1.2,1.58-1.21,1.37-.01,2.74-.06,4.11,0,1.74.07,2.4.61,2.86,2.33.21.77.74,1.02,1.28,1.16.92.09,1.09-.19.76-.92-1.04-2.24-1.95-4.55-3.09-6.74Zm-.96,2.33c-.35.34-1.26.15-1.92.15-1.03,0-2.49.43-2.97-.2-.52-.69.63-1.76.96-2.7.35-1.02.76-2.02,1.23-3.24,1.15,1.37,1.55,2.87,2.14,4.23.24.56,1.17,1.18.56,1.77Z"/><path class="cls-3" d="m76.42,160.4c-.09-1.02-.32-1.98-1.03-2.84-1.32-1.59-5.11-1.53-6.69-.47-.3.2-.6.47-.38.79.23.34.51.8,1.07.66.35-.09.69-.26,1.04-.33,1.34-.27,2.66-.47,3.71.78.27.32.46.59.33.97-.17.47-.62.39-.96.34-1.17-.18-2.33.05-3.5.02-.67-.02-1.14.24-1.57.77-1.02,1.27-1.24,2.86-.48,4,.92,1.39,2.51,1.97,4.09,1.51,1.15-.33,2.27-1.02,3.52-.19.36.24.57.04.71-.48.28-1.07.09-2.13.15-3.19,0-.79.05-1.58-.01-2.36Zm-2.63,4.11c-1,.71-2.09,1.06-3.35.56-.86-.34-1.21-.88-1.23-1.78-.02-.95.72-1.16,1.35-1.37.53-.18,1.14-.12,1.42-.15.47,0,.63,0,.8,0,.71,0,1.62-.06,1.85.67.23.73-.16,1.6-.83,2.07Z"/><path class="cls-3" d="m169.25,162.83c0-.91.05-1.83-.01-2.74-.14-2.15-1.44-3.59-3.38-3.74-1.24-.1-2.49-.09-3.67.47-.45.21-1.04.3-.85.98.17.61.71.62,1.23.54.24-.04.47-.16.71-.21,1.93-.45,3.37-.06,4.04,1.09.4.69.43,1.17-.62,1.11-1.04-.05-2.08-.02-3.13,0-1.79.03-3.21,1.44-3.26,3.22-.06,2.26,3.18,4.18,5.35,3.06.83-.43,1.58-.46,2.36-.2.98.33,1.3-.03,1.28-.96-.02-.87,0-1.74,0-2.61h-.04Zm-1.82.76c-.66,1.56-3.44,2.22-4.73,1.12-.54-.46-.83-1.06-.64-1.75.2-.71.92-.99,1.5-1.07,1.05-.15,2.13-.09,3.2-.03.54.03.91.39.84,1.03-.06.24-.08.49-.17.71Z"/><path class="cls-3" d="m139.36,162.8c0-1.03.05-2.07-.01-3.1-.12-1.84-1.38-3.19-3.17-3.34-1.22-.1-2.46-.17-3.64.41-.49.24-1.11.31-.88,1.07.2.66.84.58,1.25.43.86-.32,1.72-.16,2.58-.21,1.12-.07,1.74.61,2.21,1.5.29.55.09.76-.48.76-1.12,0-2.25,0-3.37,0-1.86,0-3.16,1.35-3.25,3.19-.1,2,2.25,3.81,4.51,3.16,1.18-.34,2.35-.96,3.56-.13.71.49.67-.19.69-.49.05-1.07.02-2.15.02-3.23,0,0-.01,0-.02,0Zm-3.05,2.04c-.88.28-1.85.54-2.79.17-.88-.34-1.27-1-1.14-1.94.13-.92.93-1.06,1.6-1.26.42-.12.9-.02,1.35-.02.12,0,.25,0,.37,0,.84,0,1.93-.27,2.11.91.15,1.01-.56,1.85-1.5,2.15Z"/><path class="cls-3" d="m266.6,159.78c.02-.73-.2-1.36-.64-1.95-1.02-1.39-3.46-2-5.54-1.24-.6.22-1.82.16-1.53,1.2.29,1.03,1.27.42,2.01.36,1.21-.09,2.47-.43,3.54.57.44.41.47.88.36,1.36-.16.64-.73.29-1.03.22-1.01-.25-2.01-.02-3,.05-2.33.16-3.59,2.68-2.57,4.48.98,1.74,3.36,2.56,5.37,1.63.58-.27.94-.47,1.62-.04.84.54,1.44.04,1.45-1.04.01-.95,0-1.9,0-2.86-.01,0-.03,0-.04,0,0-.91-.01-1.82,0-2.73Zm-2.29,4.64c-.92,1.01-3.12,1.11-4.17.24-.53-.44-.65-1-.54-1.67.1-.64.54-.79,1.08-1,.7-.27,1.38-.16,2-.21.24,0,.4,0,.57,0,.66,0,1.52-.14,1.78.52.28.74-.16,1.53-.7,2.12Z"/><path class="cls-3" d="m27.22,156.88c-1.84-.67-3.75-.89-5.61.07-.34.18-.66.39-.49.86.16.46.49.66.96.56.28-.06.56-.21.84-.22,1.41-.06,2.92-.52,4.03.86.25.3.48.6.33,1-.15.41-.53.3-.85.3-1.04,0-2.07,0-3.11-.01-1.84,0-3.39,1.69-3.2,3.48.28,2.66,3.81,3.81,6.11,2.37.5-.31.83-.51,1.22.06.24.35.63.4,1.01.29.48-.14.39-.58.39-.94.01-.95,0-1.91,0-2.86,0-.99.05-1.99-.01-2.98-.07-1.2-.42-2.39-1.63-2.84Zm-.07,6.88c-.66,1.07-1.64,1.46-2.69,1.28-.38,0-.58,0-.79,0-1-.02-1.7-.48-1.79-1.5-.1-1.07.67-1.6,1.58-1.73.93-.13,1.9-.1,2.84,0,1.17.13,1.49.91.86,1.94Z"/><path class="cls-3" d="m235.21,156.3c-3.14.02-5.3,2.15-5.32,5.17-.02,2.26,2.28,5.51,5.18,5.31,3.69-.25,5.4-2.47,5.45-5.59.04-2.23-1.87-4.97-5.31-4.89Zm3.42,5.28c.01,2.12-1.27,3.42-3.3,3.51-2.07.09-3.57-1.53-3.67-3.77-.08-1.64,1.93-3.6,3.59-3.59,1.56,0,3.85,2,3.39,3.85Z"/><path class="cls-3" d="m109.27,156.6c-2.41-.92-5.79.09-6.45,3.79-.41,2.32.46,4.51,2.21,5.6,1.86,1.16,3.97,1.06,5.85-.3.47-.34,1.07-.74.63-1.39-.47-.69-1.02-.16-1.5.12-2.32,1.37-4.31.74-5.37-1.26-.37-.7-.36-1.08.58-1.04.99.04,1.99,0,2.99,0,0-.02,0-.04,0-.06,1.08,0,2.16,0,3.24,0,.39,0,.73-.04.79-.56.22-1.79-1.25-4.24-2.97-4.89Zm.56,4.11c-.83.01-1.65,0-2.48,0,0,.02,0,.04,0,.06-.74,0-1.49-.01-2.23,0-.46,0-.7-.12-.59-.64.24-1.12,1.71-2.31,2.9-2.32,1.4,0,2.48.89,2.87,2.21.16.56,0,.68-.46.69Z"/><path class="cls-3" d="m49,156.31c-2.53-.23-5.34,2.19-5.21,5.09.14,3.04,2.17,5.42,5,5.36,3.19-.06,5.49-2.19,5.42-5.47-.06-3.14-2.58-5.15-5.21-4.98Zm.01,8.76c-2.29.24-3.62-2.11-3.67-3.67-.06-1.77,1.91-3.65,3.69-3.62,1.77.03,3.48,1.82,3.48,3.66,0,2.17-1.41,3.63-3.5,3.63Z"/><path class="cls-3" d="m286.35,156.31c-2.98.05-4.92,2.32-4.81,5.79.08,2.49,2.21,4.69,5.19,4.66,3.21-.03,5.08-2.32,5.02-6.01-.04-2.61-2.33-4.49-5.4-4.44Zm.17,8.75c-2.22-.05-3.36-1.37-3.29-3.8.05-1.87,1.71-3.57,3.42-3.51,1.92.07,3.69,1.81,3.55,3.78-.15,2.23-1.47,3.76-3.68,3.53Z"/><path class="cls-3" d="m174.84,156.91c-.47.23-.99.59-1.34-.25-.27-.67-.88-.28-1.31-.21-.21.04-.62.24-.44.68.64,1.56.12,3.19.3,4.48,0,1.53-.02,2.78,0,4.02.02.76.71,1.15,1.37.83.5-.24.35-.71.36-1.1.07-1.86-.27-3.73.2-5.57.33-1.28,1.7-2.16,2.93-1.97,1.28.2,2.11,1.22,2.11,2.63,0,1.7.02,3.4,0,5.1-.01.63.07,1.01.86.98.67-.03,1.12-.08,1.11-.91-.03-1.82.14-3.66-.04-5.47-.32-3.22-2.75-4.89-6.11-3.25Z"/><path class="cls-3" d="m65.29,159.97c.04-1.49-.73-2.63-1.88-3.26-1.24-.67-2.73-.79-3.98.18-.65.51-1.09.51-1.5-.19-.26-.45-.67-.45-1.09-.34-.5.13-.41.58-.41.92-.01.74.04,1.49.07,2.24,0,.13-.01.25-.02.38-.03.34-.06.68-.08,1.02l.07.02s-.07.01-.07,0c-.02,1.57-.02,3.15-.07,4.72-.02.64.18.87.84.86,1.09-.01,1.36-.47,1.2-1.8-.18-1.56-.24-3.15.07-4.7.28-1.42,1.69-2.37,3.03-2.2,1.27.16,2.09,1.26,2.09,2.78,0,1.62,0,3.23,0,4.85,0,.57-.01,1.07.8,1.1.85.03.96-.47.95-1.11,0-1.82-.05-3.65,0-5.47Z"/><path class="cls-3" d="m149.84,156.35c-.78,0-.7.58-.71,1.05-.02,1.66,0,3.31,0,4.97,0,1.41-.92,2.5-2.24,2.67-1.57.2-2.67-.5-3.01-2.01-.13-.56-.16-1.15-.17-1.72-.03-1.32-.03-2.65-.03-3.97,0-.56-.12-.98-.79-1.01-.7-.03-.8.4-.79.97.02.99,0,1.99,0,2.98.01,0,.03,0,.04,0,0,.95-.02,1.9,0,2.86.07,2.35,2.76,4.37,4.89,3.52,1.03-.41,1.87-.74,2.95-.21.59.29.99.09.9-.82-.12-1.13-.02-2.29.09-3.44.16-1.62.27-3.27-.11-4.91-.15-.68-.37-.92-1.02-.92Z"/><path class="cls-3" d="m302.52,166.51c.44-.05.47-.42.47-.76,0-2.07.09-4.16-.06-6.22-.2-2.78-3.27-4.22-5.63-2.71-.66.43-1.19.76-1.72-.14-.23-.39-.66-.49-1.1-.32-.5.18-.45.61-.48,1.03-.05.75.3,1.43.26,2.19-.08,1.95-.02,3.9-.07,5.85-.02.69.1,1.1.92,1.11.89.01.88-.53.88-1.15,0-1.49.05-2.99-.02-4.48-.04-.87.29-1.57.81-2.12.73-.77,1.68-1.24,2.81-.88,1.09.35,1.78,1.09,1.79,2.27.02,1.82-.03,3.65-.05,5.47.02.05.06.1.07.16,0,.02-.03.05-.05.07.15.66.66.67,1.17.61Z"/><path class="cls-3" d="m217.01,161.11c-1.02-.43-2.08-.74-3.08-1.21-.36-.17-.86-.49-.75-1.04.09-.48.53-.64.95-.86,1.18-.63,2.09.26,3.12.44.4.07.96.39,1.14-.25.16-.56.18-1.19-.64-1.36-.92-.19-1.84-.39-2.41-.52-1.42,0-3.38.99-3.61,1.65-.55,1.61.49,3.48,2.17,3.95.73.2,1.45.44,2.18.65.82.23,1.09.75.91,1.58-.17.79-.75.88-1.39.92-1.02.06-1.95-.11-2.86-.64-.48-.28-1.22-.37-1.48.35-.24.67.22,1.06.86,1.25.72.22,1.43.49,2.16.68,1.97.52,4.02-.74,4.42-2.69.29-1.38-.21-2.28-1.67-2.9Z"/><path class="cls-3" d="m226.73,161.36c-1.04-.38-2.08-.75-3.1-1.19-.6-.26-1.37-.65-1.15-1.37.19-.62.92-1.05,1.68-1.05.49,0,.98.03,1.43.33.3.2.64.38.98.46.46.1.95.07,1.07-.54.09-.48,0-.91-.55-1.09-.86-.28-1.69-.72-2.46-.61-.35,0-.51,0-.68,0-1.57.05-2.7.94-3.01,2.37-.27,1.25.34,2.36,1.8,3.03.9.42,1.85.74,2.8,1.01.75.21.96.62.87,1.35-.1.75-.59.96-1.21.98-1.14.04-2.26.04-3.29-.61-.48-.31-1.13-.31-1.43.24-.39.72.27,1.03.77,1.24.64.26,1.34.38,2,.6,1.45.5,2.69.13,3.92-.73,1.5-1.05,1-3.92-.45-4.44Z"/><path class="cls-3" d="m119.36,161.06c-.99-.42-2.03-.71-2.98-1.19-.98-.5-.91-.88-.11-1.58,1.21-1.04,2.33-.27,3.48.05.48.13.98.46,1.19-.3.17-.62-.07-1.07-.71-1.22-.87-.21-1.76-.39-2.43-.53-1.54.04-2.72.39-3.32,1.66-.85,1.82.1,3.45,2.33,4.05.73.19,1.4.46,2.1.73.77.29.87.8.76,1.45-.12.73-.66.87-1.29.89-1.05.04-2.06-.06-3.01-.58-.49-.26-1.2-.52-1.45.22-.22.66.25,1.12.96,1.3.83.21,1.64.55,2.48.74,1.46.34,3.54-.79,3.97-2.1.52-1.59-.13-2.81-1.96-3.58Z"/><path class="cls-3" d="m249.43,164.54c-1.14.73-2.39.79-3.55.2-1.26-.64-1.92-1.86-1.99-3.22-.07-1.52.82-2.62,2.13-3.36,1.32-.75,2.49-.28,3.57.52.47.34.96.72,1.35.13.37-.56.23-1.21-.44-1.59-.97-.55-1.97-1.04-3.1-.91-3.2-.43-6.6,3.95-4.77,7.37,1.52,2.85,4.8,3.94,7.51,2.21.63-.4,1.58-.85.9-1.75-.41-.54-1.1.06-1.61.39Z"/><path class="cls-3" d="m187.84,165.04c-1.53.02-1.84-.26-1.85-1.77,0-1.16,0-2.32,0-3.48,0-1.69,0-1.68,1.65-1.74.59-.02,1.31.09,1.34-.83.04-.97-.71-.81-1.29-.87-.21-.02-.42-.02-.62,0-1.19.17-1.35-.63-1.24-1.46.1-.79-.07-1.23-.89-1.31-1.09-.11-.72.75-.66,1.18.16,1.01-.09,1.66-1.16,1.8-.47.06-.35.37-.37.63-.02.3,0,.62.41.6,1.1-.03,1.14.64,1.08,1.48-.06.78-.01,1.58-.01,2.36,0,.75-.01,1.49,0,2.24.03,1.97,1.76,3.36,3.65,2.87.62-.16,1.31-.59,1.25-1.3-.07-.85-.84-.41-1.31-.4Z"/><path class="cls-3" d="m274.38,156.51c-.37-.14-.71-.16-1.08-.17-1.71-.02-1.74-.02-1.75-1.72,0-.7-.15-1.09-.96-1.06-.93.04-.61.8-.5,1.08.43,1.17-.1,1.7-1.13,1.9-.42.08-.42.3-.41.59,0,.28-.07.65.37.64,1.31-.03,1.14.86,1.11,1.69-.02.66,0,1.32,0,1.99,0,.87-.02,1.74,0,2.61.05,2.01,1.76,3.12,3.68,2.5.64-.21,1.14-.46,1.04-1.14-.11-.76-.81-.37-1.23-.37-1.57-.03-1.74-.16-1.74-1.68,0-1.41.05-2.82-.02-4.22-.04-.85.16-1.21,1.07-1.11.48.06,1,.14,1.46-.1.26-.14.76-.09.65-.57-.07-.32-.11-.68-.57-.85Z"/><path class="cls-3" d="m127.69,165.06c-1.44-.05-1.77-.38-1.81-1.86-.04-1.16.15-2.3.22-3.45.1-1.64.05-1.65,1.69-1.69.57-.01,1.06,0,1.11-.8.06-.97-.52-.99-1.19-.93-1.91.2-1.88-.06-1.82-1.79,0-.12,0-.25.01-.37.02-.43-.22-.59-.62-.59-.38,0-.79-.06-.85.47-.03.25-.02.5-.03.75-.02.76.21,1.65-1.1,1.58-.33-.02-.47.41-.45.78.02.3.02.65.42.63.94-.04.91.63.95,1.25.06.95.12,1.9.15,2.46,0,1.18-.03,1.97,0,2.76.08,1.76,1.79,2.91,3.51,2.4.66-.2,1.37-.44,1.18-1.27-.17-.76-.91-.32-1.37-.33Z"/><path class="cls-3" d="m36.13,158.06c.5-.1.95-.22.96-.88.01-.71-.53-.72-.99-.82-.16-.04-.33,0-.5,0-2.06,0-1.74-.09-1.74-1.77,0-.52.15-1.19-.67-1.2-.73,0-.81.58-.82,1.15,0,.29,0,.58-.01.87-.05.63-.12,1.27-1.02,1.17-.4-.04-.47.19-.47.53,0,.35,0,.73.46.72,1.03-.02,1.09.61,1.05,1.39-.04.74,0,1.49,0,2.24,0,.79.08,1.59-.02,2.36-.25,1.84,1.76,3.52,3.59,2.77.61-.25,1.29-.34,1.14-1.15-.16-.82-.89-.35-1.34-.36-1.44-.04-1.72-.23-1.8-1.68-.05-.91-.02-1.82-.02-2.73,0-.74-.22-1.6.08-2.21.41-.82,1.41-.24,2.14-.39Z"/><path class="cls-3" d="m81.22,153.51c0-.66-.14-1.14-.92-1.17-.68-.02-1.1.15-1.09.96,0,.34-.21.68-.2,1.07.03,3.6.04,7.19.08,10.79,0,.68-.11,1.41,1.04,1.4,1.09,0,1.1-.66,1.1-1.38.02-1.94,0-3.89,0-5.83h-.01c0-1.94-.01-3.89,0-5.83Z"/><path class="cls-3" d="m158.06,156.5c-.81.25-1.37.91-2.09,1.32-.16.09-.35.31-.54.11-.09-.1-.14-.35-.08-.46.48-.86-.18-1.03-.73-1.12-.7-.11-.78.43-.78.98,0,1.37,0,2.74,0,4.1,0,1.37,0,2.74,0,4.1,0,.04,0,.08,0,.12-.05.65.28.85.9.87.66.02.89-.26.87-.88-.03-.99-.06-1.99-.02-2.98.1-2.69.76-3.69,3.12-4.41.91-.28.99-.88.79-1.49-.25-.78-.93-.42-1.45-.26Z"/><path class="cls-3" d="m421.54,179.72c-.35-.1-.65.17-.85.41-.39.47-.76.98-1.04,1.52-.42.8-.79.69-1.22.04-.31-.48-.6-.98-.95-1.45-.22-.3-.56-.58-.95-.44-.39.14-.46.52-.44.93.03.53.01,1.07.02,1.6,0,0,0,0,0,0-.02,1.08-.03,2.16-.05,3.25,0,0,0,.01,0,.01.14.21.05.71.48.55.41-.15.78-.4.74-1-.05-.78-.32-1.59.04-2.39.6.19.79.67,1.07,1.07.36.52.7.66,1.11,0,.2-.33.49-.9.97-.66.45.23.17.83.21,1.27.01.18-.15.37-.21.56-.17.58.24.81.64,1.03.51.29.76.01.91-.45,0,0,0-.01,0-.01,0-1.64.02-3.29,0-4.93,0-.37-.07-.79-.49-.92Z"/><path class="cls-3" d="m254.52,156.34c-.75-.02-.9.41-.9,1.02,0,1.32,0,2.65,0,3.97h-.03c0,1.41.02,2.81,0,4.22-.01.68.25.95.94.97.73.02.95-.3.94-.96-.03-2.73-.05-5.46-.05-8.19,0-.64-.2-1.01-.91-1.03Z"/><path class="cls-3" d="m40.52,156.34c-1.17-.14-1,.64-1,1.33.08,1.1.12,2.2-.02,3.29.02,1.53.05,3.06.05,4.59,0,.64.17.98.92.97.69-.01.86-.33.86-.92,0-2.82-.01-5.64,0-8.45,0-.6-.27-.75-.82-.82Z"/><path class="cls-3" d="m279.02,157.47c0-.51.14-1.15-.73-1.14-.77,0-.96.44-.96,1.13.01,2.69,0,5.38-.02,8.07,0,.58.11.95.78.99.73.05.94-.33.93-.98-.01-1.41,0-2.82,0-4.22h0c0-1.28.01-2.57,0-3.85Z"/><path class="cls-3" d="m414.04,179.85c-.36.02-.73.04-1.09.06-.72-.03-1.44-.25-2.16-.03l-.04.06s-.07-.03-.07-.03c-.37.08-.79.2-.87.57-.07.34.34.45.61.46,1.36.05,1.56.88,1.45,2.01-.06.65,0,1.32-.03,1.98-.03.56-.06,1.23.65,1.21.57-.02.84-.58.72-1.21-.04-.2-.02-.41-.02-.62,0-1.64-.47-3.54,2.18-3.64-.37-.64-.86-.73-1.34-.82Z"/><path class="cls-3" d="m254.58,152.81c-.8-.04-1.03.36-.97,1.06-.1.76.4.94.98.94.69,0,1.01-.41,1.03-1.11.02-.77-.43-.86-1.04-.88Z"/><path class="cls-3" d="m279.04,153.84c.04-.68-.16-1.04-.84-1-.6.03-1.19.01-1.17.88.01.65.35,1.09.93,1.06.53-.02,1.19-.2,1.09-.94Z"/><path class="cls-3" d="m40.3,154.63c.61,0,1.05-.12,1.03-.87-.02-.61-.25-.93-1.04-.89-.37.04-.95-.05-.93.79.01.67.25.98.94.97Z"/><path class="cls-2" d="m290.05,121.96c-2.16,0-4.32,0-6.48,0-.92,0-1.54-.62-1.27-1.46,1.7-5.29,6.29-7.84,11.4-5.39,2.47,1.19,3.4,3.61,3.91,6.17.17.86-.52.66-.95.66-2.2.02-4.4.01-6.61.01h0Z"/><path class="cls-2" d="m63.56,121.96c-2.28,0-4.56,0-6.84,0-.53,0-1.1-.01-.88-.77.65-2.26,1.52-4.42,3.61-5.76,4.06-2.61,9.63-1.32,11.56,4.33q.75,2.2-1.59,2.2c-1.95,0-3.9,0-5.85,0,0,0,0,0,0,0Z"/><path class="cls-2" d="m221.89,127.45c1.25-.24,2.72.18,4.2.54,1.78.43,2.15,1.67,1.69,3.73-1.07,4.73-8.13,6.22-11.18,4.54-1.31-.72-2.45-1.67-2.63-3.2-.22-1.86.62-3.36,2.17-4.43,1.33-.91,2.56-1.17,5.75-1.17Z"/><path class="cls-2" d="m92.51,154.65c1.47.17,2.99-.22,4.43.28,1.72.59,2.17,1.17,2.03,2.57-.12,1.2-1.12,2.13-2.58,2.24-1.28.1-2.56.04-3.84.09-.53.02-.64-.29-.66-.69-.09-1.23.13-2.47-.15-3.7-.1-.44.36-.6.68-.77,0,0,.05.05.05.05l.04-.06Z"/><path class="cls-1" d="m386.54,69.47c-1.63-6.74-4.01-13.21-7.11-19.43-1.4-2.82-3.08-5.46-4.71-8.14-2.23-3.68-4.86-7.09-7.67-10.36-6.88-8-14.93-14.61-24.09-19.84-8.66-4.94-17.93-8.28-27.71-10.18-5.14-.99-10.34-1.49-15.58-1.52-3.6-.03-7.2.11-10.8.44-3.74.34-7.46.77-11.11,1.67-6.08,1.5-11.99,3.49-17.73,6.02-3.69,1.63-7.07,3.77-10.59,5.68-2.26,1.23-4.38,2.78-6.35,4.51-2.01,1.76-4.25,3.26-6.25,5.02-1.89,1.67-3.64,3.52-5.39,5.35-.91.95-1.7,2.02-2.56,3.03-.38.44-.39.97-.11,1.37.37.54.79.09,1.15-.15.37-.25.78-.47,1.12-.75,12.64-10.49,27.11-16.96,43.29-19.78,2.9-.5,5.83-.48,8.73-.9,2.24-.32,4.56-.41,6.82-.26,2,.13,4.01.22,6.01.39,3.15.26,6.28.58,9.38,1.14,6.29,1.14,12.39,2.92,18.3,5.39,18.22,7.65,32.48,19.88,42.87,36.65,3.05,4.91,5.54,10.09,7.57,15.5,3.17,8.46,4.88,17.23,5.53,26.22.48,6.63.12,13.22-.97,19.76-.5,3-1.22,5.96-1.85,8.94-.07.07-.14.14-.21.22-.16,1.56-.35,3.11-1.62,4.25.13.35.14.66,0,1.05-1.45,4.24-2.91,8.47-5.19,12.37-.49.84-.91,1.73-1.31,2.62-.19.41-.28.93.17,1.24.5.35.93.12,1.29-.31.13-.16.3-.29.43-.45,3.49-4.53,6.55-9.32,9.03-14.48.15-.31.3-.59.67-.67.48-1.5.8-3.07,1.99-4.23.07-.45.04-.89.22-1.34,2.43-6,4.37-12.13,5.38-18.56.57-3.65,1.07-7.3,1.37-10.96.39-4.8.1-9.6-.42-14.4-.44-4.08-1.05-8.13-2.01-12.11Z"/><path class="cls-1" d="m376.53,125.46s.01-.01.02-.02c0,0,0,0,0,0,0,0-.02.03-.02.03Z"/><path class="cls-1" d="m35.11,119.73c-3.35-3.05-7.58-4.36-11.86-5.46-2.84-.74-5.72-1.35-8.32-2.78-1.5-.82-2.41-2.01-2.28-3.79.12-1.56,1.13-2.5,2.4-3.2,2.43-1.34,4.98-.94,7.48-.37,2.99.68,5.69,2.06,8.2,3.79.47.32.93.7,1.37.05,1.63-2.35,3.24-4.71,4.83-7.09.35-.52.2-.95-.35-1.36-4.82-3.63-10.35-5.18-16.28-5.64-1.87-.14-3.7.22-5.52.48-6.59.94-12.76,5.85-13,13.89-.17,5.77,1.93,10.16,7.33,12.7,2.26,1.07,4.62,1.83,7.02,2.51,3.1.88,6.28,1.48,9.2,2.94,1.84.93,2.77,2.29,2.54,4.38-.2,1.82-1.46,2.72-2.98,3.33-2.28.91-4.63,1.01-7.01.44-3.96-.96-7.63-2.53-10.75-5.22-.56-.48-1.02-.48-1.48.08-1.79,2.18-3.57,4.37-5.38,6.53-.42.5-.35.83.14,1.23,5.84,4.71,12.48,7.2,20,7.3,2.04-.02,4.04-.15,6.04-.6,4.4-.99,8.11-3,10.42-7,1.69-2.92,2.08-6.09,1.8-9.48-.25-3.09-1.33-5.66-3.56-7.68Z"/><path class="cls-1" d="m52.43,109.14c-6.56,5.11-9.13,14.85-6.21,23.09,2.79,7.9,9.73,11.84,17.02,12.37,2.06.15,4.11-.03,6.15-.45,4-.83,7.36-2.71,10.14-5.68.7-.75.53-1.21-.18-1.81-1.49-1.25-2.96-2.54-4.36-3.9-.7-.68-1.16-.64-1.87-.02-2.49,2.16-5.33,3.35-8.73,3.17-3.82-.2-6.74-2.2-8.1-5.76-.32-.85-.34-1.29.79-1.28,3.95.04,7.89.02,11.84.02,0,0,0-.02,0-.02,3.99,0,7.98,0,11.97,0,.66,0,1.1-.07,1.12-.91.07-3.06-.05-6.11-.8-9.08-3.79-14.85-20.08-16.51-28.76-9.74Zm16.98,12.82c-1.95,0-3.9,0-5.85,0h0c-2.28,0-4.56,0-6.84.01-.53,0-1.1-.01-.88-.77.65-2.26,1.52-4.42,3.61-5.76,4.06-2.61,9.63-1.32,11.56,4.33q.75,2.2-1.59,2.2Z"/><path class="cls-1" d="m153.77,106.09c-2.95-.03-5.9,0-8.85-.06-.88-.02-1.24.39-1.49,1.15-2.46,7.34-4.94,14.67-7.42,22-.11.31-.26.61-.42.9-.1.18-.24.36-.48.31-.28-.06-.22-.32-.22-.51.02-.81-.32-1.54-.57-2.28-2.28-6.88-4.58-13.74-6.83-20.63-.23-.71-.58-.9-1.24-.89-1.58.02-3.16,0-4.74,0v-.03c-1.62,0-3.24.02-4.86,0-.85-.01-1.2.2-.73,1.08.29.55.53,1.13.75,1.7,4.47,11.46,8.93,22.92,13.38,34.38.23.59.56.89,1.18.89,2.74,0,5.49,0,8.23,0,.62,0,.98-.26,1.2-.86,1.89-4.95,3.79-9.9,5.72-14.84,2.74-7.02,5.52-14.02,8.28-21.03.44-1.12.35-1.28-.88-1.29Z"/><path class="cls-1" d="m111.66,105.53c-2.32-.16-4.44.32-6.37,1.64-1.73,1.18-2.91,2.8-3.97,4.56-.14.24-.12.78-.59.61-.36-.13-.25-.57-.24-.89.02-1.41,0-2.82.1-4.23.06-.89-.27-1.16-1.14-1.15-2.87.03-5.73.02-8.6-.04-.9-.02-1.11.32-1.11,1.17.03,5.93.02,11.86.02,17.79.01,0,.02,0,.04,0,0,5.89,0,11.78,0,17.67,0,.72-.04,1.29,1.04,1.17,2.81-.32,5.65-.17,8.47-.09,1.03.03,1.28-.25,1.27-1.22-.05-3.77-.11-7.55,0-11.32.07-2.37-.06-4.78.79-7.1.81-2.19,1.9-4.14,3.88-5.47,1.84-1.24,3.88-1.87,6.09-1.89.75,0,1.18-.22,1.18-1.05-.01-3.07-.01-6.14,0-9.21,0-.6-.19-.9-.85-.94Z"/><path class="cls-1" d="m39.5,160.96c.14-1.1.1-2.19.02-3.29-.2,1.1-.16,2.19-.02,3.29Z"/><path class="cls-1" d="m7.44,156.84c.46-.02.27-.61.63-.72-1.01-.47-.52.39-.63.72Z"/><path class="cls-1" d="m412.95,179.91c.36-.02.73-.04,1.09-.06-.37-.12-.73-.1-1.09.06Z"/><path class="cls-1" d="m56.48,159.9c0-.12.01-.25.02-.38-.14.12-.12.24-.02.38Z"/><path class="cls-1" d="m94.42,153c.11,0,.22,0,.34,0-.11-.11-.22-.11-.34,0Z"/><path class="cls-1" d="m248.91,104.99c0,.06.03.11.05.17.03-.02.08-.05.08-.07-.02-.06-.05-.12-.08-.19-.02.03-.05.05-.05.08Z"/><polygon class="cls-1" points="410.68 179.91 410.75 179.94 410.79 179.88 410.71 179.83 410.68 179.91"/><path class="cls-1" d="m248.91,104c0,.05.03.11.05.16.03-.02.08-.05.08-.06-.02-.06-.05-.12-.08-.18-.02.02-.05.05-.05.07Z"/><path class="cls-1" d="m244.66,106.83s.07-.02.07-.02c0-.05-.02-.1-.03-.15-.07.04-.09.1-.04.18Z"/><path class="cls-1" d="m301.29,165.73c.01.05.04.1.06.16.02-.02.06-.05.05-.07-.01-.05-.04-.11-.07-.16-.02.02-.05.05-.04.07Z"/><path class="cls-1" d="m259.72,143.83s-.06.01-.06.01c0,0,.06-.01.06-.01Z"/><polygon class="cls-1" points="56.39 160.94 56.46 160.93 56.39 160.91 56.39 160.94"/><polygon class="cls-1" points="288.58 105.46 288.65 105.45 288.61 105.4 288.58 105.46"/><polygon class="cls-1" points="7.78 165.66 7.84 165.66 7.84 165.65 7.78 165.66"/><polygon class="cls-1" points="91.34 153.02 91.34 152.97 91.32 153.01 91.34 153.02"/><polygon class="cls-1" points="90.6 153.04 90.6 153.04 90.6 152.99 90.6 153.04"/><polygon class="cls-1" points="341.25 190.34 341.27 190.33 341.26 190.28 341.25 190.34"/><polygon class="cls-1" points="92.41 154.66 92.47 154.71 92.51 154.65 92.45 154.62 92.41 154.66"/><path class="cls-2" d="m202.74,155.17c1.15,1.37,1.55,2.87,2.14,4.23.24.56,1.17,1.18.56,1.77-.35.34-1.26.15-1.92.15-1.03,0-2.49.43-2.97-.2-.52-.69.63-1.76.96-2.7.35-1.02.76-2.02,1.23-3.24Z"/><path class="cls-2" d="m71.98,161.77c.47,0,.63,0,.8,0,.71,0,1.62-.06,1.85.67.23.73-.16,1.6-.83,2.07-1,.71-2.09,1.06-3.35.56-.86-.34-1.21-.88-1.23-1.78-.02-.95.72-1.16,1.35-1.37.53-.18,1.14-.12,1.42-.15Z"/><path class="cls-2" d="m167.61,162.88c-.06.24-.08.49-.17.71-.66,1.56-3.44,2.22-4.73,1.12-.54-.46-.83-1.06-.64-1.75.2-.71.92-.99,1.5-1.07,1.05-.15,2.13-.09,3.2-.03.54.03.91.39.84,1.03Z"/><path class="cls-2" d="m135.33,161.78c.12,0,.25,0,.37,0,.84,0,1.93-.27,2.11.91.15,1.01-.56,1.85-1.5,2.15-.88.28-1.85.54-2.79.17-.88-.34-1.27-1-1.14-1.94.13-.92.93-1.06,1.6-1.26.42-.12.9-.02,1.35-.02Z"/><path class="cls-2" d="m262.67,161.78c.24,0,.4,0,.57,0,.66,0,1.52-.14,1.78.52.28.74-.16,1.53-.7,2.12-.92,1.01-3.12,1.11-4.17.24-.53-.44-.65-1-.54-1.67.1-.64.54-.79,1.08-1,.7-.27,1.38-.16,2-.21Z"/><path class="cls-2" d="m24.46,165.05c-.38,0-.58,0-.79,0-1-.02-1.7-.48-1.79-1.5-.1-1.07.67-1.6,1.58-1.73.93-.13,1.9-.1,2.84,0,1.17.13,1.49.91.86,1.94-.66,1.07-1.64,1.46-2.69,1.28Z"/><path class="cls-2" d="m238.63,161.58c.01,2.12-1.27,3.42-3.3,3.51-2.07.09-3.57-1.53-3.67-3.77-.08-1.64,1.93-3.6,3.59-3.59,1.56,0,3.85,2,3.39,3.85Z"/><path class="cls-2" d="m107.36,160.77c-.74,0-1.49-.01-2.23,0-.46,0-.7-.12-.59-.64.24-1.12,1.71-2.31,2.9-2.32,1.4,0,2.48.89,2.87,2.21.16.56,0,.68-.46.69-.83.01-1.65,0-2.48,0,0,.02,0,.04,0,.06Z"/><path class="cls-2" d="m49.01,165.07c-2.29.24-3.62-2.11-3.67-3.67-.06-1.77,1.91-3.65,3.69-3.62,1.77.03,3.48,1.82,3.48,3.66,0,2.17-1.41,3.63-3.5,3.63Z"/><path class="cls-2" d="m286.51,165.06c-2.22-.05-3.36-1.37-3.29-3.8.05-1.87,1.71-3.57,3.42-3.51,1.92.07,3.69,1.81,3.55,3.78-.15,2.23-1.47,3.76-3.68,3.53Z"/></g></svg>