<?xml version="1.0" encoding="UTF-8"?><svg id="Layer_2" xmlns="http://www.w3.org/2000/svg" viewBox="0 0 214.3 178.4"><defs><style>.cls-1{fill:#6a747c;}.cls-2{fill:#fff;}.cls-3{fill:#ce0e2d;}</style></defs><g id="Layer_1-2"><g id="a_"><path class="cls-2" d="m107.6,0C54.9,0,12.1,42.8,12.1,95.4c0,26.5,10.6,51.1,29.8,69.3l1,1,1.1-1c2.8-2.6,5.7-4.9,8.7-7.1,14.6,12.9,33.8,20.8,54.8,20.8s40.2-7.9,54.8-20.8c3,2.2,5.9,4.5,8.7,7.1l1.1,1,1-1c19.3-18.2,29.9-42.9,29.9-69.3C203,42.8,160.2,0,107.6,0Z"/><path class="cls-3" d="m83.7,42c-2.2,0-4,1.5-4,3.4s1.8,3.4,4,3.4,4-1.5,4-3.4-1.8-3.4-4-3.4m0,9.1c-3.5,0-6.3-2.5-6.3-5.7s2.8-5.7,6.3-5.7,6.3,2.5,6.3,5.7-2.8,5.7-6.3,5.7"/><path class="cls-3" d="m106.2,51.1c-1.3,0-2.3-1-2.3-2.3v-4.7c0-1.1-1-2-2.2-2s-2.2.9-2.2,2v7c-1.3,0-2.3-1-2.3-2.3v-4.8c0-1.1-1-2-2.2-2s-2.2.9-2.2,2v4.7c0,1.3-1,2.3-2.3,2.3v-7c0-2.4,2-4.3,4.5-4.3,1.3,0,2.5.5,3.3,1.4.8-.9,2-1.4,3.3-1.4,2.5,0,4.5,1.9,4.5,4.3l.1,7.1Z"/><path class="cls-3" d="m113.6,51.1c-.6,0-1.2,0-1.7-.2-1.2-.3-1.9-1.6-1.6-2.8,0-.1.1-.3.1-.4h0c.6.7,1.7,1.1,3.1,1.1,2.1,0,3.7-1.5,3.7-3.3,0-1.9-1.6-3.5-3.7-3.5s-4,1.1-4,3.5v7.4c0,1.2-1,2.2-2.3,2.2v-9.6c0-3.3,2.6-5.8,6.2-5.8,1.6,0,3.1.6,4.2,1.6,1.1,1.1,1.8,2.5,1.8,4.1.2,3.2-2.4,5.7-5.8,5.7"/><path class="cls-3" d="m129.9,37.6h-4.9v13.5h-.1c-1.2,0-2.2-1-2.2-2.3v-11.2h-4.9c-1.2,0-2.2-1-2.2-2.3h16.6c-.1,1.3-1.1,2.3-2.3,2.3"/><path class="cls-3" d="m144.4,37.7l-3.2,7.1h6.1l-3.3-7.2.4.1Zm5,12l-1.2-2.6h-8.1l-1.2,2.7c-.6,1.1-2.1,1.4-3.2,1.4l6.6-14.5c.4-.8,1-1.3,1.8-1.3s1.5.5,1.8,1.3l6.5,14.3c-1.1.1-2.5-.3-3-1.3"/><path class="cls-3" d="m74.8,39.6c-1.2-1.3-3-2.2-5-2.2-3.5,0-6.4,2.6-6.4,5.7s2.9,5.8,6.4,5.8c1.7,0,3.3-.6,4.5-1.7.8-.7,2.1-.6,2.9,0-.6,1-1.5,1.8-2.5,2.4-1.5.9-3.1,1.4-4.9,1.4-4.8,0-8.7-3.6-8.7-8s3.9-8,8.7-8c3.4,0,6.5,1.9,7.9,4.7-.9.8-2.1.7-2.9-.1"/><path class="cls-3" d="m153.8,49.3h-.1s.1.1.3.4h0c-.1.1-.2.1-.3,0l-.3-.3h-.3v-.1c0-.1.1-.2.2-.2h.3s.1,0,.1-.1c0,0,0-.1-.3-.1h-.4v.8c0,.1-.1.2-.2.2h-.1v-1c0-.1.1-.2.2-.2h.5c.5,0,.6.3.6.4,0,0-.1.1-.2.2m-.5-1c-.5,0-.9.4-.9.8,0,.5.4.8.9.8s1-.4,1-.8-.4-.8-1-.8m0,1.9c-.7,0-1.2-.5-1.2-1.1s.5-1.1,1.2-1.1,1.2.5,1.2,1.1c.1.7-.5,1.1-1.2,1.1"/><path class="cls-3" d="m132.9,35.3v13.6c0,1.2,1,2.2,2.3,2.2v-13.6c-.1-1.2-1.1-2.2-2.3-2.2"/><path class="cls-1" d="m107.6,0C54.9,0,12.1,42.8,12.1,95.4c0,26.5,10.6,51.1,29.8,69.3l1,1,1.1-1c2.8-2.6,5.7-4.9,8.7-7.1,14.6,12.9,33.8,20.8,54.8,20.8s40.2-7.9,54.8-20.8c3,2.2,5.9,4.5,8.7,7.1l1.1,1,1-1c19.3-18.2,29.9-42.9,29.9-69.3C203,42.8,160.2,0,107.6,0Zm54.5,153.7c-13.7-9.3-29.5-15-46.1-16.4v-10.8h-3.1v17.2c0,1.2.4,2.4,1.1,3.3l4.4,5.7c-.6.8-.9,1.7-.9,2.8,0,2.6,2.1,4.7,4.7,4.7s4.7-2.1,4.7-4.7-2.1-4.7-4.7-4.7c-.4,0-.8.1-1.2.2l-4.5-5.9c-.3-.4-.5-.9-.5-1.4v-3.2c15.7,1.4,30.7,6.7,43.7,15.5-14,12.1-32.3,19.5-52.2,19.5s-38.2-7.4-52.2-19.5c12.7-8.5,27.3-13.8,42.6-15.4v3.1c0,.5-.2,1-.5,1.4l-4.5,5.9c-.4-.1-.8-.2-1.2-.2-2.6,0-4.7,2.1-4.7,4.7s2.1,4.7,4.7,4.7,4.7-2.1,4.7-4.7c0-1-.4-2-.9-2.8l4.4-5.7c.7-.9,1.1-2.1,1.1-3.3v-17.2h-3.1v10.9c-16.2,1.6-31.6,7.2-45,16.3-15.6-14.6-25.3-35.3-25.3-58.3C27.6,51.3,63.4,15.5,107.5,15.5s79.9,35.8,79.9,79.9c.1,23-9.7,43.7-25.3,58.3Zm9.9,7.8c-2.4-2.1-4.8-4.1-7.4-6,15.9-15.1,25.9-36.5,25.9-60.1,0-45.8-37.2-83-83-83S24.5,49.6,24.5,95.4c0,23.6,9.9,45,25.8,60.1-2.5,1.9-5,3.8-7.4,6-17.9-17.5-27.8-40.9-27.8-66.1C15.1,44.5,56.5,3,107.5,3s92.4,41.4,92.4,92.4c0,25.1-9.9,48.5-27.9,66.1Z"/><path class="cls-3" d="m205.9,61.3H0v49.9c0,4.6,3.8,8.4,8.4,8.4h205.9v-49.9c-.1-4.6-3.8-8.4-8.4-8.4Z"/><path class="cls-2" d="m119.9,108.1h-6.6l-3.6-8.6h-16.8l-3.6,8.6h-6.4l15.6-35.7h5.8l15.6,35.7Zm-18.6-28.2l-6.1,14.2h12.2l-6.1-14.2Z"/><path class="cls-2" d="m130.2,77.9h5.8v9.7h9.7v5.6h-9.7v9.7h-5.8v-9.7h-9.7v-5.6h9.7v-9.7Z"/><path class="cls-1" d="m108.5,161.4v-35h-3.1v35c-1.8.6-3.1,2.4-3.1,4.4,0,2.6,2.1,4.7,4.7,4.7s4.7-2.1,4.7-4.7c0-2-1.4-3.7-3.2-4.4Z"/><path class="cls-1" d="m172.4,159.1h-.1s.1.1.3.4h0c-.1.1-.2.1-.3,0l-.3-.3h-.3v-.1c0-.1.1-.2.2-.2h.3s.1,0,.1-.1c0,0,0-.1-.3-.1h-.4v.8c0,.1-.1.2-.2.2h-.1v-1c0-.1.1-.2.2-.2h.5c.5,0,.6.3.6.4,0,0-.1.1-.2.2m-.4-.9c-.5,0-.9.4-.9.8,0,.5.4.8.9.8s1-.4,1-.8c-.1-.5-.5-.8-1-.8m0,1.9c-.7,0-1.2-.5-1.2-1.1s.5-1.1,1.2-1.1,1.2.5,1.2,1.1c0,.6-.6,1.1-1.2,1.1"/></g></g></svg>