<?xml version="1.0" encoding="utf-8"?>
<!-- Generator: Adobe Illustrator 27.9.0, SVG Export Plug-In . SVG Version: 6.00 Build 0)  -->
<svg version="1.1" id="Layer_1" xmlns="http://www.w3.org/2000/svg" xmlns:xlink="http://www.w3.org/1999/xlink" x="0px" y="0px"
	 viewBox="0 0 200 200" style="enable-background:new 0 0 200 200;" xml:space="preserve">
<style type="text/css">
	.st0{fill:#FCB824;}
	.st1{fill:#FDC459;}
	.st2{fill:#FCB926;}
	.st3{fill:#FCB825;}
	.st4{fill:#FDCB6E;}
	.st5{fill:#FED281;}
	.st6{fill:#FED282;}
	.st7{fill:#FEDA98;}
	.st8{fill:#FED489;}
	.st9{fill:#FFFEFD;}
	.st10{fill:#FFFDFA;}
	.st11{fill:#FFFDF8;}
	.st12{fill:#FDC653;}
	.st13{fill:#FECE67;}
	.st14{fill:#FDD47C;}
	.st15{fill:#FCB823;}
	.st16{fill:#FECE68;}
	.st17{fill:#FDD57E;}
	.st18{fill:#FDDD97;}
	.st19{fill:#FDD784;}
	.st20{fill:#FFFDF9;}
	.st21{fill:#FFFEFA;}
	.st22{fill:#FFFFFE;}
	.st23{fill:#FFFBF2;}
	.st24{fill:#FFFCF4;}
	.st25{fill:#0297D7;}
	.st26{fill:#FFFFFF;}
	.st27{fill:#CE0E2D;}
	.st28{fill:#6A747C;}
	.st29{fill:#499BD6;}
	.st30{fill:#2C398D;}
	.st31{fill:#002A73;}
</style>
<path class="st0" d="M165.1,91.1c0.8-3.2,1.2-6.5,1.2-9.9c0-20.3-15-37.1-34.6-39.9c-7.4-9.2-18.8-15.1-31.5-15.1
	c-12.6,0-23.9,5.8-31.3,14.9C48.3,42.7,32.1,60,32.1,81.2c0,3.4,0.4,6.7,1.2,9.9h-0.7v40.5c12.3-5.4,37.1-9.1,65.8-9.1
	c30.7,0,57,4.2,68.2,10.2h1.4V91.1H165.1z"/>
<g>
	<path class="st1" d="M95.6,123c-1.4,0.2-2.9,0.1-4.3,0.1c-2.8,0.1-5.6,0.1-8.4,0.2c-3.5,0.2-7,0.3-10.4,0.6
		c-3.2,0.2-6.3,0.5-9.5,0.9c-0.5,0.1-1.1,0.1-1.6,0.1c-0.2-0.3-0.3-0.5-0.5-0.8c-1.4-1.9-2.6-3.8-3.7-5.9c-2.1-3.9-3.6-8.1-4.5-12.5
		c-0.5-2.7-1-5.4-0.9-8.2c0-1.5,0-3.1,0-4.6l0,0c0.7,0.1,1.4,0.1,2.1,0c-0.2,3.2-0.1,6.2,1.3,9.2c2.4,5.4,6.5,8.5,12.3,9.3
		c3.8,0.5,7.5-0.2,10.9-2.1c1.3-0.7,2.5-1.6,3.5-2.6c0.5-0.4,0.5-0.6,0.1-1.1c-0.7-1-1.4-2-2.2-3c-0.4-0.5-0.6-0.5-1.1-0.1
		c-0.3,0.3-0.7,0.6-1.1,0.9c-2.4,1.8-5,2.8-8,2.7c-2.8-0.1-5.1-1.3-7-3.4c-1.8-2-2.6-4.4-2.8-7c-0.1-1.2,0-2.4,0.4-3.6
		c0.4,0,0.8,0,1.1,0c3.8-0.7,7.5-1.8,11.1-3.4c1.1-0.5,2.3-1,3.4-1.5c0.6,0.6,0.3,1.4,0.4,2c0,0.4,0.2,0.6,0.6,0.6c1.3,0,2.7,0,4,0
		c0.4,0,0.6-0.2,0.6-0.6c0-1.8,0.2-3.6-0.5-5.3c2.3-1.4,4.2-3.2,6.2-5c1.3-1.2,2.4-2.6,3.6-3.9c2.1-2.5,3.9-5.1,5.4-7.9
		c2.2-4,3.8-8.3,4.9-12.8c0.4-1.9,0.7-3.8,1-5.7l0,0c1.8,0,3.5,0.3,5.3,0.6c4.3,0.6,8.4,2,12.3,3.8c4.2,1.9,8,4.4,11.4,7.4
		c2.8,2.5,5.4,5.3,7.6,8.5c1.6,2.3,2.9,4.7,4.1,7.2c1.2,2.5,2.1,5,2.8,7.7c0.6,2.3,1.1,4.6,1.3,7c0.2,1.9,0.4,3.9,0.4,5.8
		c-0.1,1.7-0.2,3.4-0.4,5.1c-0.2,2.1-0.7,4.2-1.1,6.2c-0.1,0.3,0,0.7-0.4,0.7c-0.1-0.5-0.1-1.1-0.1-1.6c0-0.8,0-0.8-0.9-0.9
		c-1.2,0-1.4-0.2-1.5-1.4c-0.1-1.9-0.3-3.8-0.4-5.6c-0.2-2.9-0.5-5.8-0.7-8.7c-0.2-2.2-0.3-4.4-0.5-6.6c-0.1-1.1-0.1-2.3-0.3-3.4
		c-0.1-0.5-0.3-0.7-0.8-0.7c-1.3,0-2.6,0-3.9,0c-1.5,0-1.2-0.2-1.9,1.2c-1.1,2.4-2.1,4.8-3.1,7.3c-1.4,3.3-3,6.5-4.1,9.9
		c0,0.1-0.1,0.3-0.3,0.4c-0.1-0.1-0.1-0.2-0.2-0.3c-1-2.8-2.2-5.5-3.3-8.2c-1.4-3.2-2.7-6.4-4.1-9.5c-0.2-0.4-0.3-0.8-0.9-0.8
		c-1.6,0-3.2,0-4.7,0c-0.5,0-0.7,0.2-0.8,0.7c-0.2,2.9-0.4,5.8-0.7,8.7c-0.2,2-0.3,4-0.5,5.9c-0.2,3-0.5,6-0.7,9
		c-0.1,1.8-0.1,1.8-1.9,1.9c-0.4,0-0.6,0.1-0.6,0.5c0,1.3,0,2.5,0,3.8c0,0.4,0.3,0.6,0.7,0.6c1.5,0,3.1,0.1,4.6,0
		c1.7-0.1,2.5-0.9,2.7-2.5c0.1-0.9,0.2-1.8,0.2-2.8c0.2-2.3,0.3-4.5,0.5-6.8c0.2-3.1,0.6-6.1,0.5-9.2c0.2,0,0.2,0.2,0.3,0.4
		c0.2,0.7,0.4,1.3,0.6,2c1.7,4.4,3.8,8.6,5.7,13c0.2,0.4,0.4,0.6,0.9,0.6c1.1,0,2.2,0,3.3,0c0.6,0,0.9-0.2,1.1-0.7
		c0.6-1.4,1.2-2.8,1.8-4.1c1.5-3.5,3.3-6.9,4.5-10.6c0-0.1,0.1-0.2,0.3-0.2c-0.1,2.4,0.1,4.8,0.3,7.2c0.3,3.7,0.6,7.3,0.8,11
		c0.2,2,1,2.8,3,2.9c1,0,2,0,3,0c0.4,0,0.8,0,1.2,0.1c0,0.3,0,0.6-0.1,0.9c-0.4,1.3-1,2.6-1.5,3.9c-1.1,2.3-2.3,4.5-3.7,6.7
		c-0.1,0-0.1,0-0.2,0c-3-1.6-6.2-2.9-9.5-3.8c-3-0.8-6-1.3-9.1-1.5c-2.4-0.1-4.9-0.2-7.3,0.1c-2.1,0.2-4.1,0.5-6.2,1
		c-3.7,0.8-7.1,2.2-10.5,3.9C96.1,122.6,95.7,122.6,95.6,123z M102.7,88.5c0.6,0,1.2,0,1.9,0c0.5,0,0.7-0.2,0.7-0.7
		c0-0.8,0-1.6,0-2.5c0-1-0.4-1.9-1-2.7c-0.6-0.7-1.2-1.3-2.1-1.7c-4.1-2-8.3-2.2-12.3,0.1c-5.2,2.9-5.7,10-1.1,13.6
		c1.4,1.1,3,2,4.6,2.7c1.3,0.6,2.7,1.3,4,1.9c0.8,0.4,1.6,1,2.2,1.7c0.6,0.7,0.9,1.5,0.7,2.5c-0.3,1.5-1.3,2.4-2.7,2.8
		c-1.7,0.5-3.3,0.2-4.9-0.5c-1.4-0.6-2.7-1.4-3.8-2.5c-0.5-0.5-0.6-0.5-1,0c-0.8,1-1.6,2-2.5,3c-0.3,0.4-0.3,0.6,0.1,1
		c0.5,0.5,1,0.9,1.5,1.4c4.1,3,8.6,3.9,13.4,2.1c4.8-1.8,7-7.2,5-11.9c-0.9-2-2.4-3.3-4.2-4.3c-1.7-1-3.6-1.7-5.4-2.5
		c-1.2-0.5-2.3-1-3.3-1.9c-1.5-1.5-1.3-3.5,0.5-4.6c1.3-0.8,2.8-1,4.4-0.7c0.8,0.2,1.6,0.5,2.3,1.1c0.6,0.6,0.6,1.3,0.6,2
		c0,0.5,0.2,0.6,0.6,0.6C101.4,88.5,102.1,88.5,102.7,88.5z"/>
	<path class="st2" d="M183.2,147.1c-0.2,2.1-0.6,3.9-1.3,5.8c-1.2,3.4-2.7,6.7-5,9.5c-0.9,1.1-1.8,2.2-3.1,3c-1.2,0.8-2.4,1-3.8,0.3
		c-6-2.8-12.3-4.7-18.8-6.4c-6.6-1.7-13.2-3-19.9-4c-4.7-0.7-9.4-1.3-14.1-1.7c-3.3-0.3-6.6-0.5-9.9-0.6c-6.1-0.3-12.3-0.2-18.4-0.1
		c-3.9,0.1-7.7,0.2-11.6,0.4c-5.3,0.3-10.6,0.7-15.9,1.4c-7.6,1-15.1,2.5-22.4,5.1c-3.2,1.2-6.2,2.5-9.1,4.2c-0.8,0.4-1.3,0.4-2-0.1
		c-1.2-0.9-2.1-1.9-3-3.1c-3-3.8-5.3-8-6.7-12.7c-0.3-0.9-0.4-1.8-0.6-2.7c-0.1-0.6,0-1.1,0.5-1.6c3.4-3.4,7.4-5.9,11.7-7.9
		c5.8-2.7,11.9-4.5,18.1-5.8c5.2-1.1,10.4-1.9,15.6-2.5c3.8-0.4,7.6-0.8,11.4-1c4.4-0.3,8.9-0.5,13.4-0.6c6.2-0.2,12.4-0.2,18.6-0.1
		c4.8,0.1,9.7,0.3,14.5,0.7c3.8,0.3,7.7,0.6,11.5,1.1c10.1,1.3,20.1,3.2,29.7,6.6c5.3,1.9,10.4,4.2,15.1,7.4
		c1.7,1.2,3.4,2.6,4.9,4.1C183.1,146.4,183.3,146.7,183.2,147.1z M157.6,155.4c2.3-0.1,4.6-1,6.2-3.3c1.4-2,1.9-4.2,1.9-6.5
		c0-2.2-0.8-4.2-2.6-5.7c-1.3-1.1-2.8-1.8-4.4-2.1c-2-0.4-4-0.8-6-1.2c-1.6-0.3-1.6-0.3-1.8,1.4c0,0,0,0.1,0,0.1
		c-0.1,0.3,0.1,0.4,0.3,0.5c0.2,0,0.3,0.1,0.5,0.1c0.7,0.2,0.7,0.2,0.6,0.9c-0.3,1.6-0.6,3.3-1,4.9c-0.5,2.7-1.1,5.4-1.6,8.2
		c-0.2,1.1,0.1,1.6,1.2,1.9c0.6,0.1,1.1,0.3,1.7,0.3C154.2,155,155.6,155.4,157.6,155.4z M80.6,140.9c1.1-0.4,1.8-1.2,2.2-2.1
		c1.4-2.8,0.2-7.7-4.6-7.7c-2.3,0-4.5,0.2-6.8,0.4c-0.5,0-1.2-0.2-1.4,0.3c-0.2,0.4,0,1,0,1.5c0,0.4,0.2,0.5,0.6,0.5
		c0.1,0,0.3,0,0.4-0.1c0.5-0.1,0.7,0.1,0.7,0.6c0.2,4.4,0.5,8.8,0.8,13.2c0.1,2,0.1,2,2.1,1.7c0.5-0.1,0.6-0.3,0.6-0.7
		c-0.1-1.4-0.2-2.8-0.3-4.2c0-0.5-0.1-1-0.1-1.4c0-0.8,0-0.8,0.8-0.8c0.4,0,0.8,0,1.1-0.1c1.1-0.2,1.8,0.2,2.4,1.2
		c0.8,1.5,1.7,2.8,2.5,4.3c0.5,0.9,1.1,1.3,2.2,1.2c1.9-0.1,1.6,0.2,1.6-1.8c0,0,0-0.1,0-0.1c0-0.2-0.1-0.4-0.4-0.4
		c-1,0.1-1.3-0.5-1.7-1.2C82.4,143.8,81.7,142.3,80.6,140.9z M145.1,138.4c0,0.8,0,0.8,0.7,0.9c0.4,0.1,0.7,0.1,1.1,0.1
		c0.3,0,0.4-0.1,0.4-0.3c0.1-0.6,0.2-1.1,0.3-1.7c0.2-1.3-0.1-1.8-1.4-2c-3-0.5-6-1-9-1.4c-1.3-0.2-1.3-0.2-1.5,1.1
		c-0.1,0.8-0.1,0.8,0.7,1c0.7,0.2,0.7,0.2,0.6,0.9c0,0.1,0,0.2,0,0.3c-0.4,2.8-0.9,5.7-1.3,8.5c-0.2,1.5-0.5,2.9-0.7,4.4
		c-0.1,1,0.2,1.5,1.2,1.7c0.3,0.1,0.7,0.1,1,0.2c2.1,0.3,4.2,0.6,6.3,1c2,0.3,2.4,0.1,2.7-2c0.2-1.5,0.2-1.5-1.2-1.8
		c-0.1,0-0.1,0-0.2,0c-0.7-0.1-0.7-0.1-0.8,0.6c-0.2,0.9-0.2,1-1.2,0.8c-1.4-0.2-2.8-0.4-4.3-0.6c-0.8-0.1-0.9-0.2-0.8-1
		c0.2-1.4,0.4-2.8,0.6-4.3c0.1-0.4,0.2-0.5,0.6-0.4c1.4,0.2,2.7,0.4,4.1,0.6c1.6,0.3,1.6,0.3,1.8-1.3c0.1-0.4,0-0.7-0.4-0.7
		c-0.2,0-0.4-0.1-0.6-0.1c-1.5-0.2-2.9-0.4-4.4-0.6c-0.4-0.1-0.7-0.1-0.6-0.6c0.2-1.5,0.5-2.9,0.7-4.4c0.1-0.5,0.3-0.6,0.8-0.5
		c1.3,0.2,2.6,0.4,3.9,0.6C145.1,137.5,145.1,137.6,145.1,138.4z M56,135.5c0,0.1,0.1,0.2,0.1,0.3c0.4,2.6,0.7,5.2,1,7.8
		c0.3,1.9,0.5,3.9,0.8,5.8c0.2,1.2,0.7,1.5,1.9,1.3c1.4-0.2,2.8-0.3,4.2-0.5c1.3-0.2,2.6-0.3,3.9-0.6c0.9-0.2,1.3-0.7,1.2-1.6
		c0-0.3-0.1-0.6-0.1-0.9c-0.1-1.5,0.1-1.6-1.7-1.3c-0.8,0.1-0.8,0.1-0.7,0.9c0,0.8,0,0.9-0.9,1c-1.4,0.2-2.9,0.4-4.3,0.6
		c-0.8,0.1-1,0-1.1-0.8c-0.2-1.3-0.3-2.6-0.5-3.9c-0.2-0.9,0.1-0.9,0.8-1c1.2-0.2,2.4-0.3,3.7-0.5c1.7-0.2,1.7-0.2,1.5-1.9
		c-0.1-0.5-0.2-0.5-0.7-0.5c-1.6,0.2-3.3,0.4-4.9,0.7c-0.6,0.1-0.7,0-0.8-0.6c-0.2-1.4-0.3-2.9-0.6-4.3c-0.1-0.5,0.1-0.6,0.5-0.6
		c1.4-0.2,2.7-0.4,4.1-0.5c0.7-0.1,0.8,0,1,0.7c0.2,0.9,0.2,0.9,1.1,0.7c0.3,0,0.5-0.1,0.8-0.1c0.4,0,0.5-0.2,0.4-0.5
		c-0.1-0.7-0.2-1.5-0.3-2.2c-0.2-0.7-0.5-0.9-1.3-0.9c-0.4,0-0.9,0-1.3,0.1c-1.5,0.2-3,0.4-4.5,0.6c-1.5,0.2-2.9,0.4-4.4,0.6
		c-0.2,0-0.5,0-0.6,0.3c0,0.6-0.1,1.3,0.3,1.8c0.2,0.4,0.8,0,1.2,0C55.7,135.5,55.8,135.5,56,135.5z M52.3,147.4
		c-0.4,0.2-0.5,0.5-0.7,0.7c-0.8,1.1-1.9,1.9-3.1,2.4c-2.4,1-4.6,0.7-6.7-0.9c-2.3-1.8-3.3-5.5-2.2-8.2c1.4-3.5,5.1-4.4,7.7-3.7
		c0.7,0.2,1.2,0.5,1.4,1.2c0.3,0.9,0.3,0.9,1.3,0.7c0.4-0.1,0.8-0.1,1.2-0.4c-0.1-0.3-0.1-0.6-0.2-0.8c-0.5-2.1-1.3-2.8-3.4-3.2
		c-1.4-0.3-2.8-0.2-4.2,0.1c-5.2,1.2-7.6,5.9-6.9,10.3c1,5.8,6.4,9.5,12.3,7.4c1.9-0.7,3.4-1.9,4.6-3.5c0.4-0.6,0.4-0.6-0.2-1.2
		C53,148,52.6,147.7,52.3,147.4z M92.2,140.6C92.2,140.6,92.2,140.6,92.2,140.6c-0.1,0.8-0.1,1.6-0.1,2.4c0,1.6,0,3.3,0,4.9
		c0,0.5,0.2,0.8,0.7,0.7c0.4,0,0.8,0,1.1,0c0.8,0,0.8,0,0.8-0.8c0-2.6,0-5.1,0-7.7c0-2.2,0-4.3,0-6.5c0-0.5,0.1-0.7,0.6-0.7
		c0.9,0,1.8,0,2.7,0c0.7,0,0.7,0.1,0.8,0.8c0.1,0.9,0.1,0.9,1,0.9c0.2,0,0.5,0,0.7,0c0.4,0,0.6-0.1,0.6-0.5c0-0.7,0-1.4,0-2.1
		c0-0.9-0.4-1.2-1.2-1.3c-0.2,0-0.5,0-0.7,0c-3.8,0-7.6,0-11.4,0c-0.3,0-0.6,0-0.9,0c-0.4,0-0.8,0.2-0.9,0.6c-0.2,1-0.4,2-0.1,2.9
		c0.2,0.7,1.1,0.2,1.8,0.3c0.4,0.1,0.5-0.2,0.5-0.5c0-0.1,0-0.3,0-0.4c0-0.5,0.2-0.8,0.7-0.7c1,0,1.9,0,2.9,0c0.4,0,0.5,0.2,0.5,0.6
		C92.2,135.9,92.2,138.3,92.2,140.6z M114.6,131.6c-1.7-0.1-1.7-0.1-1.8,1.2c0,0.1,0,0.3,0,0.4c-0.1,0.3,0.1,0.5,0.4,0.5
		c0.2,0,0.3,0.1,0.5,0.1c0.6,0,0.7,0.3,0.6,0.8c-0.2,1.7-0.3,3.4-0.5,5.1c-0.2,2.8-0.5,5.5-0.7,8.3c-0.1,1.4-0.1,1.4,1.4,1.6
		c0.1,0,0.3,0,0.4,0.1c0.5,0.1,0.6-0.1,0.7-0.6c0.2-1.9,0.3-3.9,0.5-5.8c0.1-1.2,0.1-1.2,1.4-1c0.1,0,0.2,0,0.3,0.1
		c1.3,0.1,2.5,0.2,3.8,0.3c0.2,0,0.5,0.1,0.7-0.1c0.1-0.2,0.2-1.7,0.1-1.8c-0.1-0.1-0.2-0.2-0.3-0.2c-0.3,0-0.6-0.1-0.9-0.1
		c-1.4-0.1-2.7-0.3-4.1-0.4c-0.5,0-0.6-0.3-0.6-0.7c0.1-1.5,0.3-2.9,0.4-4.4c0.1-0.7,0.1-0.7,0.7-0.7c1.1,0.1,2.3,0.2,3.4,0.3
		c0.8,0.1,0.8,0.1,0.8,0.9c0,0.9,0,0.9,0.9,1c0.1,0,0.2,0,0.3,0c1,0.1,1,0.1,1.1-0.9c0.1-0.4,0.1-0.9,0.1-1.3c0-1.2-0.3-1.6-1.4-1.7
		C119.9,132,117.1,131.8,114.6,131.6z M107,149C107,149.1,107,149.1,107,149c0.2,0,0.4,0,0.6,0c1.3,0,1.3,0,1.4-1.3
		c0-0.8,0-0.8-0.8-0.9c-0.9-0.1-0.9-0.1-0.8-1c0.1-1.7,0.2-3.4,0.2-5c0.1-2.2,0.2-4.5,0.4-6.7c0-0.7,0.1-0.7,0.8-0.7c1,0,1,0,1.1-1
		c0-0.1,0-0.1,0-0.2c0-0.9,0-0.9-0.9-1c-1.3-0.1-2.6,0-3.9-0.2c-1-0.1-1-0.1-1.1,1c0,0.2,0,0.5-0.1,0.7c0,0.3,0.1,0.5,0.4,0.5
		c0.2,0,0.3,0,0.5,0c0.8,0.1,0.8,0.1,0.8,0.9c-0.1,2.6-0.3,5.3-0.4,7.9c-0.1,1.3-0.1,2.7-0.2,4c0,0.4-0.2,0.6-0.6,0.6
		c-1.2,0-1.2,0-1.2,1.3c0,0.1,0,0.2,0,0.3c-0.1,0.4,0.1,0.6,0.6,0.6C104.7,148.9,105.9,149,107,149z M126,148.4
		c-0.8-0.1-0.8-0.1-0.9,0.8c0,0.2-0.1,0.3-0.1,0.5c-0.1,0.7-0.1,0.7,0.6,0.8c1.2,0.2,2.4,0.3,3.6,0.5c1.6,0.2,1.7,0.2,1.8-1.5
		c0-0.4-0.1-0.6-0.5-0.6c-0.2,0-0.3-0.1-0.5-0.1c-0.6,0-0.7-0.2-0.6-0.8c0.2-1.2,0.3-2.4,0.4-3.7c0.3-2.8,0.7-5.6,1-8.5
		c0.1-0.5,0.3-0.5,0.7-0.5c1.1,0.1,1.1,0.1,1.3-1c0-0.1,0-0.3,0.1-0.4c0.1-0.5,0-0.7-0.5-0.7c-1.3-0.1-2.5-0.3-3.8-0.4
		c-1.5-0.2-1.5-0.2-1.7,1.3c-0.1,0.7-0.1,0.7,0.7,0.8c1,0.1,1,0.1,0.9,1c0,0.1,0,0.2,0,0.3c-0.5,3.7-0.9,7.5-1.4,11.2
		C126.8,148.7,126.7,148.5,126,148.4z"/>
	<path class="st3" d="M139.1,122.7c1.3-2.2,2.6-4.4,3.7-6.7c0.6-1.3,1.1-2.6,1.5-3.9c0.1-0.3,0.1-0.6,0.1-0.9c0.4,0,0.7-0.2,0.7-0.7
		c0-0.6,0-1.2,0.1-1.8c0.4-0.1,0.4-0.5,0.4-0.7c0.4-2.1,0.9-4.1,1.1-6.2c0.2-1.7,0.3-3.4,0.4-5.1c0.1-1.9-0.2-3.9-0.4-5.8
		c-0.2-2.4-0.7-4.7-1.3-7c-0.7-2.7-1.7-5.2-2.8-7.7c-1.2-2.5-2.5-4.9-4.1-7.2c-2.2-3.1-4.7-6-7.6-8.5c-3.4-3-7.2-5.5-11.4-7.4
		c-3.9-1.8-8-3.1-12.3-3.8c-1.8-0.3-3.5-0.6-5.3-0.6c0-0.7,0.1-1.4,0.2-2.1c0.1-2.9,0.1-5.8-0.2-8.7c0-0.2-0.1-0.4-0.3-0.5
		c0.1-0.4,0.2-0.7,0.7-0.6c1.1,0.1,2.1,0.2,3.2,0.2c0.4,0,0.6,0.3,0.7,0.6c0.2,0.7,0.4,1.5,0.6,2.2c0.1,0.2,0.1,0.5,0.4,0.5
		c0.6,0,1.3,0.3,1.9,0.1c0.1-0.3,0-0.5-0.1-0.7c-0.9-3.4-1.9-6.9-2.8-10.3c-0.4-1.5-0.4-1.5-2-1.7c-0.1,0-0.1,0-0.2,0
		c-0.5-0.2-0.7,0.1-0.9,0.5c-0.4,1-0.9,2.1-1.3,3.1c-0.2,0.5-0.4,1.1-0.8,1.5c0-0.5-0.1-0.9-0.2-1.4c-0.4-1.6-0.8-3.2-1.4-4.7
		c-0.4-1-0.7-2-1-3c0.9-0.2,1.7-0.1,2.6-0.1c16.7,0.4,31.8,5.5,45.2,15.6c8.6,6.5,15.4,14.6,20.6,24.1c3.8,6.9,6.4,14.3,8,22.1
		c1.2,6.1,1.6,12.3,1.2,18.5c-0.6,9.9-3,19.3-7.2,28.2c-0.1,0.1-0.1,0.2-0.2,0.4c-0.4,0.8-0.4,0.9-1.3,0.5c-7-2.8-14.3-4.6-21.6-6.1
		c-0.3-0.1-0.7-0.1-1-0.3c0-0.2-0.1-0.3-0.3-0.4c-0.8-0.6-1.6-1.1-2.5-1.7C141,123.9,140,123.3,139.1,122.7z M136.2,42.6
		c0,0-0.1-0.1-0.1-0.1c0.5-0.9,0.5-0.9-0.4-1.5c-0.1-0.1-0.2-0.1-0.3-0.2c-0.7-0.4-0.7-0.4-1.1,0.2c-1.3,1.8-2.5,3.7-3.8,5.5
		c-0.8,1.2-0.8,1.2,0.4,2c0.8,0.5,0.7,0.4,1.2-0.2c0.7-1,1.3-2,2-3c0.6-0.9,1.5-1.3,2.6-1.2c1.5,0.2,2,1.3,1.2,2.5
		c-0.1,0.2-0.3,0.4-0.4,0.6c-0.8,1.1-1.5,2.3-2.3,3.4c-0.2,0.3-0.3,0.6,0.1,0.8c0.5,0.3,0.9,0.6,1.4,0.9c1.3-1.8,2.5-3.6,3.6-5.4
		c0.1-0.1,0.1-0.3,0.2-0.5c0.4-1.2,0.2-2.2-0.8-3.1C138.7,42.6,137.5,42.4,136.2,42.6z M148.1,58.3c0.3,0.1,0.4,0.3,0.6,0.5
		c1,1.2,1.9,2.4,2.9,3.6c0.5,0.6,0.5,0.5,1,0.1c0.5-0.4,1-0.9,1.3-1.4c0.7-1.1,0.8-2.3,0.2-3.5c-1.1-2.2-3.6-3.2-5.8-2.2
		c-2.5,1.1-3.7,3.6-2.7,6c0.6,1.4,1.6,2.5,3,3.1c1,0.5,1.1,0.4,1.5-0.6c0.1-0.2,0.3-0.5,0.2-0.7C147.4,61.9,146.6,60.1,148.1,58.3z
		 M127,45.4c-0.4,0.8-0.1,1.1,0.4,1.3c0.2,0.1,0.3,0.1,0.5,0.2c0.4,0.3,0.7,0.2,0.9-0.3c0.4-1,0.9-2,1.4-3c0.4-0.8,0.8-1.5,1-2.4
		c0.3-1.2,0.1-2.2-0.8-3c-1.2-1.2-2.7-1.6-4.3-1.5c-0.4,0-0.7,0.2-0.7,0.7c0,0.2,0,0.3,0,0.5c0,0.5,0.1,0.7,0.7,0.7
		c0.7-0.1,1.5,0.1,2.2,0.5c0.5,0.3,0.8,0.6,0.8,1.2c0,0.6-0.2,0.8-0.8,0.6c-0.9-0.4-1.9-0.7-2.9-0.8c-1.3-0.2-2.4,0.4-2.9,1.6
		c-0.7,1.6,0.2,3.3,2,3.9C125.3,45.7,126.1,45.6,127,45.4z M143.7,48.2c-2.8-0.1-4.7,2.6-4.7,4.6c0,2.4,2,4.5,4,4.9
		c1.6,0.4,1.4,0.2,1.7-1.1c0.1-0.4,0-0.6-0.4-0.6c-0.8-0.1-1.5-0.3-2.1-0.9c-0.9-0.8-1.1-1.7-0.8-2.8c0.3-1.1,1.1-1.8,2.3-2
		c1.1-0.1,2,0.3,2.6,1.3c0.2,0.3,0.4,0.7,0.5,1.1c0.1,0.5,0.3,0.6,0.8,0.4c0.2-0.1,0.3-0.1,0.5-0.1c0.5-0.1,0.6-0.4,0.5-0.9
		C148.2,50,146,48.2,143.7,48.2z M114.6,39.9c-0.1,1.1,0.5,1.8,1.4,2.2c1.2,0.5,1.4,0.4,1.7-0.9c0-0.1,0-0.2,0.1-0.3
		c0.1-0.2,0-0.3-0.2-0.4c-0.9-0.3-0.8-0.9-0.6-1.6c0.7-2.5,1.4-5,2-7.5c0.4-1.3,0.7-1.3-1-1.7c-0.8-0.2-0.8-0.2-1.1,0.7
		c-0.8,2.8-1.5,5.5-2.3,8.3C114.6,39.1,114.5,39.5,114.6,39.9z M114.1,28.9c-0.4-0.3-0.9-0.3-1.3-0.4c-0.9-0.3-0.9-0.1-1,0.7
		c-0.5,2.2-0.9,4.5-1.3,6.8c-0.2,0.9-0.5,1.9-0.4,2.8c0,1.1,0.5,1.8,1.6,2.2c1.3,0.5,1.4,0.4,1.6-0.9c0-0.1,0.1-0.3,0.1-0.4
		c0-0.2,0-0.4-0.2-0.4c-1-0.2-0.8-0.9-0.7-1.6C113,34.8,113.5,31.9,114.1,28.9z M123.4,35.4c0-0.2,0-0.4-0.2-0.4
		c-0.4-0.1-0.7-0.3-1.1-0.4c-0.7-0.2-0.7-0.2-1,0.5c-0.7,2.1-1.5,4.2-2.2,6.3c-0.5,1.6-0.8,1.3,0.9,1.9c0.7,0.2,0.7,0.2,0.9-0.5
		c0.8-2.3,1.6-4.6,2.4-7C123.3,35.7,123.4,35.6,123.4,35.4z M124.6,32.1c0.1-0.3-0.1-0.4-0.2-0.4c-0.3-0.1-0.6-0.2-0.9-0.3
		c-1-0.3-0.8-0.5-1.2,0.6c-0.3,0.9-0.3,1,0.6,1.3c0.3,0.1,0.5,0.2,0.8,0.3c0.2,0.1,0.4,0.1,0.5-0.2C124.2,33,124.4,32.5,124.6,32.1z
		"/>
	<path class="st4" d="M98.3,23.6c0.3,1,0.6,2,1,3c0.6,1.5,1,3.1,1.4,4.7c0.1,0.5,0.2,0.9,0.2,1.4c0,0.2-0.1,0.5-0.2,0.7
		c-0.5,1.1-1,2.2-1.5,3.4c-0.4,0.9-0.9,1.7-1.1,2.7c0.5,0.2,1,0.2,1.5,0.3c0.6,0.1,0.9-0.2,1.1-0.7c0.2-0.6,0.4-1.2,0.8-1.8
		c0.2,0.1,0.3,0.3,0.3,0.5c0.3,2.9,0.3,5.8,0.2,8.7c0,0.7-0.2,1.4-0.2,2.1c0,0,0,0,0,0c-1,0-2.1,0-3.1,0c-2.7-0.1-5.5,0.1-8.1,0.7
		c-2.7,0.5-5.3,1.2-7.9,2.2c-3.4,1.2-6.5,2.9-9.5,4.8c-2,1.3-3.8,2.8-5.6,4.3c-1.8,1.5-3.4,3.2-4.9,5c-1.4,1.7-2.7,3.5-3.9,5.4
		c-1.8,3-3.3,6-4.5,9.3c-1,2.9-1.8,5.8-2.2,8.8c-0.2,1.3-0.3,2.7-0.4,4.1c0,0,0,0,0,0c-1.5-0.4-3.1-0.1-4.7-0.4c-2-0.3-4-0.6-5.9-1
		c-4.9-1.1-9.6-3-13.9-5.5c-0.6-0.4-1.2-0.9-2-1.1c1-5.2,2.6-10.3,4.6-15.2c2-4.7,4.5-9.2,7.4-13.4c3.9-5.7,8.5-10.7,13.7-15.1
		c4.8-4,10-7.4,15.6-10.1c6.2-3.1,12.8-5.2,19.7-6.5c3.5-0.6,7-1.1,10.5-1.1C97.3,23.6,97.8,23.4,98.3,23.6z M81.1,42.3
		c0.6-0.1,1.1-0.2,1.6-0.3c0.5-0.1,0.5-0.3,0.4-0.7c-0.2-1.1-0.5-2.1-0.7-3.2c-0.2-0.9-0.2-1.7,0.2-2.5c0.4-0.7,1-1.1,1.7-1
		c0.8,0.1,0.9,0.7,1.1,1.3c0.3,1.3,0.6,2.6,0.8,3.9c0.3,1.5,0.3,1.5,1.8,1.1c0,0,0.1,0,0.1,0c0.4-0.1,0.6-0.3,0.5-0.7
		c-0.1-0.4-0.2-0.9-0.3-1.3c-0.2-1.1-0.6-2.1-0.5-3.2c0.1-1,0.4-1.7,1.4-2.1c0.7-0.3,1.3-0.1,1.6,0.6c0.1,0.2,0.1,0.5,0.2,0.7
		c0.3,1.3,0.5,2.7,0.8,4c0.3,1.3,0.3,1.3,1.6,1c0.1,0,0.2-0.1,0.3-0.1c0.5,0,0.6-0.3,0.5-0.7c-0.4-1.9-0.8-3.9-1.3-5.8
		c-0.3-1.3-1.3-2.1-2.5-2.1c-0.9,0-1.8,0.3-2.5,1c-0.4,0.4-0.7,0.8-1,1.4c-0.7-1-1.7-1.3-2.8-1.1c-1.2,0.2-1.9,1-2.5,2
		c-0.4-1.2-0.4-1.2-1.6-1c-0.1,0-0.2,0.1-0.3,0.1c-0.5,0.1-0.6,0.3-0.5,0.8c0.3,1.4,0.6,2.8,0.9,4.2C80.6,39.7,80.7,41,81.1,42.3z
		 M46.4,52.1c-0.2,2.2,1.9,4,4.1,3.3c0.9-0.3,1.7-0.6,2.6-1c0.5-0.2,1-0.4,1.6-0.4c0.7,0.1,1.2,0.6,1.2,1.3c0,0.5-0.2,0.9-0.5,1.2
		c-0.6,0.7-1.4,1-2.2,1.3c-0.9,0.2-0.9,0.3-0.8,1.2c0,0.2,0.1,0.3,0.1,0.5c0.1,0.5,0.4,0.6,0.8,0.5c1.9-0.4,3.4-1.3,4.4-3
		c0.7-1.3,0.6-2.9-0.2-4c-1-1.3-2.3-1.5-3.8-1.1c-0.8,0.2-1.5,0.6-2.2,0.9c-0.5,0.2-1,0.5-1.6,0.5c-0.8,0-1.2-0.4-1.3-1.2
		c0-0.8,0.3-1.4,1-1.8c0.5-0.4,1.1-0.6,1.7-0.7c0.4-0.1,0.6-0.3,0.4-0.7c-0.1-0.3-0.2-0.5-0.3-0.8c-0.1-0.5-0.4-0.6-0.8-0.5
		C48.5,47.8,46.2,50.2,46.4,52.1z M77.4,42.8c0.8,1,0.8,1,1.9,0.5c0,0,0.1,0,0.1,0c0.7-0.3,0.7-0.3,0.4-1c-0.9-2.2-1.9-4.5-2.8-6.7
		c-0.4-0.8-0.4-0.8-1.2-0.5c-1.3,0.6-1.2,0.5-0.7,1.8c0.5,1.2,1.1,2.3,1.4,3.5c0.2,1.1-0.3,2.2-1.3,2.6c-0.8,0.4-1.3,0.2-1.7-0.5
		c-0.3-0.5-0.5-1.1-0.8-1.7c-0.4-1-0.9-2.1-1.3-3.1c-0.2-0.4-0.4-0.6-0.9-0.4c-0.5,0.2-0.9,0.4-1.4,0.6c0,0.1,0,0.2,0,0.2
		c0.4,1,0.8,2,1.2,2.9c0.4,0.9,0.8,1.9,1.3,2.8c0.7,1.3,1.8,1.8,3.2,1.5c0.7-0.2,1.3-0.5,1.8-1C76.9,44,77.2,43.4,77.4,42.8z
		 M60.7,53.2c2.2-0.2,3.8-1.2,4.7-3.3c0.5-1.1,0.4-1.3-0.8-1.7c-0.4-0.1-0.6-0.1-0.7,0.3c-0.1,0.6-0.4,1.1-0.8,1.5
		c-0.7,0.8-1.7,1.2-2.8,1c-1.2-0.3-2-1.2-2.1-2.5c-0.2-1,0.4-1.9,1.2-2.5c0.5-0.3,1-0.5,1.5-0.5c0.7-0.1,0.7-0.1,0.7-0.8
		c0-0.1,0-0.2,0-0.3c-0.1-0.7-0.1-0.7-0.8-0.7c-1.3,0-2.4,0.6-3.3,1.5c-1.5,1.4-1.9,3.3-1.2,5.1C57.1,52.2,58.9,53.3,60.7,53.2z
		 M65.5,41.7c-0.3-0.2-0.4-0.4-0.5-0.5c-0.4-0.7-0.4-0.7-1.1-0.3c-0.1,0.1-0.2,0.2-0.3,0.2c-0.9,0.5-0.9,0.5-0.3,1.4
		c1.1,1.9,2.2,3.7,3.3,5.6c0.8,1.3,0.8,1.3,2,0.5c0.1-0.1,0.2-0.1,0.3-0.2c0.3-0.2,0.3-0.4,0.2-0.6c-0.1-0.2-0.2-0.3-0.3-0.5
		c-0.6-1.1-1.3-2-1.7-3.2c-0.4-1.2-0.1-2.2,0.9-3c0.6-0.4,0.6-0.4,0.2-1.1c-0.1-0.2-0.2-0.4-0.4-0.6c-0.4-0.5-0.5-0.5-1.1-0.1
		C65.8,39.8,65.6,40.7,65.5,41.7z"/>
	<path class="st2" d="M90.7,10.8c1.2,0.7,2.2,1.6,3.3,2.5c1.3,1,2.5,2,3.8,3c0.6,0.5,0.6,0.5,1.3,0c2.2-1.8,4.5-3.7,6.7-5.5
		c0.6-0.5,0.7-0.5,1.2,0.1c1.9,2.2,3.9,4.4,5.8,6.5c0.5,0.6,0.5,0.6,1.2,0.2c2.5-1.4,5-2.8,7.5-4.2c1-0.6,0.8-0.4,1.3,0.4
		c1.5,2.4,2.9,4.8,4.4,7.2c0.5,0.8,0.5,0.8,1.4,0.5c2.7-0.9,5.3-1.8,8-2.7c0.9-0.3,0.9-0.3,1.3,0.6c1,2.7,2.1,5.3,3.1,8
		c0.3,0.7,0.3,0.7,1,0.6c2.8-0.4,5.6-0.9,8.4-1.3c1-0.2,1-0.1,1.2,0.9c0.5,2.8,1.1,5.5,1.6,8.3c0.2,0.8,0.2,0.8,1,0.8
		c2.9,0.1,5.8,0.2,8.6,0.2c0.8,0,0.9,0,0.9,0.9c0,2.8,0,5.7,0.1,8.5c0,0.9,0,0.9,0.9,1.1c2.8,0.6,5.6,1.2,8.4,1.8
		c0.8,0.2,0.8,0.2,0.7,0.9c-0.5,2.9-1,5.7-1.5,8.6c-0.1,0.8-0.1,0.8,0.6,1.1c2.7,1.1,5.3,2.2,8,3.3c0.8,0.3,0.8,0.3,0.5,1.2
		c-1,2.7-1.9,5.3-2.9,8c-0.3,0.8-0.3,0.8,0.4,1.3c2.3,1.5,4.6,2.9,6.9,4.4c1.1,0.7,1.1,0.7,0.5,1.8c-1.4,2.3-2.7,4.7-4.1,7
		c-0.4,0.8-0.6,0.7,0.2,1.4c2,1.9,4.1,3.8,6.1,5.7c0.8,0.7,0.8,0.7,0,1.6c-1.8,2.1-3.6,4.2-5.3,6.3c-0.6,0.8-0.7,0.6-0.1,1.5
		c1.7,2.2,3.4,4.5,5.1,6.7c0.5,0.7,0.5,0.7-0.1,1.3c-2.2,1.8-4.4,3.6-6.6,5.4c-0.7,0.6-0.7,0.6-0.3,1.4c1.2,2.5,2.5,5,3.7,7.5
		c0.5,1,0.6,0.9-0.4,1.5c-2.4,1.3-4.8,2.6-7.2,4c-0.9,0.5-0.9,0.5-0.6,1.5c0.5,1.6,0.9,3.2,1.4,4.8c0.1,0.4,0.2,0.7,0.3,1.1
		c-0.3,0-0.4-0.1-0.6-0.2c-2-1.3-4-2.4-6.1-3.4c-0.8-0.4-0.8-0.4-0.4-1.2c2.5-5.2,4.3-10.6,5.6-16.2c0.9-3.8,1.5-7.7,1.8-11.7
		c0.3-3.7,0.3-7.5,0.1-11.2c-0.5-7.5-2-14.8-4.6-21.9c-4.4-11.9-11.1-22.2-20.3-30.8c-9.3-8.7-20-14.7-32.2-18.2
		c-4.5-1.3-9-2.2-13.6-2.6c-3.2-0.3-6.5-0.5-9.8-0.4c-0.5,0-1.1,0-1.6,0c0-0.2-0.1-0.4-0.2-0.6c-1.4-2.9-3.2-5.5-5.2-8
		C91,11.6,90.7,11.3,90.7,10.8z"/>
	<path class="st3" d="M25.2,85c0.7,0.2,1.3,0.7,2,1.1c4.4,2.6,9,4.4,13.9,5.5c2,0.5,3.9,0.7,5.9,1c1.6,0.2,3.1,0,4.7,0.4
		c0,1.5,0,3.1,0,4.6c-0.1,2.8,0.4,5.5,0.9,8.2c0.9,4.4,2.4,8.5,4.5,12.5c1.1,2.1,2.3,4,3.7,5.9c0.2,0.2,0.3,0.5,0.5,0.8
		c-1.7,0.3-3.3,0.5-5,0.8c-8.3,1.3-16.4,3.1-24.2,6.2c-0.9,0.3-0.9,0.3-1.3-0.5c-2.7-5.8-4.7-11.9-5.8-18.3
		c-0.9-5.2-1.4-10.5-1.2-15.8C24,93.2,24.4,89.1,25.2,85z"/>
	<path class="st5" d="M72.3,156.8c1-0.2,2.1-0.2,3.1-0.2c2-0.1,4-0.2,6.1-0.3c2.9-0.1,5.9-0.1,8.8-0.2c4.5-0.2,9.1-0.1,13.6-0.1
		c3,0,6,0.2,8.9,0.4c3.1,0.2,6.3,0.5,9.4,0.8c7.3,0.8,14.6,2,21.8,3.5c0.3,0.1,0.5,0.2,0.8,0.3c-0.4,0.5-0.9,0.8-1.4,1.1
		c-6.6,4.6-13.7,8.1-21.4,10.4c-4,1.2-8.1,2.1-12.2,2.6c-4.7,0.7-9.4,0.7-14.2,0.5c-3-0.1-6-0.5-9-1c-4.5-0.8-8.9-2-13.3-3.6
		c-0.3-0.1-0.7-0.2-0.9-0.4C71.8,166,71.7,161.4,72.3,156.8z"/>
	<path class="st4" d="M90.7,10.8c0,0.5,0.3,0.8,0.6,1.2c2,2.5,3.8,5.1,5.2,8c0.1,0.2,0.2,0.4,0.2,0.6c-0.2,0.2-0.5,0.2-0.8,0.2
		c-7.4,0.3-14.6,1.7-21.6,4.1c-8.7,3-16.7,7.4-23.9,13.2c-2.1,1.7-4.2,3.5-6.1,5.5c-4.7,4.7-8.7,9.8-12.1,15.5
		c-3,5-5.4,10.2-7.2,15.8c-0.9,2.6-1.6,5.2-2.2,7.8c0,0.1-0.1,0.3-0.1,0.4c-2-1.4-3.9-3-5.6-4.8c-0.1-0.1-0.3-0.3-0.3-0.5
		c0.8-0.8,1.8-1.3,2.6-1.9c0.7-0.5,0.7-0.5,0.4-1.3c-1-2.6-2-5.2-3.1-7.7c-0.1-0.2-0.1-0.3-0.2-0.5c-0.1-0.4,0-0.7,0.4-0.8
		c0.8-0.3,1.6-0.7,2.3-1c1.9-0.8,3.8-1.7,5.7-2.5c0.8-0.3,0.8-0.3,0.6-1.1c-0.4-2.1-0.8-4.2-1.2-6.4c0.4,0,0.6-0.3,0.8-0.6
		c0.3-0.4,0.7-0.8,1-1.2c0.5-0.7,1.2-1.3,1.5-2.1c1.7-0.5,3.4-0.9,5.1-1.3c0.2,0,0.4-0.1,0.6-0.1c0.4-0.1,0.5-0.3,0.5-0.6
		c-0.1-2.1,0-4.1-0.1-6.2c-0.1-1,0-2,0-3c0-0.5,0.2-0.7,0.7-0.7c1.2,0,2.3-0.1,3.5-0.2c1.7-0.1,3.5-0.2,5.2-0.3c0.9,0,0.9,0,1-0.9
		c0.5-2.9,1-5.7,1.4-8.6c0.1-0.7,0.1-0.7,0.8-0.6c2.8,0.3,5.6,0.7,8.3,1c0.1,0,0.2,0,0.3,0c0.9,0.1,0.9,0.1,1.2-0.7
		c0.9-2.6,1.8-5.2,2.8-7.7c0.1-0.2,0.1-0.4,0.2-0.6c0.1-0.4,0.4-0.5,0.7-0.4c0.2,0.1,0.5,0.1,0.7,0.2c2.6,0.8,5.2,1.6,7.7,2.4
		c0.9,0.3,0.9,0.3,1.4-0.6c1.3-2.3,2.7-4.6,4-7c0.1-0.2,0.2-0.3,0.3-0.5c0.2-0.5,0.5-0.6,1-0.3c1.6,0.9,3.3,1.7,4.9,2.6
		c0.9,0.5,1.9,1,2.8,1.5c0.8,0.4,0.9,0.4,1.5-0.3c1.7-2,3.3-3.9,5-5.9c0.2-0.3,0.4-0.6,0.8-0.8C90.3,10.9,90.5,10.9,90.7,10.8
		L90.7,10.8z"/>
	<path class="st6" d="M98.7,187.8c-0.3,0-0.5-0.3-0.7-0.5c-1.4-1.3-2.8-2.6-4.2-3.9c-0.6-0.6-0.6-0.6-1.3-0.1
		c-2.2,1.5-4.5,3.1-6.7,4.6c-0.1,0-0.1,0.1-0.2,0.1c-1,0.7-1,0.7-1.8-0.3c-1.7-2.2-3.3-4.4-4.9-6.7c-0.4-0.5-0.7-0.6-1.2-0.3
		c-0.6,0.3-1.2,0.7-1.9,0.8c-0.8-1.7-1.5-3.5-2-5.4c-0.2-0.6-0.5-1.2-0.4-1.9c1,0.3,2,0.6,3,0.9c3.8,1.2,7.7,2.1,11.6,2.7
		c3.3,0.5,6.7,0.7,10,0.9c2.3,0.1,4.7,0,7-0.1c3.7-0.2,7.3-0.7,11-1.5c7.6-1.6,14.8-4.3,21.6-7.9c3.6-1.9,7-4.2,10.2-6.7
		c0.6-0.5,1.1-0.6,1.9-0.4c3,0.8,6,1.6,9,2.6c0.3,0.1,0.8,0.1,0.9,0.5c0.1,0.5,0.1,1,0,1.4c-0.1,0.2-0.3,0.3-0.5,0.3
		c-1.7-0.1-3.4,0-5-0.1c-1.4-0.2-2.9-0.1-4.3-0.1c-0.6,0-0.6,0.5-0.7,0.8c-0.5,1.9-1,3.8-1.5,5.8c-0.2,0.9-0.4,1.7-0.7,2.6
		c-0.2,0.7-0.2,0.7-1,0.6c-2.8-0.6-5.6-1.2-8.3-1.8c-1.1-0.2-1-0.2-1.5,0.8c-1.2,2.6-2.4,5.1-3.5,7.7c-0.1,0.2-0.2,0.5-0.4,0.6
		c-2.2-0.9-4.3-1.8-6.5-2.7c-0.7-0.3-1.5-0.6-2.2-0.9c-0.7-0.3-0.7-0.3-1.2,0.3c-1.5,2.1-2.9,4.2-4.4,6.2c-0.1,0.2-0.3,0.4-0.4,0.6
		c-0.7,1-0.7,1-1.8,0.4c-2.3-1.5-4.6-3-6.9-4.5c-0.8-0.5-0.8-0.5-1.4,0.2c-1.5,1.5-3,2.9-4.5,4.4c-1.1,0-2.1,0-3.2,0
		C99.3,187.6,99,187.6,98.7,187.8z"/>
	<path class="st2" d="M16.8,77.6c0,0.2,0.1,0.4,0.3,0.5c1.7,1.8,3.5,3.4,5.6,4.8c-0.3,2-0.7,4.1-1,6.1c-0.7,5-0.9,10-0.6,15.1
		c0.3,5.4,1.2,10.6,2.5,15.8c1.1,4.3,2.7,8.5,4.5,12.6c0.1,0.3,0.3,0.6,0.4,1c-1.9,0.9-3.8,2-5.8,3.2c0.2-0.9,0.4-1.6,0.6-2.3
		c0.2-0.9,0.2-0.9-0.6-1.3c-2.4-1.2-4.7-2.5-7.1-3.7c-0.2-0.1-0.4-0.2-0.5-0.3c-0.6-0.3-0.6-0.4-0.3-1c1-2.1,2-4.2,3-6.3
		c0.2-0.5,0.5-1.1,0.7-1.6c0.3-0.7,0.3-0.8-0.3-1.3c-1.8-1.4-3.5-2.7-5.3-4.1c-0.7-0.6-1.5-1.1-2.2-1.7c1.2-1.6,2.3-3.2,3.4-4.8
		c0.7-1,1.4-2,2.2-3c0.3-0.4,0.3-0.7-0.1-1.1c-1.9-2.1-3.9-4.3-5.8-6.4c-0.7-0.8-0.6-0.7,0.1-1.4c2-1.9,4-3.9,6-5.8
		c0.7-0.7,0.7-0.7,0.2-1.6c-1.5-2.5-3.1-5-4.6-7.4c-0.1-0.1-0.2-0.3-0.3-0.5c1.2-0.8,2.4-1.6,3.6-2.4C15.7,78.2,16.1,77.8,16.8,77.6
		z"/>
	<path class="st2" d="M20,159.1c-6.6,0-13.2,0-20,0c0.3-0.5,0.6-0.8,0.8-1.2c2.8-3.8,5.5-7.7,8.3-11.5c0.7-1,0.6-0.7,0-1.6
		c-2.7-3.6-5.5-7.2-8.3-10.8c-0.2-0.3-0.5-0.5-0.5-0.8c0.3-0.3,0.5-0.2,0.8-0.2c5.6,0,11.2,0,16.9,0c1.3,0,2.1,0.8,3.2,1.3
		c0.3,0.1,0.2,0.4,0.1,0.6c-0.3,1-0.5,2.1-0.8,3.1c-0.1,0.4-0.4,0.6-0.7,0.8c-1.5,1.2-2.9,2.6-4.3,4c-0.5,0.5-0.6,1-0.6,1.7
		c0.1,2.3,0.7,4.5,1.4,6.6c0.9,2.5,2,4.9,3.4,7.2C19.8,158.5,20,158.7,20,159.1z"/>
	<path class="st2" d="M200,159.1c-1,0.1-16.4,0.1-17.4,0c0-0.3,0.2-0.6,0.3-0.8c1.4-3,2.5-6,3-9.3c0.1-0.9,0.2-1.8,0.3-2.8
		c0.1-0.5-0.1-0.9-0.5-1.3c-1.3-1.4-2.7-2.8-4.2-3.9c-0.6-0.4-0.9-0.9-1-1.6c-0.5-1.8-1.1-3.7-1.6-5.5c-0.1-0.2-0.2-0.4-0.1-0.7
		c0.8-0.1,20-0.2,21.2,0c0,0.4-0.3,0.7-0.5,1c-2.7,3.8-5.4,7.6-8.2,11.4c-0.1,0.1-0.2,0.3-0.3,0.4c-0.6,0.8-0.7,0.6,0,1.5
		c2.8,3.6,5.6,7.2,8.3,10.9C199.6,158.5,199.7,158.7,200,159.1z"/>
	<path class="st2" d="M73.4,174.2c-0.1,0.7,0.3,1.3,0.4,1.9c0.5,1.8,1.2,3.6,2,5.4c-2.1,1.1-4.2,1.9-6.3,2.9c-0.4,0.2-0.6,0-0.8-0.3
		c-0.7-1.4-1.4-2.8-2.1-4.1c-0.6-1.3-1.2-2.5-1.9-3.8c-0.4-0.8-0.4-0.8-1.2-0.6c-2.7,0.6-5.3,1.3-8,2c-0.1,0-0.2,0.1-0.3,0.1
		c-0.9,0.2-0.9,0.2-1.2-0.7c-0.6-2-1.2-4.1-1.8-6.1c-0.2-0.8-0.4-1.5-0.6-2.3c-0.1-0.5-0.4-0.7-0.9-0.6c-1.6,0.1-3.3,0.2-4.9,0.3
		c-1.4,0.1-2.7,0.2-4.1,0.3c-0.4,0-0.6-0.1-0.7-0.6c-0.1-1-0.2-2-0.3-3c0-0.3,0-0.6-0.1-0.8c-0.3-1.7-0.3-1.4,1.3-1.9
		c2-0.7,4.1-1.2,6.1-1.8c0.6-0.2,1-0.1,1.5,0.3c5,4.1,10.4,7.6,16.3,10.3c2.2,1,4.4,1.9,6.6,2.8C72.9,173.9,73.2,173.9,73.4,174.2z"
		/>
	<path class="st7" d="M95.6,123c0.1-0.4,0.5-0.4,0.8-0.6c3.3-1.7,6.8-3.1,10.5-3.9c2-0.5,4.1-0.8,6.2-1c2.4-0.3,4.9-0.2,7.3-0.1
		c3.1,0.2,6.1,0.7,9.1,1.5c3.3,0.9,6.5,2.2,9.5,3.8c-0.1,0.5-0.4,0.8-0.7,1.2c-0.3,0.5-0.9,0.9-1,1.5c-1.5,0-3-0.4-4.5-0.5
		c-1.6-0.1-3.2-0.4-4.8-0.5c-2.1-0.2-4.1-0.4-6.2-0.6c-1.1-0.1-2.3-0.1-3.4-0.2c-1.7-0.1-3.5-0.2-5.2-0.3
		c-5.6-0.3-11.2-0.2-16.7-0.2C96.1,123.1,95.8,123.1,95.6,123z"/>
	<path class="st2" d="M72.3,156.8c-0.6,4.6-0.5,9.2,0.2,13.8c-1.6-0.4-3-1.1-4.5-1.8c-5.1-2.3-9.9-5.2-14.3-8.6
		c-0.3-0.2-0.6-0.4-0.7-0.7C54.2,158.7,64.7,157.3,72.3,156.8z"/>
	<path class="st6" d="M137.2,125.4c0.1-0.6,0.7-1,1-1.5c0.2-0.4,0.6-0.7,0.7-1.2c0.1,0,0.1,0,0.2,0c1,0.6,1.9,1.1,2.9,1.8
		c0.8,0.5,1.6,1.1,2.5,1.7c0.1,0.1,0.2,0.2,0.3,0.4c-1,0.1-2-0.2-2.9-0.4c-1.4-0.2-2.8-0.5-4.3-0.6
		C137.4,125.5,137.3,125.4,137.2,125.4z"/>
	<path class="st8" d="M27.7,50.4c-0.2,0.9-1,1.4-1.5,2.1c-0.3,0.4-0.7,0.7-1,1.2c-0.2,0.3-0.4,0.5-0.8,0.6c-0.2-0.8-0.3-1.7-0.5-2.5
		c-0.1-0.4,0-0.6,0.4-0.6C25.4,51,26.5,50.6,27.7,50.4z"/>
	<path class="st7" d="M98.7,187.8c0.3-0.2,0.6-0.2,1-0.2c1.1,0,2.1,0,3.2,0c-0.5,0.6-1.1,1.1-1.7,1.7c-0.5,0.5-0.6,0.5-1.1,0
		C99.6,188.8,99.1,188.4,98.7,187.8z"/>
	<path class="st2" d="M90.7,10.9c-0.2,0-0.4,0-0.7,0C90.3,10.4,90.4,10.4,90.7,10.9z"/>
	<path class="st8" d="M51.8,93c0.1-1.4,0.2-2.7,0.4-4.1c0.5-3,1.2-5.9,2.2-8.8c1.2-3.3,2.7-6.4,4.5-9.3c1.2-1.9,2.5-3.7,3.9-5.4
		c1.5-1.8,3.1-3.5,4.9-5c1.8-1.5,3.6-3,5.6-4.3c3-1.9,6.2-3.5,9.5-4.8c2.6-0.9,5.2-1.6,7.9-2.2c2.7-0.5,5.4-0.8,8.1-0.7
		c1,0,2.1,0,3.1,0c-0.3,1.9-0.6,3.8-1,5.7c-1,4.5-2.7,8.8-4.9,12.8c-1.5,2.8-3.3,5.5-5.4,7.9c-1.2,1.4-2.3,2.7-3.6,3.9
		c-2,1.8-3.9,3.6-6.2,5c-0.1-0.1-0.3-0.2-0.4-0.4c-0.8-1.2-1.9-1.9-3.1-2.5c-2-1-4.1-1.4-6.3-1.6c-2.7-0.2-5.4,0.1-7.9,1.2
		c-3.7,1.6-6.3,4.2-8,7.9c-0.6,1.4-1,2.9-1.3,4.4C53.2,93.1,52.5,93.1,51.8,93z"/>
	<path class="st9" d="M145.1,108.7c0,0.6-0.1,1.2-0.1,1.8c0,0.5-0.2,0.6-0.7,0.7c-0.4,0-0.8-0.1-1.2-0.1c-1,0-2,0-3,0
		c-2,0-2.9-0.8-3-2.9c-0.3-3.7-0.5-7.3-0.8-11c-0.2-2.4-0.4-4.8-0.3-7.2c-0.2,0-0.2,0.1-0.3,0.2c-1.1,3.7-2.9,7.1-4.5,10.6
		c-0.6,1.4-1.3,2.7-1.8,4.1c-0.2,0.5-0.5,0.7-1.1,0.7c-1.1,0-2.2,0-3.3,0c-0.4,0-0.7-0.1-0.9-0.6c-1.9-4.3-4-8.6-5.7-13
		c-0.2-0.6-0.4-1.3-0.6-2c-0.1-0.2-0.1-0.3-0.3-0.4c0.1,3.1-0.2,6.1-0.5,9.2c-0.2,2.3-0.3,4.5-0.5,6.8c-0.1,0.9-0.1,1.8-0.2,2.8
		c-0.2,1.6-1,2.4-2.7,2.5c-1.5,0.1-3.1,0-4.6,0c-0.4,0-0.7-0.1-0.7-0.6c0-1.3,0-2.5,0-3.8c0-0.4,0.2-0.5,0.6-0.5
		c1.8-0.1,1.7-0.2,1.9-1.9c0.2-3,0.5-6,0.7-9c0.2-2,0.3-4,0.5-5.9c0.2-2.9,0.4-5.8,0.7-8.7c0-0.5,0.2-0.7,0.8-0.7c1.6,0,3.2,0,4.7,0
		c0.6,0,0.7,0.4,0.9,0.8c1.4,3.2,2.7,6.4,4.1,9.5c1.2,2.7,2.4,5.4,3.3,8.2c0,0.1,0.1,0.2,0.2,0.3c0.2,0,0.2-0.2,0.3-0.4
		c1.1-3.4,2.7-6.6,4.1-9.9c1-2.4,2.1-4.9,3.1-7.3c0.7-1.5,0.4-1.2,1.9-1.2c1.3,0,2.6,0,3.9,0c0.5,0,0.7,0.1,0.8,0.7
		c0.2,1.1,0.2,2.3,0.3,3.4c0.2,2.2,0.3,4.4,0.5,6.6c0.2,2.9,0.5,5.8,0.7,8.7c0.2,1.9,0.3,3.8,0.4,5.6c0.1,1.1,0.3,1.3,1.5,1.4
		c0.8,0,0.8,0,0.9,0.9C145.1,107.6,145,108.2,145.1,108.7z"/>
	<path class="st9" d="M53.9,93c0.3-1.5,0.7-3,1.3-4.4c1.6-3.7,4.3-6.3,8-7.9c2.5-1.1,5.2-1.4,7.9-1.2c2.2,0.2,4.3,0.6,6.3,1.6
		c1.2,0.6,2.4,1.3,3.1,2.5c0.1,0.1,0.2,0.2,0.4,0.4c0.7,1.7,0.5,3.5,0.5,5.3c0,0.4-0.2,0.6-0.6,0.6c-1.3,0-2.7,0-4,0
		c-0.4,0-0.6-0.2-0.6-0.6c0-0.7,0.2-1.4-0.4-2c-0.2-0.6-0.6-0.9-1.2-1.2c-2.3-1.2-4.8-1.5-7.3-1c-3.7,0.8-6.4,3.5-7.2,7.2
		c-0.4,1.2-0.5,2.4-0.4,3.6c0.2,2.6,1,5,2.8,7c1.9,2.1,4.1,3.3,7,3.4c3,0.1,5.7-0.9,8-2.7c0.4-0.3,0.7-0.6,1.1-0.9
		c0.5-0.4,0.7-0.4,1.1,0.1c0.7,1,1.4,2,2.2,3c0.4,0.5,0.4,0.7-0.1,1.1c-1.1,1-2.3,1.9-3.5,2.6c-3.4,1.9-7.1,2.6-10.9,2.1
		c-5.7-0.8-9.9-4-12.3-9.3C53.9,99.2,53.7,96.1,53.9,93z"/>
	<path class="st9" d="M102.7,88.5c-0.7,0-1.3,0-2,0c-0.4,0-0.7-0.1-0.6-0.6c0-0.7,0-1.4-0.6-2c-0.6-0.6-1.4-0.9-2.3-1.1
		c-1.5-0.3-3-0.2-4.4,0.7c-1.8,1.1-2,3.1-0.5,4.6c0.9,0.9,2.1,1.4,3.3,1.9c1.8,0.8,3.7,1.5,5.4,2.5c1.8,1.1,3.4,2.4,4.2,4.3
		c2,4.7-0.2,10.1-5,11.9c-4.8,1.8-9.3,0.9-13.4-2.1c-0.6-0.4-1.1-0.9-1.5-1.4c-0.3-0.3-0.4-0.6-0.1-1c0.8-1,1.6-2,2.5-3
		c0.4-0.5,0.5-0.5,1,0c1.1,1.1,2.4,1.9,3.8,2.5c1.6,0.7,3.2,1,4.9,0.5c1.4-0.4,2.4-1.3,2.7-2.8c0.2-1,0-1.8-0.7-2.5
		c-0.6-0.7-1.4-1.3-2.2-1.7c-1.3-0.7-2.7-1.3-4-1.9c-1.6-0.8-3.2-1.6-4.6-2.7C84.2,91.1,84.6,84,89.9,81c4-2.3,8.2-2.1,12.3-0.1
		c0.8,0.4,1.5,1,2.1,1.7c0.7,0.8,1,1.7,1,2.7c0,0.8,0,1.6,0,2.5c0,0.5-0.2,0.7-0.7,0.7C104,88.5,103.3,88.5,102.7,88.5z"/>
	<path class="st8" d="M60.2,92.2c0.7-3.6,3.5-6.4,7.2-7.2c2.5-0.5,5-0.2,7.3,1c0.5,0.3,1,0.6,1.2,1.2c-1.1,0.5-2.3,1-3.4,1.5
		c-3.6,1.6-7.3,2.7-11.1,3.4C61,92.3,60.6,92.2,60.2,92.2z"/>
	<path class="st10" d="M157.6,155.4c-2,0-3.5-0.4-5-0.7c-0.6-0.1-1.1-0.2-1.7-0.3c-1.1-0.3-1.4-0.7-1.2-1.9c0.5-2.7,1.1-5.4,1.6-8.2
		c0.3-1.6,0.6-3.3,1-4.9c0.1-0.7,0.1-0.7-0.6-0.9c-0.2,0-0.3,0-0.5-0.1c-0.2-0.1-0.4-0.2-0.3-0.5c0,0,0-0.1,0-0.1
		c0.2-1.7,0.2-1.7,1.8-1.4c2,0.4,4,0.8,6,1.2c1.6,0.4,3.1,1,4.4,2.1c1.7,1.5,2.5,3.5,2.6,5.7c0,2.3-0.5,4.6-1.9,6.5
		C162.2,154.5,159.9,155.4,157.6,155.4z M156.8,153.2c2.4-0.1,4.3-1.1,5.4-3.3c0.5-1,0.7-2.1,0.9-3.2c0.4-3-1.1-5.4-3.9-6.5
		c-1-0.4-2.1-0.5-3.2-0.7c-0.9-0.2-1-0.1-1.2,0.8c-0.4,2.2-0.9,4.4-1.3,6.5c-0.3,1.6-0.6,3.2-1,4.8c-0.1,0.4-0.1,0.9,0.4,1
		C154.2,152.8,155.5,153.1,156.8,153.2z"/>
	<path class="st10" d="M80.6,140.9c1.1,1.4,1.8,2.9,2.6,4.3c0.4,0.7,0.7,1.4,1.7,1.2c0.2,0,0.4,0.1,0.4,0.4c0,0,0,0.1,0,0.1
		c0,2,0.3,1.7-1.6,1.8c-1,0.1-1.7-0.4-2.2-1.2c-0.8-1.4-1.7-2.8-2.5-4.3c-0.5-1-1.3-1.4-2.4-1.2c-0.4,0.1-0.8,0.1-1.1,0.1
		c-0.8,0-0.8,0-0.8,0.8c0,0.5,0,1,0.1,1.4c0.1,1.4,0.2,2.8,0.3,4.2c0,0.5-0.1,0.7-0.6,0.7c-2,0.3-2,0.3-2.1-1.7
		c-0.2-4.4-0.5-8.8-0.8-13.2c0-0.5-0.2-0.7-0.7-0.6c-0.1,0-0.3,0-0.4,0.1c-0.4,0.1-0.6-0.1-0.6-0.5c0-0.5-0.2-1.1,0-1.5
		c0.2-0.5,0.9-0.2,1.4-0.3c2.3-0.2,4.5-0.4,6.8-0.4c4.9,0,6,4.9,4.6,7.7C82.4,139.8,81.7,140.5,80.6,140.9z M74.4,135.4
		c0.1,1.3,0.2,2.5,0.2,3.8c0,0.6,0.2,0.7,0.7,0.7c1,0,2.1-0.1,3.1-0.2c1.1-0.2,1.9-0.8,2.2-1.9c0.3-0.8,0.2-1.7-0.1-2.5
		c-0.4-1.1-1.2-1.8-2.4-1.8c-0.6,0-1.3,0-1.9,0c-0.6,0-1.4-0.2-1.8,0.2C74.1,134.1,74.5,134.8,74.4,135.4z"/>
	<path class="st10" d="M145.1,138.4c0-0.8,0-0.9-0.9-1.1c-1.3-0.2-2.6-0.4-3.9-0.6c-0.5-0.1-0.7,0-0.8,0.5c-0.2,1.5-0.4,2.9-0.7,4.4
		c-0.1,0.5,0.2,0.6,0.6,0.6c1.5,0.2,2.9,0.4,4.4,0.6c0.2,0,0.4,0.1,0.6,0.1c0.5,0,0.5,0.3,0.4,0.7c-0.3,1.6-0.2,1.6-1.8,1.3
		c-1.4-0.2-2.7-0.4-4.1-0.6c-0.4-0.1-0.6,0-0.6,0.4c-0.2,1.4-0.4,2.8-0.6,4.3c-0.1,0.8,0,0.9,0.8,1c1.4,0.2,2.8,0.4,4.3,0.6
		c0.9,0.1,1,0.1,1.2-0.8c0.1-0.7,0.1-0.7,0.8-0.6c0.1,0,0.1,0,0.2,0c1.5,0.3,1.5,0.3,1.2,1.8c-0.3,2-0.7,2.3-2.7,2
		c-2.1-0.3-4.2-0.6-6.3-1c-0.3-0.1-0.7-0.1-1-0.2c-1-0.2-1.3-0.7-1.2-1.7c0.2-1.5,0.5-2.9,0.7-4.4c0.4-2.8,0.9-5.7,1.3-8.5
		c0-0.1,0-0.2,0-0.3c0.1-0.7,0.1-0.7-0.6-0.9c-0.9-0.2-0.9-0.2-0.7-1c0.2-1.2,0.2-1.3,1.5-1.1c3,0.5,6,0.9,9,1.4
		c1.3,0.2,1.6,0.7,1.4,2c-0.1,0.6-0.2,1.1-0.3,1.7c0,0.2-0.2,0.4-0.4,0.3c-0.4-0.1-0.8-0.1-1.1-0.1C145,139.2,145,139.2,145.1,138.4
		z"/>
	<path class="st10" d="M56,135.5c-0.1,0-0.2,0-0.3,0c-0.4,0-0.9,0.4-1.2,0c-0.3-0.5-0.3-1.2-0.3-1.8c0-0.3,0.3-0.3,0.6-0.3
		c1.5-0.2,2.9-0.4,4.4-0.6c1.5-0.2,3-0.4,4.5-0.6c0.4-0.1,0.9-0.1,1.3-0.1c0.7,0,1.1,0.2,1.3,0.9c0.2,0.7,0.2,1.5,0.3,2.2
		c0,0.3-0.1,0.5-0.4,0.5c-0.3,0-0.5,0.1-0.8,0.1c-0.9,0.1-0.9,0.1-1.1-0.7c-0.2-0.7-0.3-0.8-1-0.7c-1.4,0.2-2.7,0.4-4.1,0.5
		c-0.4,0-0.6,0.2-0.5,0.6c0.2,1.4,0.4,2.9,0.6,4.3c0.1,0.6,0.2,0.7,0.8,0.6c1.6-0.2,3.3-0.4,4.9-0.7c0.5-0.1,0.6,0,0.7,0.5
		c0.3,1.7,0.3,1.7-1.5,1.9c-1.2,0.1-2.4,0.3-3.7,0.5c-0.6,0.1-0.9,0.1-0.8,1c0.2,1.3,0.3,2.6,0.5,3.9c0.1,0.8,0.3,1,1.1,0.8
		c1.4-0.2,2.9-0.4,4.3-0.6c0.8-0.1,0.9-0.2,0.9-1c0-0.7,0-0.7,0.7-0.9c1.8-0.3,1.6-0.2,1.7,1.3c0,0.3,0.1,0.6,0.1,0.9
		c0.1,0.9-0.3,1.4-1.2,1.6c-1.3,0.2-2.6,0.4-3.9,0.6c-1.4,0.2-2.8,0.3-4.2,0.5c-1.2,0.2-1.7-0.2-1.9-1.3c-0.3-1.9-0.5-3.9-0.8-5.8
		c-0.3-2.6-0.7-5.2-1-7.8C56.1,135.7,56,135.6,56,135.5z"/>
	<path class="st10" d="M52.3,147.4c0.3,0.3,0.7,0.6,1.1,0.9c0.6,0.5,0.6,0.5,0.2,1.2c-1.2,1.6-2.7,2.8-4.6,3.5
		c-5.9,2.1-11.2-1.6-12.3-7.4c-0.8-4.3,1.7-9.1,6.9-10.3c1.4-0.3,2.8-0.4,4.2-0.1c2.1,0.4,2.9,1.1,3.4,3.2c0.1,0.3,0.1,0.5,0.2,0.8
		c-0.4,0.2-0.8,0.3-1.2,0.4c-1,0.2-1,0.2-1.3-0.7c-0.2-0.7-0.7-1-1.4-1.2c-2.6-0.7-6.3,0.3-7.7,3.7c-1.1,2.7-0.1,6.4,2.2,8.2
		c2,1.6,4.3,1.9,6.7,0.9c1.3-0.5,2.3-1.3,3.1-2.4C51.8,147.9,51.9,147.6,52.3,147.4z"/>
	<path class="st11" d="M92.2,140.6c0-2.4,0-4.7,0-7.1c0-0.4-0.1-0.6-0.5-0.6c-1,0-1.9,0-2.9,0c-0.5,0-0.8,0.2-0.7,0.7
		c0,0.1,0,0.3,0,0.4c0,0.3-0.1,0.6-0.5,0.5c-0.6-0.1-1.5,0.4-1.8-0.3c-0.3-0.9-0.2-2,0.1-2.9c0.1-0.4,0.5-0.6,0.9-0.6
		c0.3,0,0.6,0,0.9,0c3.8,0,7.6,0,11.4,0c0.2,0,0.5,0,0.7,0c0.9,0.1,1.2,0.4,1.2,1.3c0,0.7,0,1.4,0,2.1c0,0.4-0.2,0.6-0.6,0.5
		c-0.2,0-0.5,0-0.7,0c-0.9,0-0.9,0-1-0.9c-0.1-0.7-0.1-0.8-0.8-0.8c-0.9,0-1.8,0-2.7,0c-0.5,0-0.6,0.2-0.6,0.7c0,2.2,0,4.3,0,6.5
		c0,2.6,0,5.1,0,7.7c0,0.8,0,0.8-0.8,0.8c-0.4,0-0.8,0-1.1,0c-0.5,0-0.7-0.2-0.7-0.7c0-1.6,0-3.3,0-4.9
		C92.2,142.2,92.2,141.4,92.2,140.6C92.2,140.6,92.2,140.6,92.2,140.6z"/>
	<path class="st10" d="M114.6,131.6c2.4,0.2,5.3,0.5,8.2,0.8c1.2,0.1,1.5,0.5,1.4,1.7c0,0.4-0.1,0.9-0.1,1.3c-0.1,1-0.1,1-1.1,0.9
		c-0.1,0-0.2,0-0.3,0c-0.9-0.1-0.9-0.1-0.9-1c0-0.8,0-0.8-0.8-0.9c-1.1-0.1-2.2-0.2-3.4-0.3c-0.6-0.1-0.7,0-0.7,0.7
		c-0.1,1.5-0.3,2.9-0.4,4.4c0,0.4,0,0.7,0.6,0.7c1.4,0.1,2.7,0.2,4.1,0.4c0.3,0,0.6,0,0.9,0.1c0.1,0,0.3,0.1,0.3,0.2
		c0.1,0.2,0,1.7-0.1,1.8c-0.2,0.2-0.4,0.2-0.7,0.1c-1.3-0.1-2.5-0.2-3.8-0.3c-0.1,0-0.2,0-0.3-0.1c-1.2-0.1-1.2-0.1-1.4,1
		c-0.2,1.9-0.4,3.9-0.5,5.8c0,0.5-0.2,0.7-0.7,0.6c-0.1,0-0.3,0-0.4-0.1c-1.5-0.1-1.5-0.1-1.4-1.6c0.2-2.8,0.5-5.5,0.7-8.3
		c0.2-1.7,0.3-3.4,0.5-5.1c0-0.5,0-0.8-0.6-0.8c-0.2,0-0.3-0.1-0.5-0.1c-0.3,0-0.5-0.2-0.4-0.5c0-0.1,0-0.3,0-0.4
		C113,131.5,113,131.5,114.6,131.6z"/>
	<path class="st11" d="M107,149c-1.1-0.1-2.3-0.1-3.4-0.2c-0.4,0-0.6-0.2-0.6-0.6c0-0.1,0-0.2,0-0.3c0-1.2,0-1.3,1.2-1.3
		c0.4,0,0.6-0.2,0.6-0.6c0.1-1.3,0.1-2.7,0.2-4c0.1-2.6,0.3-5.3,0.4-7.9c0-0.8,0-0.9-0.8-0.9c-0.2,0-0.3,0-0.5,0
		c-0.3,0-0.4-0.2-0.4-0.5c0-0.2,0-0.5,0.1-0.7c0.1-1.1,0.1-1.1,1.1-1c1.3,0.2,2.6,0.1,3.9,0.2c1,0.1,1,0.1,0.9,1c0,0.1,0,0.1,0,0.2
		c-0.1,1-0.1,1-1.1,1c-0.7,0-0.7,0-0.8,0.7c-0.1,2.2-0.2,4.5-0.4,6.7c-0.1,1.7-0.2,3.4-0.2,5c0,0.9,0,0.9,0.8,1
		c0.8,0.1,0.8,0.1,0.8,0.9c0,1.3,0,1.3-1.4,1.3C107.4,149.1,107.2,149.1,107,149C107,149.1,107,149.1,107,149z"/>
	<path class="st11" d="M126,148.4c0.7,0,0.9,0.2,1-0.8c0.4-3.7,0.9-7.5,1.4-11.2c0-0.1,0-0.2,0-0.3c0.1-0.9,0.1-0.9-0.9-1
		c-0.7-0.1-0.8-0.1-0.7-0.8c0.2-1.5,0.2-1.5,1.7-1.3c1.3,0.2,2.5,0.3,3.8,0.4c0.5,0,0.6,0.3,0.5,0.7c0,0.1-0.1,0.3-0.1,0.4
		c-0.2,1.1-0.2,1.1-1.3,1c-0.4,0-0.6,0-0.7,0.5c-0.3,2.8-0.7,5.6-1,8.5c-0.1,1.2-0.3,2.4-0.4,3.7c-0.1,0.5,0.1,0.8,0.6,0.8
		c0.2,0,0.3,0,0.5,0.1c0.4,0.1,0.5,0.2,0.5,0.6c-0.2,1.7-0.2,1.7-1.8,1.5c-1.2-0.2-2.4-0.3-3.6-0.5c-0.7-0.1-0.7-0.1-0.6-0.8
		c0-0.2,0.1-0.3,0.1-0.5C125.2,148.4,125.2,148.4,126,148.4z"/>
	<path class="st10" d="M101.7,37.2c-0.4,0.5-0.6,1.1-0.8,1.8c-0.2,0.5-0.5,0.8-1.1,0.7c-0.5-0.1-0.9-0.1-1.5-0.3
		c0.2-1,0.7-1.8,1.1-2.7c0.4-1.1,1-2.3,1.5-3.4c0.1-0.2,0.2-0.4,0.2-0.7c0.4-0.4,0.6-1,0.8-1.5c0.5-1,0.9-2.1,1.3-3.1
		c0.2-0.5,0.4-0.7,0.9-0.5c0.1,0,0.1,0,0.2,0c1.5,0.1,1.5,0.1,2,1.7c0.9,3.4,1.9,6.9,2.8,10.3c0.1,0.2,0.2,0.5,0.1,0.7
		c-0.6,0.2-1.3-0.1-1.9-0.1c-0.3,0-0.4-0.3-0.4-0.5c-0.2-0.7-0.4-1.5-0.6-2.2c-0.1-0.4-0.2-0.6-0.7-0.6c-1.1,0-2.1-0.1-3.2-0.2
		C101.9,36.6,101.7,36.8,101.7,37.2z M104.4,30c-0.7,1.7-1.3,3.2-1.9,4.7c1.1,0.1,2.1,0.3,3.1,0.2C105.3,33.3,104.9,31.7,104.4,30z"
		/>
	<path class="st11" d="M148.1,58.3c-1.5,1.8-0.7,3.6,2.1,4.8c0.1,0.3-0.1,0.5-0.2,0.7c-0.4,1-0.5,1-1.5,0.6c-1.4-0.6-2.4-1.7-3-3.1
		c-0.9-2.4,0.3-4.9,2.7-6c2.2-1,4.7,0,5.8,2.2c0.6,1.2,0.5,2.4-0.2,3.5c-0.3,0.6-0.8,1-1.3,1.4c-0.6,0.4-0.6,0.5-1-0.1
		c-1-1.2-1.9-2.4-2.9-3.6C148.5,58.6,148.4,58.4,148.1,58.3z M149.6,57.3c0.5,0.8,1.2,1.6,1.8,2.3c0.5,0.6,0.8,0.6,1.1-0.2
		c0.2-0.4,0.2-0.9,0-1.3C151.9,57,150.8,56.7,149.6,57.3z"/>
	<path class="st11" d="M127,45.4c-1,0.2-1.7,0.3-2.5,0.1c-1.8-0.6-2.7-2.3-2-3.9c0.5-1.1,1.6-1.7,2.9-1.6c1,0.1,1.9,0.4,2.9,0.8
		c0.6,0.2,0.8,0.1,0.8-0.6c0-0.6-0.3-0.9-0.8-1.2c-0.7-0.4-1.4-0.6-2.2-0.5c-0.6,0.1-0.7-0.2-0.7-0.7c0-0.2,0-0.3,0-0.5
		c-0.1-0.5,0.2-0.7,0.7-0.7c1.6,0,3.1,0.4,4.3,1.5c0.9,0.8,1.1,1.8,0.8,3c-0.2,0.8-0.7,1.6-1,2.4c-0.5,1-1,2-1.4,3
		c-0.2,0.5-0.5,0.6-0.9,0.3c-0.1-0.1-0.3-0.2-0.5-0.2C126.9,46.5,126.6,46.2,127,45.4z M126,41.7c-1,0-1.6,0.7-1.3,1.5
		c0.2,0.5,0.6,0.8,1.2,0.8c0.8,0.1,1.5-0.3,2-0.9c0.4-0.5,0.4-0.7-0.2-1C127.1,42,126.6,41.8,126,41.7z"/>
	<path class="st11" d="M136.2,42.6c1.3-0.2,2.5,0,3.5,0.9c1,0.9,1.2,1.8,0.8,3.1c-0.1,0.2-0.1,0.3-0.2,0.5c-1.1,1.8-2.4,3.6-3.6,5.4
		c-0.5-0.3-0.9-0.7-1.4-0.9c-0.4-0.2-0.4-0.5-0.1-0.8c0.8-1.1,1.6-2.3,2.3-3.4c0.1-0.2,0.3-0.4,0.4-0.6c0.8-1.3,0.3-2.3-1.2-2.5
		c-1.1-0.2-2,0.3-2.6,1.2c-0.7,1-1.4,2-2,3c-0.5,0.7-0.4,0.8-1.2,0.2c-1.2-0.8-1.2-0.8-0.4-2c1.3-1.8,2.5-3.7,3.8-5.5
		c0.4-0.6,0.5-0.6,1.1-0.2c0.1,0.1,0.2,0.1,0.3,0.2c0.8,0.6,0.8,0.6,0.4,1.5c-0.1,0.1-0.2,0.1,0,0.2
		C136.1,42.7,136.2,42.7,136.2,42.6z"/>
	<path class="st11" d="M143.7,48.2c2.2,0,4.5,1.9,4.9,4c0.1,0.5,0,0.8-0.5,0.9c-0.2,0-0.3,0-0.5,0.1c-0.5,0.2-0.7,0.1-0.8-0.4
		c-0.1-0.4-0.2-0.8-0.5-1.1c-0.6-0.9-1.5-1.4-2.6-1.3c-1.2,0.2-1.9,0.9-2.3,2c-0.3,1.1-0.1,2,0.8,2.8c0.6,0.6,1.3,0.8,2.1,0.9
		c0.4,0,0.5,0.2,0.4,0.6c-0.3,1.2-0.1,1.4-1.7,1.1c-1.9-0.4-4-2.5-4-4.9C139,50.8,140.9,48.1,143.7,48.2z"/>
	<path class="st11" d="M114.6,39.9c0-0.4,0.1-0.8,0.2-1.2c0.8-2.8,1.5-5.5,2.3-8.3c0.2-0.9,0.3-0.9,1.1-0.7c1.6,0.4,1.3,0.3,1,1.7
		c-0.7,2.5-1.3,5-2,7.5c-0.2,0.7-0.3,1.3,0.6,1.6c0.2,0.1,0.2,0.2,0.2,0.4c0,0.1-0.1,0.2-0.1,0.3c-0.3,1.3-0.5,1.4-1.7,0.9
		C115,41.7,114.5,41,114.6,39.9z"/>
	<path class="st11" d="M114.1,28.9c-0.6,2.9-1.1,5.9-1.7,8.8c-0.1,0.7-0.3,1.4,0.7,1.6c0.2,0.1,0.2,0.2,0.2,0.4
		c0,0.1-0.1,0.3-0.1,0.4c-0.2,1.3-0.3,1.3-1.6,0.9c-1-0.4-1.5-1.1-1.6-2.2c0-1,0.3-1.9,0.4-2.8c0.4-2.3,0.8-4.5,1.3-6.8
		c0.2-0.8,0.1-1,1-0.7C113.2,28.7,113.7,28.7,114.1,28.9z"/>
	<path class="st11" d="M123.4,35.4c0,0.1-0.1,0.3-0.2,0.4c-0.8,2.3-1.6,4.6-2.4,7c-0.2,0.7-0.3,0.7-0.9,0.5
		c-1.7-0.6-1.5-0.3-0.9-1.9c0.7-2.1,1.5-4.2,2.2-6.3c0.3-0.7,0.3-0.7,1-0.5c0.4,0.1,0.7,0.3,1.1,0.4
		C123.3,35.1,123.4,35.2,123.4,35.4z"/>
	<path class="st11" d="M124.6,32.1c-0.1,0.4-0.3,0.8-0.5,1.3c-0.1,0.3-0.3,0.2-0.5,0.2c-0.3-0.1-0.5-0.2-0.8-0.3
		c-0.9-0.3-1-0.3-0.6-1.3c0.4-1.1,0.2-1,1.2-0.6c0.3,0.1,0.6,0.2,0.9,0.3C124.5,31.8,124.6,31.9,124.6,32.1z"/>
	<path class="st10" d="M81.1,42.3c-0.4-1.3-0.6-2.6-0.8-3.8c-0.3-1.4-0.6-2.8-0.9-4.2c-0.1-0.5,0-0.7,0.5-0.8c0.1,0,0.2-0.1,0.3-0.1
		c1.2-0.3,1.2-0.3,1.6,1c0.7-1,1.4-1.8,2.5-2c1.1-0.2,2.1,0.1,2.8,1.1c0.3-0.5,0.6-1,1-1.4c0.7-0.7,1.6-1,2.5-1
		c1.2,0,2.2,0.8,2.5,2.1c0.5,1.9,0.8,3.9,1.3,5.8c0.1,0.4,0,0.7-0.5,0.7c-0.1,0-0.2,0-0.3,0.1c-1.3,0.3-1.4,0.3-1.6-1
		c-0.3-1.3-0.5-2.7-0.8-4c0-0.2-0.1-0.5-0.2-0.7c-0.3-0.7-0.9-0.9-1.6-0.6c-0.9,0.4-1.3,1.2-1.4,2.1c-0.1,1.1,0.3,2.2,0.5,3.2
		c0.1,0.4,0.2,0.9,0.3,1.3c0.1,0.4-0.1,0.6-0.5,0.7c0,0-0.1,0-0.1,0c-1.5,0.4-1.5,0.4-1.8-1.1c-0.3-1.3-0.5-2.6-0.8-3.9
		c-0.1-0.6-0.3-1.2-1.1-1.3c-0.7-0.1-1.3,0.3-1.7,1c-0.4,0.8-0.4,1.7-0.2,2.5c0.2,1.1,0.4,2.1,0.7,3.2c0.1,0.4,0,0.7-0.4,0.7
		C82.2,42.1,81.7,42.2,81.1,42.3z"/>
	<path class="st10" d="M46.4,52.1c-0.2-1.9,2.1-4.3,4.2-4.6c0.4-0.1,0.7,0,0.8,0.5c0.1,0.3,0.2,0.5,0.3,0.8c0.2,0.4,0,0.7-0.4,0.7
		c-0.6,0.1-1.2,0.4-1.7,0.7c-0.6,0.4-1,1-1,1.8c0,0.8,0.5,1.2,1.3,1.2c0.6,0,1.1-0.3,1.6-0.5c0.7-0.3,1.4-0.6,2.2-0.9
		c1.5-0.4,2.8-0.1,3.8,1.1c0.9,1.1,1,2.7,0.2,4c-1,1.7-2.5,2.6-4.4,3c-0.4,0.1-0.7,0-0.8-0.5c0-0.2-0.1-0.3-0.1-0.5
		c-0.1-0.9-0.1-1,0.8-1.2c0.8-0.2,1.6-0.6,2.2-1.3c0.3-0.3,0.5-0.7,0.5-1.2c0-0.7-0.5-1.2-1.2-1.3c-0.6,0-1.1,0.2-1.6,0.4
		c-0.9,0.3-1.7,0.7-2.6,1C48.3,56.1,46.2,54.3,46.4,52.1z"/>
	<path class="st10" d="M77.4,42.8c-0.2,0.7-0.5,1.2-1,1.7c-0.5,0.5-1.1,0.8-1.8,1c-1.4,0.3-2.5-0.2-3.2-1.5
		c-0.5-0.9-0.9-1.9-1.3-2.8c-0.4-1-0.8-2-1.2-2.9c0-0.1,0-0.1,0-0.2c0.5-0.2,0.9-0.4,1.4-0.6c0.4-0.2,0.7-0.1,0.9,0.4
		c0.4,1,0.9,2.1,1.3,3.1c0.2,0.6,0.5,1.1,0.8,1.7c0.4,0.7,1,0.9,1.7,0.5c1-0.5,1.5-1.5,1.3-2.6c-0.3-1.3-0.9-2.4-1.4-3.5
		c-0.5-1.3-0.5-1.3,0.7-1.8c0.8-0.4,0.8-0.4,1.2,0.5c1,2.2,1.9,4.5,2.8,6.7c0.3,0.7,0.3,0.7-0.4,1c0,0-0.1,0-0.1,0
		C78.2,43.7,78.2,43.7,77.4,42.8z"/>
	<path class="st9" d="M60.7,53.2c-1.8,0.1-3.6-1-4.4-3c-0.7-1.8-0.3-3.6,1.2-5.1c0.9-0.9,2-1.5,3.3-1.5c0.7,0,0.7,0,0.8,0.7
		c0,0.1,0,0.2,0,0.3c0,0.7,0,0.7-0.7,0.8c-0.6,0.1-1.1,0.2-1.5,0.5c-0.8,0.6-1.3,1.4-1.2,2.5c0.2,1.3,0.9,2.2,2.1,2.5
		c1.1,0.3,2-0.1,2.8-1c0.4-0.4,0.7-0.9,0.8-1.5c0.1-0.4,0.3-0.5,0.7-0.3c1.2,0.4,1.3,0.6,0.8,1.7C64.5,51.9,62.9,53,60.7,53.2z"/>
	<path class="st10" d="M65.5,41.7c0.1-1,0.3-1.9,1.1-2.5c0.5-0.4,0.7-0.4,1.1,0.1c0.1,0.2,0.2,0.4,0.4,0.6c0.4,0.7,0.4,0.7-0.2,1.1
		c-1,0.8-1.3,1.8-0.9,3c0.4,1.1,1.2,2.1,1.7,3.2c0.1,0.2,0.2,0.3,0.3,0.5c0.1,0.2,0.1,0.5-0.2,0.6c-0.1,0.1-0.2,0.1-0.3,0.2
		c-1.3,0.9-1.3,0.9-2-0.5c-1.1-1.9-2.2-3.7-3.3-5.6c-0.5-0.9-0.6-0.9,0.3-1.4c0.1-0.1,0.2-0.2,0.3-0.2c0.7-0.4,0.7-0.4,1.1,0.3
		C65.1,41.3,65.2,41.5,65.5,41.7z"/>
	<path class="st2" d="M156.8,153.2c-1.3-0.1-2.6-0.4-3.9-0.6c-0.6-0.1-0.5-0.5-0.4-1c0.3-1.6,0.6-3.2,1-4.8c0.4-2.2,0.9-4.4,1.3-6.5
		c0.2-0.9,0.2-1,1.2-0.8c1.1,0.2,2.2,0.4,3.2,0.7c2.8,1,4.3,3.5,3.9,6.5c-0.1,1.1-0.4,2.2-0.9,3.2
		C161.1,152.1,159.2,153.1,156.8,153.2z"/>
	<path class="st2" d="M74.4,135.4c0.1-0.6-0.3-1.3,0.1-1.7c0.4-0.5,1.2-0.2,1.8-0.2c0.6,0,1.3-0.1,1.9,0c1.2,0,2,0.7,2.4,1.8
		c0.3,0.8,0.3,1.7,0.1,2.5c-0.3,1.1-1.1,1.7-2.2,1.9c-1,0.2-2,0.2-3.1,0.2c-0.5,0-0.7-0.1-0.7-0.7C74.6,137.9,74.5,136.6,74.4,135.4
		z"/>
	<path class="st2" d="M104.4,30c0.4,1.8,0.8,3.3,1.2,4.9c-1.1,0.1-2-0.1-3.1-0.2C103.2,33.2,103.8,31.6,104.4,30z"/>
	<path class="st2" d="M149.6,57.3c1.2-0.6,2.3-0.3,2.9,0.9c0.2,0.4,0.2,0.8,0,1.3c-0.3,0.8-0.6,0.8-1.1,0.2
		C150.7,58.8,150.1,58.1,149.6,57.3z"/>
	<path class="st2" d="M126,41.7c0.6,0,1.1,0.2,1.7,0.5c0.6,0.3,0.7,0.5,0.2,1c-0.5,0.6-1.2,1-2,0.9c-0.6-0.1-1-0.3-1.2-0.8
		C124.4,42.4,125,41.7,126,41.7z"/>
	<path class="st3" d="M136.2,42.6c-0.1,0-0.1,0.1-0.1,0.1c-0.1-0.1,0-0.2,0-0.2C136.1,42.5,136.2,42.6,136.2,42.6z"/>
</g>
</svg>
