<?xml version="1.0" encoding="utf-8"?>
<!-- Generator: Adobe Illustrator 27.9.0, SVG Export Plug-In . SVG Version: 6.00 Build 0)  -->
<svg version="1.1" id="Layer_1" xmlns="http://www.w3.org/2000/svg" xmlns:xlink="http://www.w3.org/1999/xlink" x="0px" y="0px"
	 viewBox="0 0 200 200" style="enable-background:new 0 0 200 200;" xml:space="preserve">
<style type="text/css">
	.st0{fill:#FCB824;}
	.st1{fill:#FDC459;}
	.st2{fill:#FCB926;}
	.st3{fill:#FCB825;}
	.st4{fill:#FDCB6E;}
	.st5{fill:#FED281;}
	.st6{fill:#FED282;}
	.st7{fill:#FEDA98;}
	.st8{fill:#FED489;}
	.st9{fill:#FFFEFD;}
	.st10{fill:#FFFDFA;}
	.st11{fill:#FFFDF8;}
	.st12{fill:#FDC653;}
	.st13{fill:#FECE67;}
	.st14{fill:#FDD47C;}
	.st15{fill:#FCB823;}
	.st16{fill:#FECE68;}
	.st17{fill:#FDD57E;}
	.st18{fill:#FDDD97;}
	.st19{fill:#FDD784;}
	.st20{fill:#FFFDF9;}
	.st21{fill:#FFFEFA;}
	.st22{fill:#FFFFFE;}
	.st23{fill:#FFFBF2;}
	.st24{fill:#FFFCF4;}
	.st25{fill:#0297D7;}
	.st26{fill:#FFFFFF;}
	.st27{fill:#CE0E2D;}
	.st28{fill:#6A747C;}
	.st29{fill:#499BD6;}
	.st30{fill:#2C398D;}
	.st31{fill:#002A73;}
</style>
<path class="st0" d="M166.6,90.4c0.8-3.3,1.3-6.7,1.3-10.2c0-20.9-15.4-38.1-35.5-41c-7.6-9.5-19.3-15.6-32.4-15.6
	c-13,0-24.5,6-32.2,15.3c-21.2,1.8-37.9,19.6-37.9,41.3c0,3.5,0.4,6.9,1.3,10.2h-0.7V132c12.6-5.5,38.1-9.3,67.6-9.3
	c31.5,0,58.5,4.3,70,10.5h1.4V90.4H166.6z"/>
<g>
	<path class="st12" d="M95.5,123c-1.9,0.1-3.7,0.1-5.6,0c-0.2,0-0.4-0.1-0.6-0.1c-2-0.2-4,0.3-6,0.2c-0.2,0-0.4,0.1-0.5,0.3
		c-1.4,0-2.9,0-4.3,0c-1.3-0.3-2.5,0.1-3.7,0.2c-0.1,0-0.1,0.1-0.2,0.2c-0.9-0.1-1.8,0.1-2.7,0.1c-0.7-0.4-1.4-0.1-2.1,0
		c-0.2,0-0.4,0.2-0.4,0.4c-0.1,0-0.2,0-0.3,0c-1.3,0.1-2.5,0.1-3.8,0.4c-1.1,0.3-2.2-0.1-3.3,0.4c-0.3,0.2-0.8,0-1.2,0
		c0-0.3-0.1-0.6-0.2-0.9c-0.8-1.5-1.9-2.8-2.7-4.4c-0.7-1.3-1.5-2.5-2-3.9c-0.7-2.1-1.6-4-2.4-6.1c0.7-0.1,1.3,0.4,2,0.4
		c0.9,0,1.9,0,2.8,0c0.7,0,0.8-0.1,0.8-0.8c0-1.2,0-2.4,0-3.6c0-0.7,0-0.8-0.8-0.8c-0.7,0-1-0.3-1.2-0.9c-0.5-1.1-0.7-2.2-1.1-3.2
		c-0.4-0.9-0.8-1.8-1-2.8c-0.1-0.4-0.2-0.9-0.5-1.3c-0.6-1.1-1-2.3-1.2-3.6c0.1-0.4,0.4-0.5,0.8-0.5c1.4,0.1,2.7,0,4.1-0.2
		c0.8-0.1,1.5-0.2,2.3-0.2c1.9-0.2,3.7-1.1,5.7-1.3c0.1,0,0.1,0,0.2-0.1c1-0.6,2.1-0.8,3.1-1.1c1.3-0.5,2.7-0.9,3.9-1.5
		c1.5-0.8,3.1-1.5,4.5-2.5c0.5-0.4,1.1-0.8,1.7-1.1c1.1-0.6,2.1-1.2,3-2.1c0.1-0.1,0.2-0.2,0.3-0.3c1.1-0.3,1.5-1.6,2.7-1.9
		c0.7-1.1,1.7-1.8,2.6-2.6c1.3-1.2,2.1-2.8,3.5-3.9c0,0,0-0.1,0.1-0.1c1-1.7,2.3-3.3,3.4-5c0.3-0.6,0.8-1.1,1.1-1.6
		c1.1-2.1,2-4.3,2.9-6.5c0.2-0.5,0.4-1,0.5-1.6c0.1-0.8,0.5-1.4,0.7-2.2c0.2-0.7,0.5-1.4,0.6-2.2c0.1-1,0.7-1.9,0.5-3
		c0-0.1,0-0.1,0.1-0.2c0.3-0.4,0.3-0.8,0.3-1.3c0-0.7,0-1.4,0-2.1c0-0.2,0-0.5,0-0.7c0-0.4,0.2-0.6,0.6-0.6c0,0.2,0,0.5,0,0.7
		c0,0.5,0.2,0.8,0.7,0.7c1.9-0.1,3.7,0.4,5.5,0.7c1.9,0.3,3.7,0.8,5.6,1.4c0.8,0.2,1.6,0.6,2.3,0.9c1,0.4,2,0.8,2.9,1.2
		c1.6,0.7,3.2,1.5,4.7,2.4c1.9,1.2,3.9,2.3,5.5,3.9c0.1,0.1,0.1,0.2,0.2,0.2c1,0.5,1.8,1.3,2.6,2c0.5,0.5,0.9,1.1,1.4,1.6
		c0.8,0.9,1.8,1.8,2.6,2.8c0.7,0.9,1,2.1,2.1,2.6c0.1,0,0.1,0.1,0.1,0.2c0.8,1.4,1.7,2.7,2.4,4.1c0.8,1.5,1.6,3,2.3,4.6
		c0.6,1.5,1.1,2.9,1.6,4.4c0.2,0.6,0.2,1.3,0.6,1.9c0.4,0.6,0.5,1.1,0.3,1.8c-0.3-0.1-0.4-0.2-0.5-0.5c-0.6-1.4-1.3-2.8-1.8-4.3
		c-0.3-0.8-0.5-1-1.4-1c-0.6,0-1.3,0-1.9,0c-0.8,0-1.6,0-2.4,0c-0.4,0-0.8,0.1-0.8,0.6c0.1,1.3-0.4,2.5-0.4,3.8
		c0,1.5,0.2,3.1-0.4,4.6c0.1,2.3-0.3,4.6-0.5,6.9c-0.1,0.9,0.1,1.9-0.1,2.8c-0.4,1.4-0.3,2.9-0.3,4.3c0,0.4,0,0.8,0,1.2
		c-0.1,0.9-0.5,1.3-1.4,1.4c-0.8,0.1-1,0.3-1.1,1.1c0,1,0,2,0,3c0,0.8,0.3,1.1,1.1,1.1c1.4,0,2.8,0,4.2,0c1.1,0,2-0.6,2.3-1.6
		c0.2-0.6,0.4-1.3,0.5-1.9c0.1-2.1,0-4.2,0.4-6.3c0.2-1.1,0-2.3,0.1-3.4c0.1-1.7,0.5-3.4,0.4-5.1c0-0.4,0-0.8,0-1.3
		c0-0.2-0.1-0.5,0.3-0.4c0.4,0.8,0.5,1.6,0.9,2.4c0.6,1.3,1.1,2.7,1.7,4c0.3,0.7,0.8,1.4,1.1,2.1c0.4,1,0.9,2,1.3,3
		c-0.2,0.1-0.3,0.4-0.3,0.6c0.1,1.2-0.7,2.3-0.5,3.5c0,0.1-0.1,0.3-0.1,0.4c-0.4,0.8-0.2,1.7-0.9,2.4c0,0,0,0.1,0,0.1
		c0.1,0.8-0.1,1.4-0.5,2.1c-0.7,1.4-0.9,3-1.7,4.4c-0.4,0.8-0.6,1.7-1.1,2.5c-1,1.5-1.8,3.1-2.6,4.7c-0.1,0-0.3,0-0.4,0
		c-0.2,0-0.3,0-0.4-0.2c0-0.3-0.1-0.4-0.4-0.4c-0.5,0-0.9-0.4-1.5-0.5c0-0.3-0.1-0.5-0.4-0.2c-0.1,0-0.3,0-0.4,0
		c-0.1-0.6-0.1-0.6-0.4-0.4c-0.1,0-0.3,0-0.4,0c0-0.6-0.4-0.6-0.9-0.6c-0.3,0-0.6,0-0.9-0.2c-0.4-0.3-0.9-0.5-1.3-0.6
		c-0.8,0-1.5-0.4-2.3-0.6c-0.6-0.1-1.3-0.1-1.9-0.4c-0.5-0.3-0.9-0.3-1.4-0.3c-0.2,0-0.5,0-0.6-0.1c-0.7-0.5-1.5-0.3-2.2-0.4
		c-0.4,0-0.8,0.1-1.1-0.1c-0.4-0.3-0.8-0.3-1.2-0.3c-2.5,0-5,0-7.5,0c-1.2,0-2.4,0.6-3.6,0.4c-0.1,0-0.2,0.1-0.3,0.1
		c-0.3,0.3-0.7,0.3-1,0.2c-1-0.1-1.9,0.6-2.8,0.5c-0.7,0.6-1.7,0.3-2.4,0.7c-0.8,0.5-1.8,0.5-2.7,0.9c-0.3,0.2-0.6,0.4-0.9,0.5
		c-1.3,0.3-2.4,1.1-3.5,1.6C95.9,122.6,95.6,122.7,95.5,123z M88.6,86.8c0.2,0,0.4-0.1,0.4-0.4c1.1-0.8,2.4-1.3,3.8-1.6
		c2-0.4,4.1-0.2,6,0.4c1.6,0.6,2.2,1.5,2.3,3.2c0,0.1,0,0.2,0,0.3c0,0.5,0.1,0.7,0.6,0.7c1.3,0,2.7,0,4,0c0.4,0,0.6-0.1,0.6-0.6
		c0-1.2,0-2.5,0-3.7c0-0.7-0.3-1.4-0.8-1.9c-1.1-1.4-2.5-2.3-4.1-2.9c-3-1.1-6-1.5-9.2-1c-1.8,0.3-3.5,0.8-5.1,1.7
		c-2.4,1.3-4.3,3.1-5.7,5.5c-0.3,0-0.4,0.2-0.4,0.5c0,0.1,0,0.3-0.1,0.4c-0.6,0.6-0.8,1-0.8,1.7c0,0.1,0,0.3,0,0.4
		c-0.7,0-0.6,0.5-0.5,0.9c0,0.4,0.1,0.8-0.1,1.1c-0.4,0.9-0.3,1.8-0.4,2.7c-0.1,1.6,0.2,3.2,0.4,4.8c0,0.1,0,0.3,0.1,0.4
		c0.5,0.6,0.6,1.4,0.9,2.1c0.6,1.7,1.6,3.2,2.8,4.5c1.3,1.5,3,2.5,4.8,3.4c1.7,0.8,3.5,1.1,5.3,1.4c1.8,0.3,3.6-0.2,5.4-0.4
		c0.1,0,0.1,0,0.2-0.1c0.7-0.4,1.6-0.5,2.3-0.8c2-0.8,3.7-2,5.3-3.3c0.5-0.4,0.5-0.9,0.1-1.4c-0.8-1.1-1.6-2.1-2.4-3.2
		c-0.2-0.3-0.3-0.2-0.5-0.1c-0.2,0.1-0.3,0.3-0.5,0.4c-1.6,1.7-3.7,2.7-5.9,3.1c-1.8,0.3-3.8,0.5-5.7-0.3c-1.6-0.6-3.1-1.4-4.1-2.9
		c-0.1-0.1-0.2-0.2-0.3-0.3c-0.7-0.6-1.1-1.4-1.4-2.2c-0.7-1.6-1-3.3-0.9-5c0-0.7,0-1.5,0.2-2.2c0.4-1.4,0.9-2.6,1.6-3.8
		c0.3,0,0.6-0.1,0.5-0.5c0-0.1,0-0.1,0.1-0.2c0.3,0,0.4-0.2,0.4-0.4l0,0C88.4,87.2,88.6,87,88.6,86.8L88.6,86.8z M124.8,87.8
		c-0.2,0.3-0.1,0.4,0.2,0.4c1.4,0,2.8,0,4.2,0c0.4,0,0.6-0.2,0.6-0.6c0-1,0-1.9,0-2.9c0-0.3-0.1-0.5-0.4-0.6
		c0.1-0.6-0.1-1.1-0.5-1.6c-0.8-1.1-2-1.8-3.2-2.4c-1.1-0.5-2.2-0.8-3.4-0.9c-3-0.3-5.7,0-8.3,1.8c-2.1,1.4-3.3,3.3-3.6,5.7
		c-0.5,3.3,0.9,5.9,3.6,7.9c1.6,1.1,3.3,1.9,5.1,2.7c1.6,0.7,3.2,1.5,4.5,2.6c0.8,0.6,1.4,2.2,0.8,3.3c-0.7,1.5-2.1,1.9-3.5,2.3
		c-1.2,0.3-2.4-0.2-3.5-0.5c-1.6-0.5-2.9-1.5-4.1-2.6c-0.5-0.5-0.7-0.3-0.9,0c-0.6,1.1-1.6,1.8-2.2,2.9c-0.5,0.8-0.5,0.8,0.1,1.5
		c1.4,1.5,3.2,2.2,4.9,3.2c1,0.5,2.2,0.6,3.3,0.8c1.8,0.4,3.6-0.1,5.4-0.4c0.1,0,0.1-0.1,0.2-0.1c0.8-0.4,1.7-0.9,2.5-1.3
		c1.1-0.7,2.1-1.6,2.7-2.8c0.5-1.1,0.9-2.2,1-3.5c0.1-1.9-0.1-3.8-1.1-5.4c-1.3-2.1-3.3-3.3-5.5-4.3c-1.9-0.8-3.9-1.7-5.7-2.7
		c-0.7-0.4-1.3-0.9-1.5-1.6c-0.6-1.7,0.2-3.1,1.8-3.7c1.6-0.7,3.2-0.6,4.8,0.1c0.5,0.2,1,0.3,1.3,0.9c0.1,0.5-0.1,1,0.4,1.3
		C124.7,87.4,124.8,87.6,124.8,87.8z M68.4,95.6c-1.9,0-3.8,0-5.7,0c-0.5,0-0.8,0.1-0.8,0.7c0,1.1,0,2.3,0,3.4
		c0,0.5,0.1,0.8,0.6,0.8c3.8,0,7.7,0,11.5,0c0.5,0,0.8-0.3,0.8-0.8c0-1,0-2,0-3.1c0-0.9,0-1-0.9-1C72,95.6,70.2,95.6,68.4,95.6z"/>
	<path class="st3" d="M138.3,156.6c-1.6-0.2-3.2-0.4-4.7-0.8c0,0-0.1,0-0.1,0c-1.5,0.1-2.8-0.4-4.2-0.6c-1.4-0.2-2.7-0.1-4-0.4
		c-1-0.3-2.1-0.2-3.1-0.3c-1.9-0.3-3.9-0.2-5.8-0.5c-2.2-0.4-4.5-0.2-6.7-0.4c-0.3,0-0.6,0-0.9-0.2c-0.2-0.2-0.5-0.2-0.8-0.2
		c-1.6,0-3.1,0-4.7-0.1c-1.1,0-2.2-0.1-3.3-0.1c-3.8,0.1-7.5,0-11.3,0.1c-1,0-2,0-3,0c-0.6,0-1.2-0.1-1.7,0.3
		c-0.1,0.1-0.4,0.1-0.6,0.1c-2.5,0-4.9,0.1-7.4,0.1c-0.6,0-1.2,0.2-1.8,0.3c-0.8,0.1-1.5,0.1-2.3,0.1c-2.3-0.1-4.5,0.6-6.8,0.5
		c-1.2,0.5-2.6,0.2-3.8,0.5c-1.1,0.2-2.2,0.1-3.2,0.4c-1.1,0.4-2.3,0.3-3.5,0.6c-1.1,0.3-2.2,0.6-3.4,0.6c-0.7,0-1.3,0.4-2,0.6
		c-2.8,0.6-5.6,1.4-8.3,2.2c-1.9,0.6-3.6,1.4-5.5,2.1c-1.8,0.7-3.6,1.7-5.4,2.5c-0.2,0.1-0.3,0.3-0.5,0.4c-0.5,0.3-1,0.3-1.5,0
		c-1-0.7-1.9-1.5-2.6-2.4c-1.3-1.6-2.5-3.3-3.5-5.1c-0.5-0.9-1.1-1.8-1.5-2.7c-0.8-1.6-1.5-3.3-2-5c-0.2-0.7-0.3-1.3-0.6-2
		c-0.3-0.6-0.2-1.3-0.3-2c0-0.4,0.2-0.7,0.5-0.9c1.1-1,2.2-2.1,3.4-3c1.1-0.9,2.3-1.6,3.5-2.3c2.3-1.5,4.9-2.6,7.4-3.7
		c1.3-0.6,2.6-1.1,3.9-1.5c1.1-0.4,2.3-0.8,3.5-1.1c0.7-0.1,1.4-0.5,2.2-0.6c1.3-0.3,2.5-0.8,3.8-1c3.3-0.7,6.7-1.4,10.1-1.9
		c3.2-0.5,6.5-0.8,9.7-1.3c1.6-0.3,3.2-0.1,4.8-0.5c1.8-0.4,3.7-0.1,5.5-0.4c3-0.5,6.1-0.1,9.1-0.4c3.9-0.5,7.8-0.2,11.7-0.3
		c3.9-0.1,7.8,0,11.6,0c0.9,0,1.8-0.1,2.6,0.1c2.9,0.5,5.8,0,8.6,0.5c1.7,0.3,3.4,0.1,5.1,0.4c1.6,0.3,3.2,0.1,4.8,0.4
		c2.6,0.6,5.3,0.7,7.9,1.1c2.2,0.4,4.4,0.7,6.6,1.1c2.7,0.5,5.5,1,8.2,1.7c1.2,0.3,2.5,0.6,3.7,1c1.2,0.4,2.4,0.8,3.6,1.1
		c1.6,0.4,3.1,0.9,4.6,1.5c2,0.8,4.1,1.6,6.1,2.5c2.3,1,4.4,2.4,6.6,3.6c2.2,1.3,4.1,3.1,6,4.8c0.5,0.4,0.9,1,0.8,1.8
		c-0.2,1.8-0.6,3.5-1.2,5.2c-0.5,1.7-1.3,3.3-2,4.9c-0.9,2-2.1,3.7-3.4,5.4c-0.8,1-1.6,1.8-2.6,2.5c-1.1,0.8-2.2,1-3.4,0.5
		c-1.5-0.7-3.1-1.3-4.6-2c-0.9-0.4-1.8-0.8-2.8-1c-1-0.2-2-0.6-2.9-1c-0.6-0.2-1.3-0.3-2-0.6c-0.9-0.4-2-0.5-2.9-0.9
		c-0.2-0.1-0.3,0-0.5-0.1c-0.2-0.5-0.5-0.7-1.1-0.5c-0.2,0-0.4-0.1-0.6-0.1c-0.3-0.5-0.7-0.5-1.2-0.4c-0.2,0-0.4,0-0.6-0.1
		c-0.2-0.5-0.6-0.5-1-0.3c-0.1,0-0.2,0-0.4,0c-0.4-0.5-0.8-0.6-1.4-0.4c-0.2,0-0.5,0-0.7-0.1c-0.3-0.4-0.6-0.6-1.1-0.3
		c-0.2,0-0.4,0-0.6-0.1c-0.4-0.5-0.9-0.6-1.5-0.4c-0.1,0-0.2,0-0.4,0c-0.4-0.5-0.8-0.6-1.4-0.4c-0.2,0-0.5,0-0.7,0
		c-0.4-0.5-0.9-0.6-1.5-0.4c-0.3,0-0.5-0.1-0.8-0.1c-0.1-0.3-0.2-0.5-0.6-0.5C139,156.6,138.6,156.6,138.3,156.6z M108.6,147.1
		c-0.3,0-0.6-0.1-0.8,0c-0.5,0-0.7-0.2-0.6-0.6c0-0.2,0-0.4,0-0.6c0-2.7,0.2-5.3,0.4-8c0.1-1.2,0.1-2.3,0.1-3.5
		c0-0.7,0.1-0.8,0.8-0.8c1,0,1.1,0,1.1-1.2c0-0.1,0-0.3,0-0.4c0.1-0.6-0.2-0.7-0.7-0.7c-1.2,0-2.4,0-3.6-0.2c-0.3-0.1-0.7,0-1.1,0
		c-0.5,0-0.8,0.3-0.7,0.8c0,0.2,0,0.4,0,0.6c0,0.9,0,1,1,1c0.5,0,0.7,0.1,0.7,0.7c-0.1,1.1,0,2.1-0.1,3.2c-0.1,1.8-0.3,3.6-0.3,5.5
		c0,1,0,2-0.1,3.1c-0.1,0.8-0.1,0.9-0.9,0.9c-0.4,0-0.7,0.1-0.8,0.5c-0.1,0.2-0.1,0.4-0.2,0.6c-0.2,0.7,0.1,1.4,1.1,1.4
		c1.2-0.1,2.3,0,3.5,0c0,0.4,0.1,0.6,0.5,0.6c0.4,0,0.8,0,1-0.5c0.2-0.6,0.4-1.2,0.4-1.8C109.1,147.2,108.9,147.1,108.6,147.1z
		 M115,131.8c-0.1-0.4-0.4-0.6-0.8-0.6c-0.5,0-1.1-0.1-1.6,0.1c-0.2,0.1-0.2,0.4-0.2,0.6c0,0.1,0,0.3,0,0.4c0,0.5-0.2,1.1,0.1,1.5
		c0.3,0.4,0.9,0.1,1.4,0.3c0.1,0,0.1,0.1,0.2,0.2c-0.3,0.3-0.3,0.7-0.3,1.1c0,1.2,0.1,2.5-0.2,3.7c-0.3,1.3-0.3,2.6-0.3,3.9
		c0,0.4,0.1,0.8-0.1,1.2c-0.5,1.2-0.3,2.4-0.4,3.5c0,0.4-0.1,0.8,0,1.2c0,0.3-0.4,0.5-0.1,0.8c0.2,0.3,0.6,0.2,0.9,0.2
		c0.4,0,0.8,0,1.3,0c0.3,0,0.5-0.1,0.5-0.5c-0.1-1.8,0.4-3.6,0.5-5.5c0-1.7,0.2-1.9,1.9-1.6c0.1,0,0.1,0,0.2,0c0.9,0.5,2,0.4,3,0.5
		c1,0,1,0,1.2-1c0-0.2,0.1-0.4,0.2-0.6c0.1-0.3,0-0.6-0.4-0.6c-1,0-2-0.5-3-0.4c-0.6,0-1.1,0-1.7,0c-0.8,0-0.8-0.1-0.8-0.9
		c-0.1-1.5,0.2-2.9,0.4-4.4c0-0.3,0.2-0.5,0.5-0.5c0.8,0,1.7,0,2.5,0.1c1.1,0,1.5,0.3,1.6,1.5c0.1,0.4,0.2,0.6,0.6,0.6
		c0.3,0,0.6,0.1,0.8,0.1c0.8,0.1,0.9,0,1-0.8c0-0.2,0.1-0.5,0.1-0.7c0.5-1.6-0.1-2.6-1.7-2.7c-1.9-0.1-3.7-0.3-5.6-0.5
		C116.2,131.8,115.6,131.8,115,131.8z M47.7,153.6c0.4,0.1,0.7-0.1,0.7-0.5c0.2-0.1,0.5-0.1,0.7-0.2c0.3,0,0.4-0.1,0.5-0.3
		c0.2-0.1,0.5-0.2,0.7-0.4c0.4,0.1,0.6-0.1,0.7-0.5c0.6-0.3,1-0.7,1.4-1.2c1.2-1.4,1.2-1.7-0.3-2.8c0,0,0-0.1-0.1-0.1
		c-0.3-0.2-0.5-0.2-0.8,0.1c-0.7,1-1.6,1.8-2.6,2.5c-2.1,1.2-4.4,1.4-6.5,0.1c-2-1.2-3.2-3.2-3.5-5.5c-0.3-1.9,0.2-3.6,1.6-5.1
		c1.8-1.9,4.1-2.5,6.6-1.9c0.7,0.2,1.1,0.7,1.3,1.4c0.1,0.3-0.1,0.6,0.3,0.7c0.3,0.1,0.7,0.1,0.9-0.1c0.3-0.3,0.7-0.3,1.1-0.3
		c0.1,0,0.3,0,0.4-0.1c0.2-0.5,0.1-1-0.5-1.4c0-0.4-0.1-0.8-0.4-1.2c-0.7-1.1-1.8-1.5-2.9-1.6c-1.7-0.2-3.4-0.1-5,0.4
		c-3.3,0.9-4.9,3.4-6.1,6.4c-0.2,2.1-0.2,4.2,0.7,6.2c0.9,1.8,1.9,3.3,3.7,4.4c1.5,0.9,3.1,1.3,4.7,1.4
		C46.2,154,46.9,153.5,47.7,153.6z M140.8,142.7c0-0.3-0.2-0.4-0.5-0.4c-0.4,0-0.8,0-1.2,0c-0.2-0.1-0.4-0.1-0.3-0.3
		c0.4-1.4,0.4-2.8,0.7-4.2c0.1-0.5,0.2-0.7,0.7-0.7c1.3,0.1,2.6,0.5,3.9,0.5c0.4,0,0.6,0.3,0.6,0.7c0,0.4-0.2,0.9,0.2,1.2
		c0.4,0.3,0.9,0.1,1.3,0.2c0.1,0,0.3,0,0.4,0c0.5,0,0.7-0.1,0.7-0.6c0-0.5,0-1,0.1-1.5c0.3-1,0-1.6-1.1-1.9
		c-1.2-0.4-2.5-0.2-3.6-0.8c-1.4,0.1-2.7-0.4-4-0.5c-0.5,0-0.9,0-1.4-0.3c-0.5-0.2-1.2-0.3-1.6-0.1c-0.4,0.2-0.2,0.8-0.3,1.3
		c-0.1,0.8-0.1,0.8,0.6,1.1c0.7,0.3,1,0.6,0.6,1.3c-0.3,0.6-0.2,1.2-0.3,1.8c0,0.3,0,0.7-0.1,1c-0.4,1.4-0.5,2.9-0.7,4.3
		c-0.2,1.3-0.6,2.6-0.5,4c0,0.2-0.2,0.3-0.2,0.5c-0.3,1.5-0.4,2.8,1.9,3c2,0.2,4,0.7,6,0.9c0.2,0,0.4,0.1,0.6,0.2
		c1.4,0.6,2.6-0.1,2.7-1.7c0-0.4,0-0.8,0.2-1.2c0.2-0.5,0.1-0.7-0.4-0.8c-0.4-0.1-0.8,0-1.1-0.2c-0.7-0.3-0.7-0.3-0.9,0.4
		c-0.2,0.8-0.5,1.1-1.2,1c-1.1-0.3-2.2-0.3-3.3-0.5c-1.7-0.3-1.9-0.7-1.5-2.4c0-0.1,0-0.2,0.1-0.2c0.5-0.6,0.4-1.3,0.4-2
		c0.1-1,0.2-1.1,1.2-1c1.3,0.1,2.5,0.4,3.8,0.5c1.3,0.1,1.3,0.1,1.4-1.2c0.1-0.9,0.1-0.9-0.8-1c-0.5-0.4-1.1-0.6-1.8-0.4
		C141.7,142.7,141.3,142.7,140.8,142.7z M165.6,146.3c0-2.2,0-2.4-0.7-3.9c-1.1-2.5-3.2-3.8-5.6-4.5c-2.3-0.7-4.6-1-6.9-1.4
		c-1.5-0.2-1.6-0.1-1.6,1.4c0,0.5,0.1,0.8,0.7,0.8c0.6-0.1,0.7,0.4,0.6,0.8c-0.2,1-0.3,2-0.6,3c-0.2,0.7-0.1,1.4-0.4,2.1
		c-0.5,1.1-0.4,2.3-0.7,3.4c-0.3,1.2-0.4,2.5-0.8,3.7c-0.2,0.6-0.1,1.3-0.1,2c0,0.4,0.4,0.6,0.6,0.7c0.6,0.2,1,0.6,1.7,0.5
		c0.4,0,0.8-0.1,1.1,0.1c0.9,0.5,2,0.3,2.9,0.6c1.4,0.4,2.9,0.1,4.3-0.4c1.8-0.7,3.2-1.9,4.2-3.7
		C165.3,149.9,165.7,148.1,165.6,146.3z M75.8,131.2c-1.5,0-3.1,0.1-4.6,0.2c-1.3,0.1-1.5,0.2-1.5,1.5c0,1,0,1,0.9,1
		c0.7,0,0.7,0,0.7,0.8c0,1.7,0.1,3.5,0.1,5.2c0,0.8,0.4,1.5,0.4,2.3c0,1.8,0,3.7,0.1,5.5c0,0.7,0.1,1.4,0.6,1.8c0.3,0.3,1,0.1,1.5,0
		c0.5,0,0.9-0.3,0.9-0.8c0-0.7,0.1-1.5-0.1-2.2c-0.4-1.2-0.2-2.5-0.3-3.7c0-0.5,0.2-0.6,0.6-0.6c0.6,0,1.2,0,1.8,0
		c0.7-0.1,1.1,0.3,1.4,0.8c0.9,1.5,1.8,2.9,2.6,4.4c0.6,1.1,1.4,1.6,2.7,1.5c1.6-0.1,1.6,0,1.3-1.6c-0.1-0.5-0.2-0.5-0.6-0.6
		c-0.5-0.1-0.9-0.3-1.2-0.9c-0.6-1.3-1.4-2.6-2.1-3.9c-0.4-0.8-0.5-0.8,0.2-1.2c1.4-1,1.9-2.4,2-4c0.1-0.6-0.3-1.2-0.3-1.7
		c-0.2-1.8-2.4-3.7-4.3-3.7C77.6,131.2,76.7,131.2,75.8,131.2z M60.5,140.5c-0.3,0-0.6,0-0.8,0c-0.7,0-0.7,0-0.8-0.8
		c-0.1-0.8-0.1-1.5-0.3-2.3c-0.2-0.6-0.3-1.4,0-2c0.2-0.4,0.9-0.1,1.4-0.3c0.1,0,0.2,0,0.2,0c0.8-0.5,1.6-0.4,2.4-0.4
		c0.8,0,0.9,0,1.2,0.8c0.2,0.5,0.4,0.7,0.9,0.6c0.4-0.1,0.8,0,1.2-0.1c0.3,0,0.5-0.2,0.4-0.5c0-0.6,0.1-1.3-0.1-1.9
		c-0.3-1.1-0.6-1.6-2-1.6c-0.9,0-1.8,0.3-2.7,0.4c-1,0.2-2,0.2-3,0.3c-1.4,0.2-2.8,0.4-4.1,0.5c-0.8,0.1-0.8,0.1-0.8,0.9
		c0,0.1,0,0.3,0,0.4c0.1,0.8,0.3,1,1.2,1c0.8,0,0.9,0,0.9,0.9c0,1.7,0.6,3.3,0.5,5c0,0.1,0,0.2,0.1,0.3c0.4,1.6,0.5,3.3,0.7,5
		c0.1,1,0.4,2.1,0.5,3.1c0,0.3,0.2,0.4,0.4,0.6c0.4,0.4,0.8,0.3,1.3,0.3c1.6,0,3.2-0.5,4.8-0.6c1-0.1,2-0.3,3-0.4
		c1.4-0.1,1.9-1.1,1.7-2.1c-0.1-0.6-0.3-1.1-0.3-1.7c0-0.4-0.2-0.6-0.6-0.5c-0.3,0-0.7,0-1,0.2c-0.5,0.2-1,0.4-0.9,1.1
		c0.1,0.5-0.3,0.8-0.9,0.8c-0.5,0-1-0.1-1.5,0.1c-0.9,0.4-1.8,0.3-2.7,0.3c-0.7,0-1-0.3-1.1-1c-0.1-1.2,0-2.4-0.4-3.5
		c-0.2-0.5,0-0.7,0.6-0.8c1.6-0.3,3.3-0.2,4.8-0.8c0.3-0.1,0.5-0.1,0.5-0.5c0.1-1.5,0-1.7-1.6-1.6c-0.1,0-0.3,0-0.4,0
		C62.4,140.1,61.5,140.7,60.5,140.5z M94.6,141C94.7,141,94.7,141,94.6,141c0-2.3,0-4.6,0-7c0-0.9,0-0.9,0.9-0.9c0.6,0,1.1,0,1.7,0
		c0.9,0,1.1,0.2,1.3,1.1c0,0.2,0,0.5,0.3,0.5c0.6,0.1,1.3,0.1,1.9,0c0.3-0.1,0.3-0.4,0.3-0.6c0-0.6,0-1.2,0-1.8
		c-0.1-1.1-0.4-1.5-1.6-1.5c-4.2-0.1-8.3,0-12.5-0.1c-0.1,0-0.3,0-0.4,0c-0.6,0.1-1,0.5-1.1,1.1c0,0.4,0,0.8,0,1.2
		c0,2-0.2,1.7,1.8,1.7c0.5,0,0.8-0.1,0.9-0.7c0-0.8,0.2-0.9,1.1-0.9c0.4,0,0.8,0,1.3,0c1.8,0,1.5-0.2,1.5,1.5c0,4.3,0,8.7,0,13
		c0,1.3-0.1,1.2,1.2,1.2c0.2,0,0.5,0,0.7,0c0.7,0,0.7,0,0.8-0.8C94.7,145.6,94.6,143.3,94.6,141z M132.9,133.6
		c-1.4-0.2-2.6-0.6-4-0.5c-0.5,0-1.1,0.1-1.6-0.3c-0.1-0.1-0.3-0.1-0.4,0.1c-0.4,0.6-0.6,1.3-0.4,2c0.1,0.6,0.7,0.4,1.2,0.5
		c0.3,0,0.5,0.2,0.5,0.5c0,0.4,0,0.9-0.1,1.3c-0.2,0.6-0.3,1.2-0.3,1.8c0,1.7-0.6,3.3-0.5,5c0,0.1,0,0.2,0,0.2
		c-0.5,0.6-0.3,1.4-0.4,2.1c-0.1,0.5-0.1,0.9-0.2,1.4c-0.1,0.7-0.3,0.8-1,0.8c-0.9,0-0.9,0-0.9,0.9c0,0.2,0,0.4,0,0.5
		c0,1,0,1.1,1,1.2c1.2,0.1,2.4,0.2,3.6,0.4c0.1,0,0.3,0,0.4,0c0.8,0,0.9-0.1,0.9-0.9c0-0.4,0.1-0.8,0-1.2c-0.1-0.4-0.6-0.1-0.8-0.3
		c-0.1-0.1-0.3-0.2-0.4-0.3c-0.1-0.1-0.2-0.2-0.2-0.3c0.3-1,0.1-2.1,0.3-3.1c0.4-1.7,0.4-3.5,0.6-5.2c0.2-1.2,0.4-2.5,0.5-3.8
		c0-0.4,0.2-0.6,0.6-0.5c0.2,0,0.4,0,0.5,0c0.5,0.1,0.8-0.1,0.8-0.7C132.6,134.7,132.5,134.2,132.9,133.6z"/>
	<path class="st0" d="M139.1,122.7c0.9-1.6,1.7-3.2,2.6-4.7c0.5-0.8,0.7-1.7,1.1-2.5c0.8-1.4,1-3,1.7-4.4c0.3-0.7,0.5-1.3,0.5-2.1
		c0,0,0-0.1,0-0.1c0.7-0.7,0.5-1.6,0.9-2.4c0.1-0.1,0.2-0.3,0.1-0.4c-0.2-1.2,0.6-2.3,0.5-3.5c0-0.3,0.1-0.5,0.3-0.6
		c0.4,0.9,0.8,1.8,1.3,2.7c0.2,0.4,0.4,0.5,0.8,0.5c1.1,0,2.2,0,3.3,0c0.4,0,0.7-0.1,0.9-0.5c0.3-0.5,0.6-1,0.8-1.6
		c1-2.3,2-4.5,3-6.8c0.7-1.4,1.3-2.9,1.8-4.4c0.2-0.5,0.1-1.1,0.7-1.6c0.1,2.1,0.2,4.1,0.4,6c0.4,2.6,0.4,5.2,0.6,7.8
		c0.1,1.5,0.2,2.9,0.4,4.4c0,0.2,0.1,0.4,0.2,0.6c0.5,0.9,1.4,1.3,2.4,1.3c1.3,0,2.6,0,3.9,0c0.9,0,1.1-0.2,1.1-1c0-1,0-2,0-3.1
		c0-0.9-0.2-1-1.1-1c-1.2-0.1-0.9,0-1.2-1c-0.1-0.2,0-0.3-0.1-0.5c-0.2-1.8-0.1-3.6-0.4-5.4c-0.3-1.8-0.1-3.7-0.4-5.6
		c-0.3-1.8-0.2-3.6-0.4-5.4c-0.3-2.3-0.2-4.6-0.6-6.9c-0.1-0.8-0.1-0.8-0.9-0.8c-1.4,0-2.9,0-4.3,0c-0.5,0-0.8,0.1-1,0.7
		c-0.6,1.6-1.4,3.1-2.1,4.7c-0.9,2.2-1.9,4.4-2.8,6.6c-0.6,1.3-1.3,2.6-1.7,4c-0.2,0.7-0.4,1.5-0.9,2.1c-0.1,0-0.2-0.1-0.2-0.1
		c-0.6-1.5-1.1-3.1-1.8-4.5c-0.6-1.3-1.2-2.6-1.7-3.9c-0.3-0.9-0.9-1.7-0.9-2.7c0.1-0.3,0-0.5-0.3-0.5c0-0.2-0.1-0.4-0.1-0.5
		c0.2-0.6,0.1-1.2-0.3-1.8c-0.4-0.5-0.4-1.2-0.6-1.9c-0.5-1.5-1-3-1.6-4.4c-0.7-1.6-1.4-3.1-2.3-4.6c-0.8-1.4-1.6-2.8-2.4-4.1
		c0-0.1-0.1-0.1-0.1-0.2c-1.1-0.6-1.4-1.7-2.1-2.6c-0.8-1-1.8-1.8-2.6-2.8c-0.5-0.5-0.8-1.1-1.4-1.6c-0.8-0.7-1.6-1.6-2.6-2
		c-0.1,0-0.2-0.1-0.2-0.2c-1.6-1.6-3.6-2.7-5.5-3.9c-1.5-0.9-3.1-1.7-4.7-2.4c-1-0.4-2-0.8-2.9-1.2c-0.8-0.3-1.5-0.6-2.3-0.9
		c-1.8-0.6-3.7-1.1-5.6-1.4c-1.8-0.3-3.6-0.8-5.5-0.7c-0.6,0-0.8-0.2-0.7-0.7c0-0.2,0-0.5,0-0.7c0-2.7,0-5.5,0-8.2
		c0-0.6,0.2-1.3-0.5-1.7c0.1-0.5,0.5-0.5,0.9-0.5c0.9,0,1.8,0,2.7,0.1c0.4,0,0.6,0.1,0.8,0.6c0.3,0.8,0.3,1.7,0.7,2.4
		c0.1,0.2,0.2,0.5,0.5,0.4c0.6,0,1.3,0.1,1.9-0.1c-0.2-0.7-0.4-1.5-0.6-2.2c-0.5-2.1-1.1-4.2-1.6-6.3c-0.2-0.8-0.5-1.5-0.6-2.3
		c-0.3-1.8-0.3-1.8-2.1-2c0,0-0.1,0-0.1,0c-0.6-0.2-0.9,0.1-1.1,0.7c-0.6,1.4-1.1,2.7-1.9,4c-0.4,0-0.4-0.3-0.4-0.6
		c0.1-0.9-0.3-1.7-0.6-2.4c-0.6-1.7-1-3.5-2-5.3c1.9,0,3.6,0,5.3,0c1.3,0,2.7-0.2,3.9,0.1c1.5,0.3,3,0.1,4.4,0.7
		c0.1,0.1,0.3,0.1,0.4,0c1.2-0.1,2.3,0.4,3.5,0.6c0.8,0.2,1.7,0.4,2.5,0.6c2.2,0.6,4.3,1.2,6.4,1.9c1.6,0.5,3.2,1,4.7,1.7
		c2,1,4.1,1.9,6.1,3c2,1.1,3.9,2.2,5.8,3.4c2.1,1.3,4.1,2.7,5.9,4.2c1.6,1.4,3.4,2.6,4.7,4.2c0.8,1,1.9,1.8,2.8,2.7
		c1.7,1.7,3.2,3.6,4.8,5.5c1.6,1.9,2.9,4,4.3,6c1.2,1.6,2,3.5,3.1,5.3c1,1.6,1.9,3.4,2.6,5.2c0.8,2.1,1.8,4,2.4,6.2
		c0.5,1.6,1,3.2,1.5,4.9c0.2,0.8,0.4,1.6,0.6,2.4c0.3,1.1,0.1,2.3,0.8,3.3c0.1,0.1,0.1,0.3,0.1,0.4c0,0.8,0.3,1.6,0.3,2.4
		c0.1,1.4,0.5,2.8,0.5,4.2c0,2.3,0.4,4.6,0.4,6.8c0,2.7-0.2,5.4-0.5,8.1c-0.1,1.4-0.4,2.9-0.6,4.4c-0.2,1.3-0.6,2.6-0.8,3.9
		c-0.3,1.4-0.6,2.8-1.1,4.3c-0.4,1.5-0.8,3.1-1.4,4.6c-0.7,2-1.5,3.9-2.3,5.9c-0.3,0.7-0.6,1.3-0.9,2c-0.4,0.7-0.7,0.9-1.4,0.6
		c-3.5-1.6-7.1-2.7-10.7-3.6c-2-0.5-4.1-0.9-6.1-1.5c-1.1-0.3-2.3-0.4-3.4-0.8c-0.2-0.1-0.5-0.1-0.7-0.1c-0.5,0-1-0.2-1.5-0.4
		c0-0.1,0-0.3-0.1-0.3c-1.3-0.7-2.4-1.7-3.7-2.3c0-0.3-0.2-0.4-0.4-0.4c-0.2,0-0.3-0.1-0.4-0.2c0-0.3-0.1-0.5-0.4-0.2
		C139.3,123.1,139.2,123,139.1,122.7z M116.4,31.9c-0.6,0.1-0.6,0.5-0.5,0.9c-0.1,0.5-0.2,1-0.3,1.5c-0.2,0.7-0.5,1.4-0.6,2.1
		c-0.1,0.8-0.3,1.7-0.6,2.3c-0.7,1.5,0.4,3.4,2.3,3.6c0.2,0,0.4,0,0.5-0.1c0.1-0.6,0.6-1,0.5-1.6c0-0.2,0-0.3-0.2-0.4
		c-0.6-0.5-0.8-0.9-0.5-1.5c0.6-1.5,0.8-3,1.2-4.5c0.2-0.7,0.3-1.5,0.6-2.1c0.3-0.6,0.2-1.2,0.4-1.7c0.1-0.4-0.2-0.5-0.6-0.6
		c-0.4-0.6-1.1-0.8-1.6-0.5c-0.2,0.1-0.4,0.3-0.1,0.6c0,0.3-0.1,0.5-0.1,0.8c-0.4,0.2-0.6,0.5-0.4,0.9
		C116.5,31.6,116.5,31.8,116.4,31.9z M145.1,59.6c-0.1,1.4,0.7,2.4,1.4,3.4c0.5,0.7,1.3,1.1,2.1,1.5c0.7,0.3,1,0.2,1.3-0.6
		c0,0,0-0.1,0-0.1c0.4-0.8,0.4-0.8-0.4-1.2c-0.6-0.3-1.1-0.6-1.6-1.1c-0.8-1-0.9-1.8-0.3-2.7c0.3-0.4,0.5-0.5,0.7-0.1
		c0.9,1.2,2,2.2,2.8,3.5c0.6,0.9,1,0.9,1.8,0.2c0.2-0.2,0.5-0.5,0.7-0.8c1-1.6,1.2-2.8,0.3-4.4c-0.8-1.5-2.3-2-3.7-2.4
		c-0.3-0.1-0.6-0.1-0.9,0.2c-0.2,0.2-0.4,0.2-0.7,0.2C147.2,55.3,144.9,57.7,145.1,59.6z M136.4,42.3c0-0.9,0-0.9-0.7-1.4
		c-0.2-0.1-0.4-0.3-0.6-0.5c-0.3-0.4-0.6-0.2-0.8,0.1c-0.8,1.3-1.7,2.5-2.4,3.8c-0.5,0.9-1.2,1.6-1.7,2.4c-0.5,0.8-0.5,1.2,0.3,1.6
		c1.1,0.7,1.4,0.6,2.1-0.5c0.1-0.1,0.1-0.2,0.1-0.3c0.7-0.9,1.1-2,2.1-2.7c1.2-0.9,1.9-1,3.1,0c0.5,0.4,0.6,0.9,0.3,1.3
		c-0.9,1.2-1.7,2.5-2.5,3.7c-0.9,1.4-0.9,1.4,0.5,2.3c0.5,0.4,0.7,0.1,1-0.2c0.4-0.4,0.6-0.9,0.9-1.4c0.9-1.1,1.8-2.3,2.4-3.6
		c0.9-1.8,0.3-3.2-1.4-4.2C138.1,42.3,137.3,42.4,136.4,42.3z M128.4,47.1c0.2-0.3,0.4-0.6,0.6-0.9c0.6-1.3,1-2.6,1.8-3.8
		c0.6-0.9,0.6-1.8,0.5-2.8c0-0.3-0.1-0.6-0.3-0.9c-1.2-1.4-2.6-2.2-4.5-2.3c-1.1,0-1.3,0.2-1.2,1.3c0.1,0.7,0.1,0.8,0.9,0.8
		c0.7,0,1.3,0.1,1.9,0.4c0.6,0.4,0.8,0.8,0.8,1.4c0,0.4-0.3,0.5-0.6,0.3c-0.5-0.4-1.1-0.4-1.6-0.6c-1.1-0.4-2.1-0.4-3.2,0
		c-0.6,0.2-0.8,0.6-1.1,1c-0.2,0.5-0.6,1-0.5,1.6c0.3,1.4,1.3,2.8,3,2.8c0.4,0,0.8,0,1.3,0c0.2,0,0.4,0.1,0.3,0.3
		c-0.2,0.4,0.1,0.5,0.4,0.6C127.4,46.5,127.9,46.8,128.4,47.1z M143.7,48.1c-3.2-0.1-4.6,2.2-4.9,4.7c-0.2,1.6,1.4,3.8,2.9,4.5
		c0.7,0.3,1.4,0.6,2.1,0.5c0.5-0.1,0.8-0.5,0.8-1.2c0.1-0.6-0.3-0.6-0.7-0.7c-0.3,0-0.7-0.2-1-0.4c-1.5-0.8-2.4-2.2-1.4-3.8
		c0.5-0.9,1.3-1.4,2.3-1.4c1,0,1.8,0.4,2.3,1.4c0.2,0.4,0.4,0.7,0.4,1.2c0,0.3,0.2,0.4,0.5,0.4c0.6,0,1-0.3,1.4-0.6
		c0.3-0.2,0.2-0.8-0.2-1.1c0,0-0.1-0.1-0.1-0.2C147.5,49.3,145.9,48.1,143.7,48.1z M109.9,38.3c0,0.2,0,0.5,0,0.7c0,1,0.5,1.6,1.3,2
		c1.1,0.5,1.7,0.3,2-0.9c0.2-0.6,0.1-1-0.5-1.2c-0.3-0.1-0.6-0.4-0.5-0.8c0.3-1.3,0.6-2.6,0.8-3.9c0.3-1.4,0.6-2.7,0.8-4.1
		c0.1-0.5,0.6-1,0.1-1.5c-0.4-0.4-1-0.2-1.5-0.4c0,0-0.1,0-0.1,0c-0.4-0.1-0.6,0-0.7,0.5c0,0.8-0.3,1.6-0.5,2.5
		c-0.2,0.9-0.3,1.9-0.5,2.8C110.3,35.4,109.9,36.8,109.9,38.3z M120.1,43.3c0.2,0,0.5-0.1,0.6-0.5c0.8-2.4,1.6-4.7,2.4-7.1
		c0.1-0.3,0.2-0.7-0.2-0.9c-0.5-0.2-1-0.6-1.7-0.5c-0.1,0-0.1,0.1-0.1,0.2c-0.1,0.3-0.4,0.5-0.4,0.8c0,0.6-0.3,1.2-0.5,1.7
		c-0.9,1.7-1.1,3.6-1.9,5.3c-0.1,0.2-0.1,0.4,0.2,0.5C119,43,119.4,43.3,120.1,43.3z M124.7,31.7c-0.4-0.2-0.8-0.3-1.1-0.5
		c-0.4-0.2-0.9-0.3-1.3-0.1c-0.3,0.1-0.2,0.6-0.3,0.8c0,0.1,0,0.1-0.1,0.2c-0.3,0.3,0,0.5,0.1,0.8c0.3,0.4,0.7,0.3,1.1,0.5
		c0.7,0.3,1,0.2,1.1-0.6C124.3,32.5,124.5,32.1,124.7,31.7z"/>
	<path class="st13" d="M102.1,38.9c0,2.7,0,5.5,0,8.2c-0.4,0-0.6,0.1-0.6,0.6c0,0.2,0,0.5,0,0.7c-2.2,0-4.4,0-6.5,0.2
		c-2.2,0.2-4.4,0.6-6.6,0.9c-0.3,0-0.6,0.3-0.9,0.3c-1.5,0.2-2.8,0.7-4.2,1.2c-0.7,0.2-1.3,0.8-2.1,0.9c-0.7,0.1-1.3,0.4-1.9,0.7
		c-1.8,0.9-3.6,1.9-5.4,2.9c-2.3,1.3-4.2,3.1-6.3,4.6c-1,0.7-1.7,1.7-2.6,2.5c-1.8,1.7-3.2,3.8-4.9,5.8c-0.1,0.1-0.1,0.2-0.2,0.3
		c-0.3,0.9-0.8,1.6-1.4,2.3c-1,1.2-1.5,2.7-2.2,4c-0.8,1.4-1.2,2.9-1.8,4.4c-0.8,1.8-1.3,3.6-1.6,5.5c0,0.1,0,0.2-0.1,0.3
		c-0.4,0.5-0.3,1-0.3,1.6c0,0.2,0,0.5-0.1,0.6c-0.4,0.4-0.3,1-0.4,1.5c0,0.2-0.1,0.4-0.4,0.4c-0.2-1.2-0.8-2.2-1.2-3.3
		c-0.7-1.9-1.4-3.8-2-5.8c-0.1-0.4-0.3-0.9-0.9-0.9c-1.6,0-3.2,0-4.9,0c-0.4,0-0.7,0.2-0.8,0.7c0,0.2-0.1,0.4-0.2,0.6
		c-0.4,1-0.7,1.9-1.1,2.9c-0.5,0.1-0.3,0.5-0.4,0.9c0,0.1,0,0.1,0,0.2c-0.7,0.2-0.7,0.3-0.4,0.8c0,0.1,0,0.3-0.1,0.4
		c-0.3,0.1-0.7,0.2-0.3,0.6c0,0.1,0,0.3-0.1,0.4c-0.5,0.2-0.7,0.5-0.4,1c0,0.1,0,0.3-0.1,0.4c-0.2,0-0.6,0-0.3,0.4
		c0,0.1,0,0.3-0.1,0.4c-0.4,0.2-0.7,0.4-0.4,0.8c0,0.1,0,0.3,0,0.4c-0.1,0-0.2,0-0.4,0c-0.7,0-1.4-0.3-2.1-0.5
		c-1.2-0.3-2.3-0.8-3.4-1.3c-1.4-0.6-2.7-1.4-4-2.1c-1-0.6-2-1.2-3.2-1.5c0.1-1,0.3-2,0.7-2.9c0.3-0.6,0.3-1.3,0.4-1.9
		c0.5-2.6,1.5-5.1,2.3-7.7c0.4-1.2,1-2.3,1.6-3.5c1.5-3.4,3.2-6.7,5.2-9.9c0.7-1.2,1.6-2.2,2.3-3.4c1-1.5,2.1-2.9,3.3-4.3
		c0.7-0.9,1.4-1.8,2.2-2.7c2.1-2.4,4.3-4.6,6.7-6.6c1.6-1.4,3.2-2.8,5-4c0.9-0.6,1.6-1.3,2.5-1.8c1.5-1,3-1.9,4.5-2.8
		c2-1.2,4.1-2.2,6.3-3.2c2.3-1.1,4.5-2.1,6.9-2.8c1.5-0.5,3-0.9,4.5-1.4c1.2-0.4,2.4-0.5,3.6-0.9c1-0.4,2-0.1,2.9-0.7
		c0,0,0.1,0,0.1,0c1.3,0.1,2.4-0.5,3.7-0.5c0.8,0,1.6,0.1,2.4-0.3c0.3-0.2,0.8-0.1,1.3-0.1c1.1,0,2.2,0,3.3,0c0.5,0,1,0.1,1.5-0.3
		c0.1-0.1,0.4-0.1,0.6-0.1c1.4,0,2.8,0,4.1,0c0.3,0,0.7,0,0.8,0.4c-1.7,0-3.4,0-5.3,0c1,1.8,1.4,3.5,2,5.3c0.2,0.7,0.7,1.5,0.6,2.4
		c0,0.3,0,0.6,0.4,0.6c-0.4,1.1-0.8,2.3-1.3,3.3c-0.5,1.1-0.8,2.2-1.4,3.2c-0.4,0.6-0.4,0.6,0.3,0.9c0.1,0.1,0.2,0.2,0.4,0.2
		c0.7,0.3,1.3,0.1,1.7-0.6c0.2-0.3,0.4-0.7,0.4-1.1c0-0.2,0.2-0.3,0.3-0.3c0,0.3,0,0.6,0,0.8C101.5,38.8,101.7,38.9,102.1,38.9z
		 M81.7,33.6c-0.2-0.1-0.4-0.3-0.5-0.5c-0.1-0.1-0.2-0.3-0.3-0.2c-0.4,0.4-0.9,0.2-1.4,0.3c-0.4,0.1-0.6,0.2-0.5,0.7
		c0.4,1.1,0.5,2.3,0.7,3.4c0.1,0.4,0,0.8,0.4,1.2c0.1,0.1,0.2,0.4,0.2,0.6c-0.1,0.9,0.4,1.7,0.5,2.6c0,0.4,0.2,0.5,0.5,0.5
		c0.5-0.1,1-0.2,1.4-0.3c0.2-0.1,0.6-0.2,0.4-0.5c-0.4-0.7-0.2-1.4-0.4-2c-0.5-1-0.3-2.1-0.3-3.1c0-1,0.5-1.6,1.5-1.8
		c0.5-0.1,0.8,0,1.1,0.5c0.6,1.1,0.5,2.3,0.7,3.4c0.2,0.8,0.6,1.5,0.5,2.3c0,0.1,0.1,0.2,0.3,0.3c0.3,0.1,1.8-0.2,2-0.5
		c0.1-0.1,0.2-0.2,0.1-0.4c-0.2-0.5,0-1.2-0.2-1.7c-0.5-1.2-0.3-2.4-0.3-3.6c0-0.6,0.7-1.4,1.2-1.5c0.6-0.2,1.1,0.1,1.3,0.7
		c0.4,1.4,0.8,2.7,0.9,4.1c0,0.6,0.3,1.2,0.6,1.6c0.1,0.2,0.8-0.1,1.2-0.1c0,0,0.1,0,0.1,0c0.6-0.1,0.8-0.3,0.7-0.8
		c-0.1-0.7-0.2-1.4-0.3-2.1c-0.2-0.9-0.5-1.8-0.6-2.7c0-0.8-0.3-1.4-0.7-2.1c-0.4-0.7-1-1-1.8-1.1c-1.2-0.1-2.4,0-3.2,1.2
		c-0.1,0.1-0.3,0.2-0.4,0.3c-0.3,0.4-0.6,0.3-1,0.1c-1.4-0.9-2.5-0.9-4,0.6C82.1,33.3,82,33.6,81.7,33.6z M57.8,55.1
		c0.3-1-0.3-1.8-0.9-2.4c-0.6-0.6-1.3-1.1-2.4-1.1c-1.3,0-2.3,0.6-3.4,1.1c-0.6,0.2-1.2,0.3-1.8,0.5c-0.7,0.2-1.3-1.2-0.9-1.8
		c0.4-0.6,0.9-1.2,1.7-1.5c1.6-0.5,1.5-0.5,1-2.1c-0.2-0.6-0.5-0.6-0.9-0.5c-0.4,0.2-0.9,0.2-1.2,0.5c-1.2,1-2.6,1.8-3,3.6
		c-0.3,1.4,0.3,3,1.6,3.8c1.5,0.8,2.9,0.5,4.3-0.2c0.8-0.4,1.7-0.8,2.6-0.8c0.4,0,0.7,0.2,0.8,0.5c0.2,0.7,0.1,1.5-0.5,2
		c-0.6,0.6-1.4,0.9-2.3,1c-0.5,0.1-0.7,0.3-0.6,0.8c0,0.3,0,0.7,0.2,1c0.4,0.8,0.4,0.8,1.2,0.4c0.1,0,0.3-0.1,0.4-0.1
		c1.7-0.4,2.9-1.4,3.7-2.9C57.8,56.4,58,55.8,57.8,55.1z M77.4,42.9c0.5,0.7,0.5,0.7,0.9,0.5c0.2-0.1,0.5-0.1,0.7-0.2
		c0.6-0.2,0.8-0.6,0.6-1.2c-0.9-2.1-1.7-4.2-2.6-6.3c-0.6-1.5-0.6-1.5-2.1-0.7c-0.7,0.3-0.6,0.3-0.4,1.2c0.2,0.6,0.4,1.2,0.7,1.7
		c0.4,0.8,0.7,1.7,0.8,2.6c0.1,1-0.5,2-1.4,2.3c-0.4,0.1-0.9,0.1-1.2-0.3c-0.4-0.6-0.8-1.2-1.1-1.9c-0.4-1-0.8-2-1.3-3
		c-0.3-0.6-0.7-0.8-1.2-0.5c-0.4,0.2-0.9,0.3-1.3,0.6c0.9,2.1,1.7,4.2,2.6,6.2c0.3,0.6,0.8,1.3,1.6,1.4c1.3,0.3,2.5,0,3.5-0.9
		C76.6,44.1,77,43.5,77.4,42.9z M63.7,47.7c0,0.7-0.3,1.2-0.6,1.7c-0.5,1-1.7,1.6-2.8,1.3c-1.1-0.2-2.3-1.4-2.4-2.3
		c-0.1-1.2,1.4-2.8,2.7-2.9c0.8-0.1,0.8-0.1,0.8-0.9c0-0.1,0-0.3,0-0.4c0-0.7-0.2-0.8-0.8-0.8c-0.2,0-0.5,0-0.7,0.1
		c-1.6,0.4-2.9,1.4-3.7,2.8c-0.6,0.9-0.6,3.1-0.1,4.1c0.7,1.3,1.6,2.2,3.1,2.7c1.3,0.5,2.4,0.1,3.5-0.3c1.2-0.4,2-1.5,2.5-2.6
		c0.6-1.1,0.3-1.6-0.9-2C64.1,48,64,47.9,63.7,47.7z M64.2,40.2c-0.3,0.5-0.8,0.6-1.2,0.8c-0.4,0.3-0.5,0.6-0.3,1
		c0.4,0.8,0.8,1.5,1.3,2.3c0.7,1.2,1.6,2.4,2.3,3.7c0.7,1.2,0.8,1.3,2.1,0.6c0.6-0.4,0.7-0.7,0.3-1.4c-0.6-0.9-1.2-1.9-1.6-2.9
		c-0.6-1.2-0.4-2.4,0.6-3.3c0.1-0.1,0.3-0.2,0.4-0.4c0.1-0.1,0.2-0.3,0.1-0.5c-0.3-0.4-0.5-0.9-0.8-1.3c-0.1-0.2-0.3-0.4-0.7-0.1
		c-0.7,0.6-1.5,1.1-1.4,2.2c0,0.1,0,0.2-0.2,0.2C64.8,40.9,64.5,40.6,64.2,40.2z"/>
	<path class="st2" d="M173.5,51c0,0.3,0,0.7-0.1,1c-0.3,0-0.4,0.2-0.4,0.5c0,0.4,0,0.8,0,1.2c0,0.3,0,0.5,0,0.8
		c-0.2,0-0.4,0.2-0.4,0.4c0,0.4-0.1,0.9,0,1.3c0,0.2,0,0.4,0,0.6c-0.3,0.2-0.4,0.4-0.4,0.8c0,0.5,0,0.9,0,1.4c0,0.1,0,0.2,0,0.3
		c-0.1,0.3,0.1,0.5,0.4,0.4c1,0.2,2,0.7,3,1.1c0.9,0.4,1.9,0.7,2.8,1.1c1.1,0.5,2.2,0.9,3.2,1.5c-0.4,1.2-0.8,2.4-1.2,3.5
		c-0.5,1.3-0.9,2.7-1.4,4c-0.2,0.5-0.3,1.1-0.6,1.6c-0.2,0.3-0.1,0.7,0.4,0.9c1.3,0.8,2.6,1.6,3.9,2.4c1.3,0.8,2.5,1.8,3.8,2.5
		c0.3,0.2,0.3,0.4,0.1,0.8c-0.5,1-1.2,2-1.8,3c-1,1.7-1.8,3.4-2.9,5c-0.2,0.3-0.2,0.7,0.2,0.9c0.7,0.3,1.1,0.9,1.6,1.4
		c1.7,1.6,3.3,3.2,5,4.7c0.5,0.4,0.4,0.4-0.1,1c-1,1.1-1.9,2.2-2.8,3.3c-1,1.1-1.9,2.3-2.9,3.4c-0.5,0.6-0.4,0.6,0,1.2
		c1.7,2.5,3.6,4.7,5.3,7.2c0.3,0.5,0.1,0.7-0.1,0.9c-1.3,1.1-2.6,2.2-4,3.3c-1,0.8-2.1,1.7-3.1,2.5c-0.4,0.3-0.3,0.6-0.1,1
		c0.3,0.6,0.7,1.1,1,1.7c1,2.1,2.1,4.2,3.1,6.3c0.2,0.4,0.2,0.6-0.2,0.8c-1.9,1-3.7,2.1-5.6,3.1c-0.7,0.4-1.5,0.8-2.2,1.2
		c-0.4,0.2-0.4,0.5-0.5,0.8c-0.1,0.6,0.3,1.1,0.5,1.7c0.3,1.3,0.6,2.7,1.2,4c0.1,0.3,0.1,0.6,0,0.9c-1.7-1.3-3.7-2.2-5.6-3.2
		c-0.5-0.2-0.8-0.7-1.4-0.7c-0.3,0-0.3-0.4-0.2-0.6c0.9-1.6,1.5-3.2,2.2-4.9c0.4-1,0.8-2,1.1-3c0.1-0.6,0.5-1,0.7-1.6
		c0.4-1.5,0.8-3,1.3-4.5c0.4-1.5,0.6-3,1.1-4.4c0.2-0.7,0.3-1.4,0.3-2.1c0.1-1.3,0.5-2.6,0.7-3.9c0.3-2.2,0.3-4.3,0.6-6.5
		c0-0.2,0-0.5,0-0.7c0-1.1,0-2.1,0-3.2c0.1-2.5-0.2-5-0.3-7.5c0-1.2-0.2-2.4-0.5-3.5c-0.5-2.1-0.7-4.3-1.3-6.5
		c-0.4-1.4-0.7-2.8-1.1-4.2c-0.3-1.1-0.6-2.3-1-3.4c-0.5-1.3-0.9-2.6-1.4-3.8c-0.6-1.4-1.2-2.8-1.8-4.2c-0.7-1.7-1.7-3.3-2.6-5
		c-1-2-2.3-3.8-3.5-5.7c-1.7-2.6-3.7-5.1-5.7-7.5c-2-2.3-4.2-4.4-6.3-6.6c-1.2-1.2-2.6-2.3-3.9-3.4c-1.9-1.5-3.9-3-6-4.4
		c-1.7-1.2-3.5-2.2-5.3-3.2c-2.3-1.3-4.6-2.4-7-3.4c-1.1-0.5-2.2-1.1-3.4-1.5c-1-0.4-2.1-0.7-3.1-1c-1.2-0.4-2.4-0.7-3.6-1.1
		c-0.8-0.2-1.6-0.5-2.4-0.6c-0.6,0-1.1-0.6-1.8-0.4c-0.2-0.6-0.6-0.7-1.2-0.5c-0.4,0-0.8,0.1-1.1-0.1c-0.3-0.3-0.6-0.5-1-0.3
		c-0.4,0-0.8,0-1.2-0.1c-0.4-0.3-0.9-0.6-1.5-0.3c-0.5,0-1-0.1-1.5-0.1c-0.8-0.4-1.6-0.6-2.5-0.4c-0.8-0.1-1.6,0.1-2.4-0.1
		c-0.1-0.1-0.2-0.2-0.3-0.2c-1,0-2-0.3-3-0.2c-1.2,0.1-2.4-0.1-3.6,0c-1.1,0.1-1.7-0.3-1.9-1.3c0-0.2-0.2-0.4-0.3-0.6
		c-0.9-1.3-1.8-2.6-2.6-4c-0.5-0.8-1.1-1.5-1.6-2.3c-0.3-0.4,0.1-0.4,0.3-0.5c1.6,1.4,3.6,2.4,5.1,3.9c0,0,0.1,0.1,0.1,0.2
		c0.4,0.3,0.9,0.8,1.3,0.9c0.6,0.1,0.9-0.5,1.3-0.9c1.7-1.6,3.7-2.8,5.3-4.5c0.4-0.4,1-0.5,1.3-1c0.9,0.5,1.3,1.3,2,2
		c1.5,1.6,2.9,3.2,4.3,4.8c0.8,0.9,0.8,0.8,1.8,0.3c1.1-0.6,2.2-1.2,3.3-1.8c0.4,0.1,0.6-0.1,0.7-0.5c0.1,0,0.2-0.1,0.3-0.1
		c0.9-0.2,1.7-0.8,2.5-1.2c0.1,0,0.1-0.2,0.1-0.3c0.1,0,0.2-0.1,0.3-0.1c0.3,0.2,0.6,0.1,0.9,0.1c0.1,0.2,0.3,0.4,0.4,0.6
		c0,0.3,0,0.6,0.4,0.6c0,0.1,0,0.1,0,0.2c-0.1,0.5,0.1,0.7,0.5,0.7c1.2,1.8,2.1,3.7,3.3,5.5c0.4,0.6,0.7,0.6,1.2,0.4
		c1.2-0.4,2.5-0.8,3.7-1.2c1.1-0.4,2.2-0.8,3.4-1.1c0.5-0.2,0.8-0.6,1.4-0.5c0.3,0.1,0.6,0.1,0.7,0.5c0.4,1.1,0.9,2.1,1.3,3.2
		c0.5,1.4,1,2.7,1.5,4.1c0.1,0.4,0.4,0.8,0.5,1.3c0.1,0.5,0.7,0.4,1.1,0.4c1.2-0.2,2.4-0.3,3.6-0.5c1.6-0.2,3.2-0.5,4.8-0.7
		c0.7-0.1,1.1,0.1,1.2,0.9c0,1.2,0.4,2.3,0.6,3.4c0.2,1.1,0.2,2.4,0.8,3.5c0.2,0.3,0.1,0.8,0.1,1.2c0.1,0.7,0.4,0.9,1.1,1
		c2.7,0.2,5.4,0.2,8.1,0.2c1.2,0,1.5,0.3,1.5,1.6c0,2.7,0,5.4,0,8.1c0,0.5,0.1,0.8,0.7,0.9c0.5,0,1,0.5,1.6,0.4
		c0.4,0.7,0.4,0.7,1.4,0.5c0.2,0,0.5,0,0.7,0c0.4,0.5,0.8,0.6,1.4,0.4c0.2,0,0.5,0,0.7,0c0.4,0.5,0.8,0.6,1.4,0.4c0.2,0,0.5,0,0.7,0
		c0.1,0.1,0.1,0.2,0.2,0.3c0.7,0.2,0.8,0.7,0.7,1.4C173.4,50.7,173.5,50.9,173.5,51z"/>
	<path class="st14" d="M71.8,157.1c0.4-0.2,0.9-0.1,1.4-0.1c0.5-0.1,1.1,0.1,1.6-0.3c0.2-0.1,0.5-0.1,0.8-0.1c2.3,0,4.7,0,7-0.1
		c0.4,0,0.8,0.1,1.2-0.3c0.2-0.2,0.5-0.1,0.8-0.1c7.9,0,15.9,0,23.8,0c0.4,0,0.8,0,1.2,0.3c0.2,0.2,0.5,0.1,0.8,0.1
		c1.1,0,2.3,0,3.4,0.1c0.8,0,1.6,0,2.4,0.3c0.7,0.3,1.6,0.2,2.4,0.2c1.9,0,3.7,0.4,5.6,0.5c1.7,0.1,3.3,0.4,5,0.7
		c3,0.4,5.9,0.9,8.8,1.4c1.1,0.2,2.3,0.2,3.3,0.8c0.1,0,0.1,0,0.2,0c1-0.2,1.9,0.5,3.2,0.5c-0.7,0.6-1.2,1-1.8,1.4
		c-1.3,0.8-2.5,1.6-3.7,2.4c-1.2,0.8-2.5,1.4-3.8,2.1c-1.4,0.7-2.7,1.5-4.1,2.1c-0.8,0.4-1.6,0.7-2.5,1c-1.3,0.6-2.7,1.1-4,1.6
		c-2.8,0.9-5.7,1.8-8.6,2.4c-1.8,0.3-3.6,0.5-5.3,1c-1.4,0.4-2.8,0.1-4.1,0.5c-2.1,0.5-4.2,0.3-6.3,0.3c-2.1,0.1-4.2,0-6.3,0
		c-0.4,0-0.8,0-1.1-0.2c-0.1-0.1-0.4-0.1-0.6-0.1c-0.7,0-1.4-0.1-2.1,0c-0.8,0.1-1.3-0.4-2-0.5c-3-0.3-6-1-9-1.8
		c-1.7-0.4-3.4-0.9-5-1.5c-0.6-0.3-1.2-0.7-1.9-0.7c-0.2,0-0.2-0.2-0.2-0.3c0.1-0.6-0.4-1-0.4-1.6c0.1-1.8-0.2-3.6-0.3-5.4
		C71.6,161.4,72,159.3,71.8,157.1z"/>
	<path class="st15" d="M24.9,85.3c1.2,0.3,2.2,0.9,3.2,1.5c1.3,0.8,2.6,1.6,4,2.1c1.1,0.5,2.3,1,3.4,1.3c0.7,0.2,1.3,0.6,2.1,0.5
		c0.1,0.4-0.4,0.7,0,1.1c0,0.1,0,0.3-0.1,0.4c-0.4,0.1-0.4,0.4-0.4,0.7c0,0.1,0,0.3-0.1,0.4c-0.4,0.2-0.6,0.4-0.4,0.9
		c0,0.1,0,0.3-0.1,0.4c-0.5,0-0.6,0.3-0.5,0.7c0.1,0.5-0.3,0.9-0.4,1.4c-0.3,1-0.6,2.1-1,3c-0.6,1.4-1,2.9-1.5,4.3
		c-0.3,0.8-0.6,1.3-1.5,1.3c-0.5,0-0.7,0.2-0.7,0.7c0,1.3,0,2.5,0,3.8c0,0.5,0.2,0.7,0.7,0.7c1.1,0,2.2,0.1,3.3,0
		c1.2-0.1,2.1-0.6,2.7-1.7c0.7-1.4,1-2.9,1.6-4.4c0.2-0.6,0.2-1.3,0.9-1.7c3.3,0,6.6,0,10,0c0.1,0.3,0.1,0.5,0.2,0.8
		c0.2,0.7,0.6,1.3,0.9,1.9c0.4,1.1,0.7,2.2,1.2,3.2c0.3,0.5,0.9,0.8,1,1.4c0.8,2.1,1.7,4,2.4,6.1c0.5,1.4,1.4,2.6,2,3.9
		c0.8,1.5,1.9,2.8,2.7,4.4c0.2,0.3,0.2,0.6,0.2,0.9c-1.5,0-3,0.5-4.5,0.6c-0.8,0.1-1.8,0.1-2.5,0.4c-1.1,0.5-2.3,0.3-3.5,0.6
		c-1,0.3-2,0.6-3.1,0.6c-0.9,0-1.6,0.5-2.5,0.7c-2,0.4-4,0.9-5.9,1.5c-1.6,0.5-3.3,0.9-4.9,1.6c-0.7,0.3-1.5,0.5-2.2,0.9
		c-0.5,0.3-0.8,0.1-1.1-0.5c-0.6-1.2-0.9-2.5-1.6-3.6c-0.3-0.5-0.4-1-0.6-1.5c-0.4-1.1-0.8-2.2-1.1-3.3c-0.2-0.6-0.4-1.2-0.5-1.8
		c-0.3-1.2-0.6-2.4-1-3.6c-0.6-2.2-0.9-4.3-1.3-6.5c-0.2-1.2-0.2-2.4-0.4-3.7c-0.7-4.5-0.4-9.1-0.3-13.6c0.1-1.8,0.3-3.6,0.6-5.4
		C24.5,87.5,24.7,86.4,24.9,85.3z"/>
	<path class="st16" d="M91.6,11.6c-0.2,0.1-0.5,0.1-0.3,0.5c0.5,0.8,1.2,1.5,1.6,2.3c0.8,1.3,1.7,2.6,2.6,4c0.1,0.2,0.2,0.4,0.3,0.6
		c0.3,1,0.8,1.4,1.9,1.3c1.2-0.1,2.4,0,3.6,0c1,0,2,0.3,3,0.2c0.2,0,0.2,0.1,0.3,0.2c-0.4,0.2-0.9,0.1-1.4,0.1c-3-0.2-6-0.1-9.1,0
		c-1.9,0.1-3.9,0.4-5.8,0.5c-1.6,0.2-3.3,0.5-4.9,0.8c-1.3,0.3-2.6,0.6-3.8,0.9c-1.5,0.4-3,0.7-4.4,1.3c-1.4,0.5-2.8,0.9-4.1,1.5
		c-2.5,1-4.9,2.1-7.3,3.2c-1.7,0.8-3.3,1.8-5,2.8c-0.6,0.3-1.1,0.6-1.7,1c-1.5,1.1-3.1,2.1-4.6,3.2c-1.8,1.3-3.6,2.7-5.3,4.2
		c-1.5,1.4-3.1,2.7-4.5,4.3c-1.9,2.1-3.9,4.2-5.6,6.5c-1.6,2.2-3.2,4.4-4.6,6.7c-1,1.5-1.9,3.1-2.7,4.7c-0.7,1.2-1.5,2.4-1.9,3.6
		c-0.7,1.9-1.6,3.6-2.3,5.5c-0.6,1.7-1.2,3.4-1.7,5.2c-0.3,1.1-0.5,2.2-0.9,3.3c-0.3,1.1-0.5,2.2-0.8,3.2c-2-1.2-3.6-2.8-5.3-4.4
		c-0.4-0.3-0.7-0.5-1.2-0.5c0.5-0.5,1.1-0.9,1.7-1.2c0.6-0.3,1-0.8,1.6-1.1c0.5-0.2,0.6-0.7,0.4-1.3c-0.6-1.5-1.2-3-1.8-4.5
		c-0.5-1.2-1-2.4-1.5-3.7c-0.2-0.6-0.1-0.9,0.6-1.2c1.4-0.6,2.7-1.2,4.1-1.7c1.4-0.5,2.7-1.3,4-1.9c0.2-0.1,0.3-0.2,0.3-0.4
		c0-0.2,0-0.4,0-0.6c-0.2-1.1-0.4-2.3-0.7-3.4c-0.2-0.6-0.1-1.3-0.2-1.9c-0.2-1,0.4-1.8,1.1-2.4c0.8-0.7,1.5-1.5,1.9-2.5
		c0.3,0,0.5,0,0.8-0.1c0.4,0,1,0.3,1.1-0.4c0.3,0,0.5,0,0.8,0c0.4,0,0.9,0.2,1-0.4c0.3-0.1,0.7-0.1,1-0.1c0.5,0.3,0.8,0,1.1-0.3
		c0.6-0.2,0.4-0.7,0.4-1.1c0-2.8,0-5.6,0-8.4c0-0.2,0-0.4,0-0.5c0-0.3,0.1-0.6,0.5-0.5c1.8,0.2,3.6-0.5,5.4-0.4c1.1,0,2.1,0,3.2,0
		c1,0,1.3-0.3,1.5-1.2c0-0.2,0-0.4,0-0.6c0.1-0.6-0.1-1.3,0.3-1.8c0.1-0.1,0.1-0.3,0.1-0.4c-0.1-1.4,0.5-2.7,0.5-4.1
		c0-0.6,0.4-1.2,0.4-1.8c0-0.3,0.3-0.3,0.6-0.3c2.5,0.5,5,0.5,7.5,1c0.4,0.1,0.8,0.1,1.2,0.1c1.1,0.1,1.1,0.1,1.4-0.9
		c0.5-1.4,0.8-2.9,1.4-4.2c0.3-0.7,0.2-1.4,0.8-2c0.4-0.4,0.4-1.1,0.6-1.6c0.2-0.6,0.5-0.8,1.1-0.6c2.7,0.8,5.3,1.6,8,2.5
		c0.2,0.1,0.3,0.1,0.5,0.2c0.4,0.3,0.6,0.3,0.9-0.3c0.9-1.8,1.9-3.6,3-5.3c0.5-0.8,0.9-1.6,1.4-2.4c0.4-0.7,0.5-0.7,1.3-0.4
		c1.4,0.7,2.8,1.4,4.2,2.2c1.2,0.6,2.4,1.2,3.5,1.8c0.4,0.2,0.7,0.2,1.1-0.2c0.7-0.7,1.3-1.5,1.9-2.2c0.9-1.2,1.9-2.2,2.9-3.3
		c0.3-0.4,0.7-0.8,1-1.2c0.2-0.2,0.4-0.5,0.6-0.3C90.7,10.9,91.4,10.8,91.6,11.6z"/>
	<path class="st17" d="M98.1,187.7c-0.7-0.5-1.3-1.2-1.9-1.8c-0.9-0.9-1.8-1.8-2.8-2.5c-0.4-0.3-0.7-0.3-1,0
		c-1.3,0.9-2.7,1.6-3.9,2.6c-1.1,0.9-2.4,1.5-3.5,2.3c-0.3,0.2-0.6,0.1-0.9-0.2c-0.9-1.1-1.8-2.3-2.6-3.5c-0.5-0.7-1-1.5-1.8-2.1
		c-0.5-0.4-0.6-1-1-1.5c-0.5-0.6-0.5-0.6-1.2-0.3c-0.7,0.3-1.3,0.6-2.1,0.7c-0.2-1.1-0.8-2-1.1-3c-0.5-1.3-0.9-2.7-1.1-4.1
		c0.8,0,1.5,0.3,2.2,0.7c0.1,0.1,0.3,0.2,0.5,0.2c1,0,1.9,0.4,2.8,0.8c0.1,0,0.2,0,0.3,0.1c1.1,0.1,2.2,0.4,3.3,0.8c0,0,0.1,0,0.1,0
		c1.1-0.2,2.1,0.6,3.2,0.5c1.2,0.7,2.6,0.1,3.7,0.7c0.3,0.2,0.8,0.1,1.1,0.1c0.7,0,1.3,0,2,0c0.5,0,1-0.1,1.4,0.3
		c0.1,0.1,0.4,0.1,0.6,0.1c1.6,0.1,3.2,0,4.9,0.2c1.5,0.1,2.9-0.2,4.4-0.2c0.9,0,1.8,0,2.8-0.3c0.8-0.3,1.7-0.1,2.6-0.1
		c0.5,0,0.9,0,1.4-0.3c0.4-0.3,1-0.1,1.6-0.1c0.5,0,1,0.1,1.4-0.3c0,0,0.1-0.1,0.2-0.1c1.1,0.1,2.2-0.5,3.3-0.5
		c0.9-0.1,1.7-0.3,2.6-0.7c0.2-0.1,0.3-0.1,0.5-0.1c0.9,0,1.7-0.5,2.6-0.7c1.4-0.3,2.8-1,4.1-1.4c2.2-0.7,4.3-1.5,6.4-2.5
		c2.2-1.1,4.5-2.1,6.6-3.5c1.4-0.9,2.8-1.8,4.2-2.7c1.3-0.8,2.5-1.7,3.7-2.7c0.4-0.3,0.8-0.5,1.2-0.8c0.6,0.5,1.3,0.1,2,0.5
		c0.6,0.3,1.3,0.5,2,0.5c0.8,0.1,1.5,0.5,2.3,0.6c1,0.2,2,0.7,3,1c0.1,0,0.3,0.1,0.4,0.2c0.9,0.3,1.2,0.9,1,1.8
		c-0.1,0.2-0.2,0.3-0.5,0.3c-1.6,0-3.3,0.1-4.9-0.1c-1.5-0.2-3,0-4.4-0.1c-0.3,0-0.5,0-0.6,0.3c-0.2,1.2-0.7,2.3-1,3.5
		c-0.2,0.7-0.4,1.5-0.6,2.3c-0.2,0.8-0.6,1.6-0.6,2.5c0,0.3-0.2,0.6-0.3,0.9c-0.2,0.5-0.5,0.6-0.9,0.3c-0.2-0.1-0.4-0.2-0.6-0.2
		c-0.6,0-1.2-0.3-1.7-0.3c-1.1-0.1-2-0.5-3.1-0.6c-0.9-0.1-1.7-0.4-2.6-0.6c-0.2-0.1-0.5-0.1-0.7-0.2c-0.5-0.1-0.9,0.1-1,0.6
		c-0.9,2.4-2.3,4.6-3.1,7c-0.1,0.3-0.3,0.5-0.4,0.8c-0.3,0.7-0.7,0.8-1.4,0.5c-0.8-0.3-1.6-0.6-2.4-1c-1.4-0.7-2.9-1.2-4.3-1.8
		c-0.4-0.2-0.8-0.3-1.2-0.5c-0.5-0.2-0.9,0-1.2,0.5c-1.5,2.3-3.1,4.5-4.7,6.8c-0.7,0.9-0.8,0.9-1.8,0.3c-2.4-1.6-4.8-3.1-7.3-4.6
		c-0.3-0.2-0.5-0.2-0.7,0.1c-0.8,0.8-1.7,1.6-2.5,2.4c-0.1,0.1-0.3,0.2-0.4,0.3c-0.4,0-0.4,0.3-0.5,0.6c0,0,0,0,0,0
		c-0.4,0.1-0.8,0.2-0.8,0.7c0,0,0,0,0,0c-0.3,0-0.4,0.1-0.4,0.4c0,0,0,0,0,0C101.4,188.2,99.7,188,98.1,187.7z"/>
	<path class="st3" d="M20.6,94.1c-0.1,0.6-0.1,1.3-0.1,1.9c0,2.9-0.2,5.9,0.1,8.8c0.1,1.4,0.1,2.8,0.4,4.2c0.3,1.5,0.3,3,0.8,4.6
		c0.3,1,0.5,2,0.6,3.1c0,0.8,0.4,1.6,0.5,2.3c0.2,1,0.5,2,0.7,2.9c0.3,1.1,0.6,2.1,1,3.2c0.6,1.7,1.3,3.5,2,5.2
		c0.3,0.8,0.7,1.7,1.1,2.5c0.3,0.7,0.3,0.9-0.5,1.3c-1.2,0.7-2.4,1.4-3.6,2.1c-0.3,0.2-0.5,0.4-1,0.4c0.1-0.6,0.1-1.2,0.3-1.8
		c0.3-0.8,0.3-1-0.5-1.4c-0.9-0.4-1.9-0.9-2.8-1.4c-1.7-0.9-3.4-1.8-5.1-2.6c-0.3-0.1-0.3-0.3-0.3-0.6c0-0.3,0.1-0.6,0.2-0.8
		c1.4-2.4,2.4-4.9,3.5-7.4c0.1-0.2,0.3-0.3,0.4-0.5c0.1-0.3,0.1-0.5-0.2-0.7c-1-0.5-1.8-1.4-2.7-2c-0.1-0.1-0.2-0.1-0.4-0.2
		c-0.2-0.6-1-1.3-1.9-1.7c0,0-0.1-0.1-0.2-0.1c-0.4-0.5-0.8-1-1.5-1.2c-0.1-0.1-0.3-0.2-0.4-0.3c0-0.4-0.6-0.4-0.5-0.8
		c1.3-1.9,2.5-3.8,3.9-5.6c0.5-0.7,1-1.5,1.6-2.2c0.3-0.4,0.3-0.6-0.1-1c-1.5-1.4-2.8-3-4.2-4.6c-0.7-0.7-1.3-1.5-2-2.2
		c-0.3-0.3-0.2-0.5,0-0.8c0.2-0.2,0.3-0.4,0.5-0.5c1.8-1.5,3.3-3.3,5-4.9c0.4-0.4,0.8-0.6,1.2-1c0.3-0.3,0.3-0.5,0.1-0.9
		c-0.9-1.7-2.1-3.2-3-4.9c-0.6-1-1.2-1.9-1.8-2.9c-0.2-0.4-0.2-0.6,0.2-0.9c0.9-0.8,1.9-1.3,2.8-2c0.4-0.2,0.8-0.5,1.2-0.7
		c0.5,0,0.8,0.2,1.2,0.5c1.7,1.6,3.3,3.2,5.3,4.4c0,0.1,0,0.2,0,0.4"/>
	<path class="st3" d="M19.5,159.1c-0.3,0.3-0.7,0.2-1,0.2c-5.9,0-11.8,0-17.7,0c-0.3,0-0.6,0.1-0.8-0.1c-0.2-0.3,0.1-0.6,0.3-0.8
		c1.8-2.8,3.9-5.4,5.7-8.1c0.9-1.3,2-2.5,2.9-3.9c0.2-0.4,0.3-0.7,0-1c-1-1.3-2-2.6-3-4c-1.7-2.2-3.5-4.4-5.1-6.7
		c-0.2-0.3-0.4-0.5-0.6-0.7c-0.3-0.4-0.1-0.7,0.3-0.7c0.2,0,0.5,0,0.7,0c5.1,0,10.3,0,15.4,0c1.2,0,2.3,0.4,3.3,1
		c0.9,0.6,1,0.8,0.6,1.7c-0.3,0.7-0.3,1.4-0.6,2.1c-0.2,0.5-0.5,0.8-0.8,1.1c-1.8,1.3-3.2,2.9-4.7,4.5c-0.1,0.1-0.2,0.2-0.2,0.4
		c0,0.9-0.1,1.8,0.2,2.6c0.4,1,0.4,2.1,0.8,3.1c0.3,1,0.6,1.9,1,2.9c0.5,1.2,0.9,2.5,1.6,3.6C18.4,157.1,19,158.1,19.5,159.1z"/>
	<path class="st3" d="M191.6,145.1c-0.4,0.5-1,1.2-1,1.8c0.1,0.5,0.7,1.1,1.1,1.6c1.4,1.7,2.7,3.5,4,5.2c0.5,0.7,1.2,1.3,1.7,2
		c0.8,1.1,1.5,2.3,2.4,3.2c-0.3,0.4-0.6,0.3-1,0.3c-5.1,0-10.2,0-15.2,0c-0.2,0-0.4,0-0.5,0c-0.3,0-0.5-0.2-0.3-0.5
		c0.8-1.4,1.2-2.9,1.9-4.4c0.3-0.6,0.3-1.4,0.6-2c0.4-0.9,0.5-2,0.7-2.9c0.3-1.2,0.2-2.5,0.2-3.8c0-0.3-0.2-0.5-0.4-0.6
		c-1.4-1.2-2.5-2.6-3.9-3.8c-0.4-0.4-1.1-0.5-1.2-1.2c0-0.1-0.2-0.2-0.2-0.2c-0.3-1.7-0.9-3.4-1.4-5c-0.1-0.3-0.1-0.6-0.2-0.9
		c-0.2-0.4,0-0.7,0.4-0.7c0.2,0,0.4,0,0.6,0c6.3,0,12.6,0,18.9,0c0.1,0,0.1,0,0.2,0c0.3,0.1,0.7-0.2,0.8,0.3
		c0.1,0.3-0.2,0.5-0.4,0.7c-0.8,1.2-1.7,2.3-2.5,3.5"/>
	<path class="st3" d="M73.3,174.5c0.1,1.4,0.6,2.7,1.1,4.1c0.3,1,0.9,2,1.1,3c-0.2,0.3-0.5,0.3-0.8,0.4c-0.3,0-0.4,0.1-0.4,0.4
		c-1.5,0.7-3.1,1.2-4.6,2c-0.5,0.3-0.9,0.1-1.2-0.4c-0.9-1.8-1.6-3.6-2.6-5.3c-0.5-0.9-0.8-1.8-1.4-2.6c-0.2-0.3-0.4-0.8-1-0.4
		c-0.5,0.3-1.2,0.3-1.8,0.4c-0.9,0.2-1.7,0.5-2.6,0.6c-0.9,0.2-1.8,0.3-2.6,0.7c-0.6,0.3-1.3,0-1.9,0.5c-0.2,0.1-0.3-0.1-0.4-0.3
		c-0.4-0.8-0.5-1.7-0.8-2.5c-0.4-1.5-0.8-2.9-1.2-4.4c-0.2-0.7-0.5-1.4-0.5-2.1c0-0.3-0.2-0.5-0.5-0.5c-1.1,0.1-2.2-0.2-3.2,0.3
		c-0.1,0.1-0.3,0.1-0.4,0.1c-1.9,0-3.7,0.1-5.6,0.1c-0.7,0-0.7,0-0.8-0.7c-0.2-1.2-0.4-2.4-0.4-3.7c0-1.3-0.1-1.4,1.1-1.7
		c1.1-0.3,2.3-0.6,3.3-1c0.7-0.3,1.5-0.3,2.3-0.6c0.7-0.3,1.6-0.3,2.3,0.4c0.9,0.8,1.9,1.4,2.9,2.2c1.6,1.3,3.3,2.4,5.1,3.5
		c2.2,1.4,4.5,2.7,6.9,3.8c0.3,0.1,0.4,0.5,0.8,0.4c0.1,0.4,0.3,0.6,0.7,0.5c0.8,0.2,1.5,0.7,2.2,0.9c0.8,0.3,1.6,0.6,2.3,0.9
		c0,0.3,0.2,0.4,0.5,0.3C71.8,173.8,72.6,174,73.3,174.5z"/>
	<path class="st18" d="M95.5,123c0.1-0.3,0.4-0.4,0.6-0.5c1.2-0.5,2.3-1.3,3.5-1.6c0.3-0.1,0.6-0.4,0.9-0.5c0.9-0.4,1.9-0.4,2.7-0.9
		c0.8-0.4,1.8-0.1,2.4-0.7c1,0.1,1.8-0.6,2.8-0.5c0.3,0,0.7,0.1,1-0.2c0.1-0.1,0.2-0.1,0.3-0.1c1.2,0.1,2.4-0.4,3.6-0.4
		c2.5-0.1,5,0,7.5,0c0.4,0,0.8-0.1,1.2,0.3c0.3,0.3,0.7,0.1,1.1,0.1c0.7,0.1,1.5-0.2,2.2,0.4c0.1,0.1,0.4,0.1,0.6,0.1
		c0.5,0,0.9,0,1.4,0.3c0.6,0.3,1.3,0.3,1.9,0.4c0.8,0.1,1.5,0.5,2.3,0.6c0.4,0,0.9,0.3,1.3,0.6c0.3,0.2,0.6,0.2,0.9,0.2
		c0.1,0.5,0.5,0.6,0.9,0.6c0.1,0,0.3,0,0.4,0c0,0.3,0.1,0.4,0.4,0.4c0.1,0,0.3,0,0.4,0c0.1,0.2,0.2,0.2,0.4,0.2
		c0.5,0,0.9,0.5,1.5,0.5c0,0.3,0.2,0.4,0.4,0.4c0.1,0.2,0.3,0.2,0.4,0.2c-0.2,0.7-0.3,1.4-1,1.8c-0.6,0.3-0.3,0.7-0.1,1.1
		c-0.2,0-0.4,0.1-0.5,0c-0.7-0.5-1.5-0.3-2.2-0.4c-0.6,0-1.1,0-1.7-0.3c-0.5-0.3-1.2-0.1-1.9-0.1c-0.6,0-1.2,0.1-1.7-0.3
		c-0.2-0.1-0.5-0.1-0.7-0.1c-0.8,0-1.5,0-2.3,0c-0.5,0-1.1,0.1-1.6-0.3c-0.1-0.1-0.3-0.1-0.4-0.1c-1.2,0-2.5,0-3.7-0.2
		c-2.2-0.3-4.5-0.2-6.7-0.4c-2.4-0.2-4.9-0.3-7.4-0.3c-3.4,0-6.8,0-10.1,0C96.3,123.1,95.9,123.2,95.5,123z"/>
	<path class="st0" d="M71.8,157.1c0.2,2.1-0.3,4.3-0.2,6.4c0,1.8,0.4,3.6,0.3,5.4c0,0.6,0.5,1,0.4,1.6c-0.2,0-0.4,0-0.6,0
		c-0.1-0.4-0.3-0.4-0.7-0.4c-0.4,0-0.7-0.2-1-0.4c-1.3-0.5-2.5-1.1-3.7-1.6c-2.1-1-4.2-2.2-6.2-3.4c-2-1.2-3.9-2.5-5.9-3.9
		c-0.4-0.2-0.6-0.6-1-0.9c0-0.2,0-0.4,0-0.6c0.5,0,1.1-0.1,1.6-0.1c0.3,0.1,0.5,0.1,0.5-0.2c0.1,0,0.3,0,0.4,0
		c0.2,0.3,0.4,0.1,0.5-0.1c0.4,0,0.8,0,1.1-0.1c0.3,0.1,0.5,0.1,0.5-0.2c0.1,0,0.3,0,0.4,0c0.2,0.2,0.3,0.2,0.4-0.1
		c0.5,0,0.9-0.1,1.4-0.1c0.7,0.2,1.3,0,1.8-0.4c0.5,0,1,0,1.6-0.1c0.4,0.1,0.7,0.3,1-0.2c0.1,0,0.3,0,0.4,0c0.2,0.3,0.3,0.1,0.5-0.1
		c0.8,0,1.6-0.1,2.4-0.1c0.4,0.1,0.9,0.4,1.2-0.2c0.1,0,0.3,0,0.4,0c0.3,0.3,0.6,0.3,0.9-0.1C70.7,157,71.3,157.1,71.8,157.1z"/>
	<path class="st14" d="M137.7,125.6c-0.2-0.4-0.5-0.8,0.1-1.1c0.7-0.4,0.8-1.1,1-1.8c0.1,0,0.3,0,0.4,0c0,0.3,0.2,0.4,0.4,0.4
		c0.1,0.2,0.2,0.2,0.4,0.2c0.1,0.2,0.3,0.2,0.4,0.2c0,0.3,0.2,0.4,0.4,0.4c1.3,0.6,2.4,1.6,3.7,2.3c0.1,0,0.1,0.2,0.1,0.3
		c-1-0.1-1.9,0.1-2.9-0.4c-0.3-0.2-0.7-0.1-1-0.1c-0.4,0-0.9,0-1.3-0.3C138.9,125.5,138.3,125.7,137.7,125.6z"/>
	<path class="st19" d="M27.4,50.4c-0.4,1-1.1,1.8-1.9,2.5c-0.7,0.6-1.3,1.4-1.1,2.4C24.1,55.2,24,55,24,54.7c0-0.7,0-1.4-0.4-2
		c-0.1-0.2-0.1-0.5-0.1-0.7c0-0.8,0-0.7,0.8-0.9C25.4,50.7,26.4,50.4,27.4,50.4z"/>
	<path class="st18" d="M98.1,187.7c1.6,0.3,3.3,0.5,4.9-0.2c0,0.3-0.2,0.4-0.4,0.6c-0.5,0.5-1.2,0.9-1.6,1.5c-0.3,0.3-0.9,0.4-1.1,0
		c-0.4-0.7-1.1-1.1-1.7-1.6C98.1,187.9,98.1,187.8,98.1,187.7z"/>
	<path class="st18" d="M82.8,123.5c0.1-0.2,0.3-0.3,0.5-0.3c2,0.1,4-0.4,6-0.2c0.2,0,0.4,0.1,0.6,0.1c-0.1,0.2-0.3,0.3-0.5,0.3
		c-2.1-0.1-4.2,0.3-6.3,0.2C83,123.5,82.9,123.5,82.8,123.5z"/>
	<path class="st18" d="M74.6,123.9c0.1-0.1,0.1-0.2,0.2-0.2c1.2-0.1,2.5-0.5,3.7-0.2c-0.1,0.1-0.2,0.3-0.3,0.3
		C77,123.7,75.8,124.2,74.6,123.9z"/>
	<path class="st18" d="M69.3,124.4c0.1-0.2,0.2-0.3,0.4-0.4c0.7-0.1,1.4-0.4,2.1,0c0,0.4-0.3,0.4-0.6,0.4
		C70.6,124.4,69.9,124.4,69.3,124.4z"/>
	<path class="st17" d="M173.5,51c0-0.1-0.1-0.3,0-0.4c0.1-0.6,0-1.1-0.7-1.4c-0.1,0-0.1-0.2-0.2-0.3c0.5-0.2,1.1-0.1,1.2,0.4
		C174,49.9,174.1,50.6,173.5,51z"/>
	<path class="st18" d="M121.2,13.2c0,0.1,0,0.2-0.1,0.3c-0.8,0.4-1.6,1-2.5,1.2c0.3-0.7,1-0.8,1.5-1.1
		C120.4,13.5,120.8,13,121.2,13.2z"/>
	<path class="st16" d="M107.1,20.6c0.9-0.2,1.7-0.1,2.5,0.4C108.7,21.1,107.9,21.1,107.1,20.6z"/>
	<path class="st17" d="M172.2,59c0-0.5,0-0.9,0-1.4c0-0.3,0.1-0.6,0.4-0.8C172.7,57.7,172.6,58.6,172.2,59z"/>
	<path class="st18" d="M138.3,156.6c0.3,0,0.7,0,1,0c0.3,0,0.5,0.2,0.6,0.5C139.2,157.2,138.6,157.3,138.3,156.6z"/>
	<path class="st17" d="M173,53.8c0-0.4,0-0.8,0-1.2c0-0.3,0.1-0.5,0.4-0.5C173.4,52.6,173.7,53.3,173,53.8z"/>
	<path class="st17" d="M172.6,56.3c-0.1-0.4,0-0.9,0-1.3c0-0.2,0.2-0.4,0.4-0.4C173,55.2,173.2,55.8,172.6,56.3z"/>
	<path class="st18" d="M140.6,157.2c0.6-0.3,1.1-0.1,1.5,0.4C141.6,157.6,141,157.8,140.6,157.2z"/>
	<path class="st17" d="M167.6,48.1c-1,0.2-1,0.2-1.4-0.5C166.7,47.6,167.3,47.3,167.6,48.1z"/>
	<path class="st18" d="M144.6,158c0.6-0.2,1.1-0.1,1.5,0.4C145.6,158.5,145.1,158.5,144.6,158z"/>
	<path class="st18" d="M142.9,157.6c0.6-0.2,1-0.1,1.4,0.4C143.8,158,143.2,158.3,142.9,157.6z"/>
	<path class="st14" d="M61.9,158c-0.6,0.4-1.2,0.6-1.8,0.4C60.7,157.9,61.3,157.8,61.9,158z"/>
	<path class="st17" d="M169.7,48.5c-0.6,0.2-1,0.1-1.4-0.4C168.8,48,169.4,47.9,169.7,48.5z"/>
	<path class="st17" d="M171.8,49c-0.6,0.2-1,0.1-1.4-0.4C171,48.3,171.4,48.5,171.8,49z"/>
	<path class="st18" d="M148.6,158.8c0.6-0.2,1-0.1,1.4,0.4C149.4,159.4,149,159.3,148.6,158.8z"/>
	<path class="st18" d="M152,159.7c0.5-0.2,0.9-0.1,1.2,0.4C152.7,160.2,152.2,160.3,152,159.7z"/>
	<path class="st16" d="M111,21.1c0.6-0.3,1,0,1.5,0.3C111.9,21.6,111.4,21.5,111,21.1z"/>
	<path class="st18" d="M153.8,160.1c0.5-0.2,0.9-0.1,1.1,0.5C154.4,160.6,153.9,160.8,153.8,160.1z"/>
	<path class="st19" d="M29.3,49.9c-0.2,0.7-0.7,0.4-1.1,0.4C28.5,49.9,28.8,49.6,29.3,49.9z"/>
	<path class="st16" d="M115.8,21.9c0.5-0.2,1-0.1,1.2,0.5C116.5,22.4,115.9,22.5,115.8,21.9z"/>
	<path class="st18" d="M150.4,159.3c0.4-0.2,0.8-0.2,1,0.3C150.9,159.9,150.6,159.6,150.4,159.3z"/>
	<path class="st18" d="M146.8,158.4c0.5-0.3,0.8,0,1.1,0.3C147.4,159,147,158.9,146.8,158.4z"/>
	<path class="st18" d="M122.4,13.3c-0.3-0.1-0.6,0.1-0.9-0.1c0-0.3,0.2-0.4,0.5-0.4C122.4,12.7,122.5,13,122.4,13.3z"/>
	<path class="st14" d="M68.9,157.3c-0.3,0.6-0.7,0.3-1.2,0.2C68.1,157.1,68.5,157.2,68.9,157.3z"/>
	<path class="st19" d="M31,49.4c-0.1,0.6-0.6,0.5-1,0.4C30.3,49.5,30.6,49.3,31,49.4z"/>
	<path class="st19" d="M33.1,49c-0.3,0.4-0.6,0.7-1.1,0.3C32.4,49,32.7,48.9,33.1,49z"/>
	<path class="st18" d="M123.9,15.4c-0.5,0-0.7-0.2-0.5-0.7C123.8,14.8,124,15,123.9,15.4z"/>
	<path class="st14" d="M70.2,157.1c-0.3,0.4-0.6,0.4-0.9,0.1C69.6,156.9,69.9,157,70.2,157.1z"/>
	<path class="st18" d="M103.4,187.1c0-0.5,0.4-0.6,0.8-0.7C104.1,186.9,103.7,187,103.4,187.1z"/>
	<path class="st17" d="M66,171.5c-0.5,0.1-0.7-0.1-0.7-0.5C65.7,170.9,65.9,171.1,66,171.5z"/>
	<path class="st16" d="M113.6,21.4c0.4-0.1,0.7,0,1,0.3C114.2,22,113.9,21.8,113.6,21.4z"/>
	<path class="st18" d="M118.3,14.9c-0.1,0.4-0.3,0.6-0.7,0.5C117.7,15.1,117.8,14.7,118.3,14.9z"/>
	<path class="st14" d="M64.5,157.7c-0.2,0.5-0.6,0.3-1,0.2C63.8,157.5,64.1,157.6,64.5,157.7z"/>
	<path class="st18" d="M123.3,14.6c-0.4,0-0.5-0.3-0.4-0.6C123.2,14,123.3,14.2,123.3,14.6z"/>
	<path class="st14" d="M53.2,159.3c0,0.2,0,0.4,0,0.6c-0.2,0-0.4-0.1-0.4-0.4C52.8,159.4,53,159.3,53.2,159.3z"/>
	<path class="st19" d="M71,170.2c0.3-0.1,0.6,0,0.7,0.4C71.3,170.6,71,170.6,71,170.2z"/>
	<path class="st18" d="M104.2,186.4c0-0.3,0-0.6,0.5-0.6C104.6,186.1,104.6,186.4,104.2,186.4z"/>
	<path class="st14" d="M65.3,157.6c-0.1,0.2-0.3,0.3-0.5,0.1C65,157.4,65.2,157.5,65.3,157.6z"/>
	<path class="st17" d="M172.6,59.8c-0.3,0-0.5-0.1-0.4-0.4C172.5,59.4,172.6,59.6,172.6,59.8z"/>
	<path class="st14" d="M58.7,158.5c-0.1,0.2-0.2,0.3-0.4,0.1C58.4,158.3,58.6,158.3,58.7,158.5z"/>
	<path class="st14" d="M57.9,158.5c-0.1,0.3-0.3,0.4-0.5,0.2C57.5,158.6,57.6,158.4,57.9,158.5z"/>
	<path class="st14" d="M56.2,158.8c-0.1,0.2-0.2,0.4-0.5,0.1C55.9,158.7,56,158.7,56.2,158.8z"/>
	<path class="st14" d="M55.4,159c-0.1,0.3-0.3,0.4-0.5,0.2C54.9,159,55.1,158.9,55.4,159z"/>
	<path class="st17" d="M71.1,173.6c-0.3,0.1-0.5,0-0.5-0.3C70.8,173.3,71,173.4,71.1,173.6z"/>
	<path class="st17" d="M74.2,182.4c0-0.3,0.2-0.4,0.4-0.4C74.6,182.3,74.5,182.4,74.2,182.4z"/>
	<path class="st18" d="M103,187.5c0-0.3,0.1-0.4,0.4-0.4C103.4,187.3,103.2,187.5,103,187.5z"/>
	<path class="st19" d="M51.6,89.5c0.2,0,0.4-0.2,0.4-0.4c0-0.5-0.1-1.1,0.4-1.5c0.1-0.1,0.1-0.4,0.1-0.6c0-0.6-0.1-1.1,0.3-1.6
		c0.1-0.1,0.1-0.2,0.1-0.3c0.3-1.9,0.8-3.7,1.6-5.5c0.6-1.4,1-3,1.8-4.4c0.8-1.3,1.2-2.8,2.2-4c0.6-0.7,1.1-1.5,1.4-2.3
		c0-0.1,0.1-0.2,0.2-0.3c1.6-1.9,3-4,4.9-5.8c0.9-0.8,1.6-1.8,2.6-2.5c2.1-1.5,4-3.3,6.3-4.6c1.8-1,3.6-2,5.4-2.9
		c0.6-0.3,1.2-0.6,1.9-0.7c0.7-0.1,1.3-0.7,2.1-0.9c1.4-0.5,2.8-1,4.2-1.2c0.3,0,0.6-0.3,0.9-0.3c2.2-0.3,4.4-0.8,6.6-0.9
		c2.2-0.2,4.4-0.2,6.5-0.2c0,0.7,0,1.4,0,2.1c0,0.5,0,0.9-0.3,1.3c0,0-0.1,0.1-0.1,0.2c0.2,1-0.4,2-0.5,3c-0.1,0.7-0.4,1.5-0.6,2.2
		c-0.2,0.7-0.6,1.4-0.7,2.2c-0.1,0.5-0.3,1.1-0.5,1.6c-0.9,2.2-1.9,4.4-2.9,6.5c-0.3,0.6-0.7,1.1-1.1,1.6c-1.1,1.7-2.3,3.3-3.4,5
		c0,0,0,0.1-0.1,0.1c-1.4,1.1-2.2,2.8-3.5,3.9c-0.9,0.8-1.9,1.5-2.6,2.6c-1.1,0.3-1.5,1.6-2.7,1.9c-0.1,0-0.2,0.2-0.3,0.3
		c-0.9,0.8-1.9,1.5-3,2.1c-0.6,0.3-1.1,0.7-1.7,1.1c-1.4,1-3,1.7-4.5,2.5c-1.2,0.6-2.6,1-3.9,1.5c-1,0.4-2.1,0.5-3.1,1.1
		c-0.1,0-0.1,0.1-0.2,0.1c-1.9,0.2-3.8,1-5.7,1.3c-0.8,0.1-1.5,0.1-2.3,0.2c-1.4,0.2-2.7,0.3-4.1,0.2c-0.4,0-0.7,0.1-0.8,0.5
		c-0.1-0.1-0.3-0.1-0.3-0.3C52.7,91.8,52,90.7,51.6,89.5z"/>
	<path class="st20" d="M146,86.4c0.1,1,0.6,1.8,0.9,2.7c0.5,1.3,1,2.7,1.7,3.9c0.7,1.5,1.2,3,1.8,4.5c0,0,0.1,0.1,0.2,0.1
		c0.5-0.6,0.6-1.4,0.9-2.1c0.5-1.4,1.2-2.7,1.7-4c0.9-2.2,1.9-4.4,2.8-6.6c0.7-1.6,1.4-3.1,2.1-4.7c0.2-0.5,0.5-0.7,1-0.7
		c1.4,0,2.9,0,4.3,0c0.8,0,0.8,0.1,0.9,0.8c0.3,2.3,0.3,4.6,0.6,6.9c0.2,1.8,0.1,3.6,0.4,5.4c0.3,1.8,0.1,3.7,0.4,5.6
		c0.3,1.8,0.2,3.6,0.4,5.4c0,0.2,0,0.4,0.1,0.5c0.4,1,0.1,1,1.2,1c0.9,0,1,0.2,1.1,1c0,1,0,2,0,3.1c0,0.9-0.2,1-1.1,1
		c-1.3,0-2.6,0-3.9,0c-1,0-1.9-0.4-2.4-1.3c-0.1-0.2-0.2-0.4-0.2-0.6c-0.3-1.5-0.4-2.9-0.4-4.4c-0.1-2.6-0.2-5.2-0.6-7.8
		c-0.3-1.9-0.4-3.9-0.4-6c-0.6,0.5-0.5,1.1-0.7,1.6c-0.5,1.5-1.2,3-1.8,4.4c-1.1,2.2-2.1,4.5-3,6.8c-0.2,0.5-0.5,1.1-0.8,1.6
		c-0.2,0.3-0.5,0.5-0.9,0.5c-1.1,0-2.2,0-3.3,0c-0.4,0-0.7-0.1-0.8-0.5c-0.4-0.9-0.8-1.8-1.3-2.7c-0.4-1-0.9-2-1.3-3
		c-0.3-0.7-0.7-1.3-1.1-2.1c-0.6-1.3-1.1-2.7-1.7-4c-0.3-0.8-0.4-1.7-0.9-2.4c-0.3,0-0.3,0.3-0.3,0.4c0,0.4,0,0.8,0,1.3
		c0.1,1.7-0.3,3.4-0.4,5.1c-0.1,1.1,0.1,2.3-0.1,3.4c-0.4,2.1-0.3,4.2-0.4,6.3c0,0.7-0.2,1.3-0.5,1.9c-0.4,1-1.2,1.6-2.3,1.6
		c-1.4,0-2.8,0-4.2,0c-0.8,0-1.1-0.3-1.1-1.1c0-1,0-2,0-3c0-0.8,0.3-1.1,1.1-1.1c0.9-0.1,1.3-0.5,1.4-1.4c0-0.4,0-0.8,0-1.2
		c0.1-1.4,0-2.9,0.3-4.3c0.2-0.9,0-1.9,0.1-2.8c0.2-2.3,0.5-4.6,0.5-6.9c0.5-1.5,0.3-3.1,0.4-4.6c0-1.3,0.6-2.5,0.4-3.8
		c-0.1-0.5,0.4-0.6,0.8-0.6c0.8,0,1.6,0,2.4,0c0.6,0,1.3,0,1.9,0c0.9,0,1.1,0.2,1.4,1c0.5,1.5,1.2,2.9,1.8,4.3
		c0.1,0.3,0.3,0.4,0.5,0.5c0,0.2,0.1,0.4,0.1,0.5C145.7,86.2,145.8,86.3,146,86.4z"/>
	<path class="st21" d="M51.6,89.5c0.5,1.2,1.1,2.3,1.3,3.6c0,0.2,0.2,0.2,0.3,0.3c0.2,1.3,0.6,2.5,1.2,3.6c0.2,0.4,0.3,0.9,0.5,1.3
		c0.2,1,0.6,1.9,1,2.8c0.4,1.1,0.6,2.2,1.1,3.2c0.3,0.6,0.6,0.9,1.2,0.9c0.7,0,0.8,0.1,0.8,0.8c0,1.2,0,2.4,0,3.6
		c0,0.7-0.1,0.8-0.8,0.8c-0.9,0-1.9,0-2.8,0c-0.7,0-1.3-0.6-2-0.4c-0.1-0.6-0.7-0.9-1-1.4c-0.5-1-0.8-2.1-1.2-3.2
		c-0.2-0.7-0.6-1.3-0.9-1.9c-0.1-0.3-0.1-0.5-0.2-0.8c0-0.4-0.2-0.6-0.6-0.6c-2.7,0-5.5,0-8.2,0c-0.4,0-0.9,0-1.1,0.6
		c-0.7,0.3-0.6,1.1-0.9,1.7c-0.6,1.4-0.9,3-1.6,4.4c-0.6,1.2-1.5,1.6-2.7,1.7c-1.1,0.1-2.2,0-3.3,0c-0.5,0-0.7-0.2-0.7-0.7
		c0-1.3,0-2.5,0-3.8c0-0.5,0.2-0.7,0.7-0.7c0.9,0.1,1.2-0.5,1.5-1.3c0.5-1.4,0.9-2.9,1.5-4.3c0.4-1,0.7-2,1-3
		c0.1-0.5,0.6-0.8,0.4-1.4c0.4,0,0.6-0.3,0.5-0.7c0-0.1,0-0.3,0.1-0.4c0.4-0.2,0.5-0.5,0.4-0.9c0-0.1,0-0.3,0.1-0.4
		c0.4-0.1,0.4-0.3,0.4-0.7c0-0.1,0-0.3,0.1-0.4c0.5-0.2,0.5-0.6,0.4-1.1c0-0.1,0-0.3,0-0.4c0.5-0.1,0.4-0.5,0.4-0.8
		c0-0.1,0-0.3,0.1-0.4c0.3,0,0.4-0.1,0.3-0.4c0-0.1,0-0.3,0.1-0.4c0.3-0.3,0.5-0.6,0.4-1c0-0.1,0-0.3,0.1-0.4
		c0.4-0.1,0.4-0.3,0.3-0.6c0-0.1,0-0.3,0.1-0.4c0.5-0.1,0.4-0.5,0.4-0.8c0-0.1,0-0.1,0-0.2c0.5-0.1,0.4-0.5,0.4-0.9
		c0.4-1,0.7-2,1.1-2.9c0.1-0.2,0.2-0.4,0.2-0.6c0-0.5,0.4-0.7,0.8-0.7c1.6,0,3.2,0,4.9,0c0.6,0,0.8,0.5,0.9,0.9
		c0.6,1.9,1.3,3.8,2,5.8C50.8,87.3,51.4,88.3,51.6,89.5z M47,92.9c-0.6-2.2-1.4-4.3-1.8-6.6c-0.5,0.3-0.6,0.6-0.7,1
		c-0.2,1.5-0.6,2.9-1.3,4.2c-0.1,0.2-0.2,0.5-0.1,0.7c0,0.1,0,0.1-0.1,0.2c-0.4,0.1-0.4,0.4-0.3,0.7c0,0.2-0.1,0.4-0.1,0.6
		c-0.4,0.1-0.4,0.4-0.3,0.7c0,0.1,0,0.3-0.1,0.4c-0.2,0.2-0.5,0.5-0.4,0.9c-0.1,0.4-0.2,0.7-0.4,1.1c-0.3,0.7-0.1,1,0.7,1
		c2,0,3.9,0,5.9,0c0.2,0,0.4,0,0.6-0.2c0-0.4-0.2-0.7-0.3-1.1C47.9,95.3,47.7,94,47,92.9z"/>
	<path class="st21" d="M87.8,87.6c0,0-0.1,0.1-0.1,0.2c-0.3,0-0.6,0.1-0.5,0.5c-0.8,1.2-1.3,2.5-1.6,3.8c-0.2,0.7-0.1,1.5-0.2,2.2
		c-0.1,1.7,0.2,3.4,0.9,5c0.3,0.8,0.7,1.6,1.4,2.2c0.1,0.1,0.2,0.2,0.3,0.3c1,1.5,2.5,2.3,4.1,2.9c1.9,0.8,3.9,0.6,5.7,0.3
		c2.2-0.4,4.3-1.4,5.9-3.1c0.1-0.2,0.3-0.3,0.5-0.4c0.2-0.1,0.3-0.2,0.5,0.1c0.8,1.1,1.6,2.1,2.4,3.2c0.4,0.5,0.3,1-0.1,1.4
		c-1.6,1.4-3.4,2.5-5.3,3.3c-0.8,0.3-1.6,0.4-2.3,0.8c-0.1,0-0.1,0-0.2,0.1c-1.8,0.2-3.6,0.7-5.4,0.4c-1.8-0.3-3.6-0.6-5.3-1.4
		c-1.8-0.9-3.4-1.9-4.8-3.4c-1.2-1.3-2.2-2.8-2.8-4.5c-0.3-0.7-0.4-1.5-0.9-2.1c-0.1-0.1-0.1-0.3-0.1-0.4c-0.2-1.6-0.6-3.2-0.4-4.8
		c0.1-0.9-0.1-1.8,0.4-2.7c0.2-0.3,0.1-0.8,0.1-1.1c0.6-0.1,0.6-0.5,0.5-0.9c0-0.1,0-0.3,0-0.4c0.4-0.3,0.6-0.7,0.8-1.7
		c0-0.1,0-0.3,0.1-0.4c0.3,0,0.4-0.2,0.4-0.5c1.3-2.4,3.3-4.2,5.7-5.5c1.6-0.9,3.3-1.4,5.1-1.7c3.2-0.5,6.2-0.1,9.2,1
		c1.6,0.6,3,1.6,4.1,2.9c0.4,0.6,0.7,1.2,0.8,1.9c0,1.2,0,2.5,0,3.7c0,0.5-0.2,0.6-0.6,0.6c-1.3,0-2.7,0-4,0c-0.5,0-0.7-0.2-0.6-0.7
		c0-0.1,0-0.2,0-0.3c0-1.8-0.6-2.7-2.3-3.2c-2-0.7-4-0.9-6-0.4c-1.3,0.3-2.6,0.8-3.8,1.6c-0.3-0.1-0.4,0.1-0.4,0.4c0,0,0,0,0,0
		c-0.3,0-0.4,0.1-0.4,0.4c0,0,0,0,0,0C87.9,87.2,87.7,87.3,87.8,87.6z"/>
	<path class="st21" d="M124.3,85.9c-0.3-0.5-0.8-0.6-1.3-0.9c-1.6-0.7-3.2-0.8-4.8-0.1c-1.6,0.7-2.4,2-1.8,3.7
		c0.3,0.8,0.9,1.3,1.5,1.6c1.9,1,3.8,1.9,5.7,2.7c2.2,0.9,4.2,2.2,5.5,4.3c1,1.7,1.3,3.5,1.1,5.4c-0.1,1.3-0.5,2.4-1,3.5
		c-0.6,1.2-1.5,2.1-2.7,2.8c-0.8,0.5-1.6,0.9-2.5,1.3c-0.1,0-0.1,0.1-0.2,0.1c-1.8,0.3-3.6,0.8-5.4,0.4c-1.1-0.2-2.3-0.3-3.3-0.8
		c-1.7-0.9-3.6-1.7-4.9-3.2c-0.6-0.7-0.6-0.7-0.1-1.5c0.6-1.1,1.6-1.8,2.2-2.9c0.2-0.3,0.4-0.5,0.9,0c1.2,1.2,2.6,2.2,4.1,2.6
		c1.1,0.3,2.3,0.8,3.5,0.5c1.4-0.4,2.7-0.8,3.5-2.3c0.5-1.1,0-2.6-0.8-3.3c-1.4-1.1-2.9-1.9-4.5-2.6c-1.7-0.8-3.5-1.6-5.1-2.7
		c-2.7-2-4.1-4.6-3.6-7.9c0.3-2.3,1.5-4.3,3.6-5.7c2.6-1.7,5.3-2.1,8.3-1.8c1.2,0.1,2.4,0.3,3.4,0.9c1.2,0.6,2.3,1.3,3.2,2.4
		c0.4,0.5,0.6,1,0.5,1.6c0,0.8,0,1.6,0,2.4c0,1.2,0,1.2-1.2,1.2c-1.2,0-2.3,0-3.5,0c0-0.2,0-0.4,0-0.6c0-0.3,0-0.6,0-0.8
		C124.8,86.1,124.6,85.9,124.3,85.9z"/>
	<path class="st22" d="M68.4,95.6c1.8,0,3.7,0,5.5,0c0.9,0,0.9,0,0.9,1c0,1,0,2,0,3.1c0,0.5-0.2,0.8-0.8,0.8c-3.8,0-7.7,0-11.5,0
		c-0.5,0-0.6-0.3-0.6-0.8c0-1.1,0-2.3,0-3.4c0-0.6,0.3-0.7,0.8-0.7C64.6,95.6,66.5,95.6,68.4,95.6z"/>
	<path class="st23" d="M124.8,87.8c1.2,0,2.3,0,3.5,0c1.2,0,1.2,0,1.2-1.2c0-0.8,0-1.6,0-2.4c0.2,0.1,0.4,0.3,0.4,0.6
		c0,1,0,1.9,0,2.9c0,0.4-0.2,0.6-0.6,0.6c-1.4,0-2.8,0-4.2,0C124.7,88.2,124.6,88.1,124.8,87.8z"/>
	<path class="st18" d="M81.1,87.3c-0.2,1-0.4,1.4-0.8,1.7C80.3,88.4,80.5,87.9,81.1,87.3z"/>
	<path class="st18" d="M80.3,89.5c0.1,0.5,0.1,0.9-0.5,0.9C79.6,89.9,79.6,89.5,80.3,89.5z"/>
	<path class="st23" d="M124.3,85.9c0.3,0,0.4,0.2,0.4,0.5c0,0.3,0,0.6,0,0.8C124.2,86.9,124.4,86.3,124.3,85.9z"/>
	<path class="st14" d="M134.7,121c-0.4,0-0.8-0.1-0.9-0.6C134.3,120.4,134.7,120.4,134.7,121z"/>
	<path class="st18" d="M87.2,88.3c-0.1-0.4,0.2-0.5,0.5-0.5C87.8,88.2,87.5,88.2,87.2,88.3z"/>
	<path class="st14" d="M135.6,121.4c-0.3,0-0.4-0.1-0.4-0.4C135.5,120.8,135.5,120.8,135.6,121.4z"/>
	<path class="st18" d="M87.8,87.6c0-0.3,0.1-0.4,0.4-0.4C88.1,87.4,88,87.6,87.8,87.6z"/>
	<path class="st18" d="M81.5,86.5c0.1,0.3-0.1,0.4-0.4,0.5C81.1,86.7,81.3,86.5,81.5,86.5z"/>
	<path class="st18" d="M88.2,87.2c0-0.3,0.1-0.4,0.4-0.4C88.6,87,88.4,87.2,88.2,87.2z"/>
	<path class="st14" d="M136.4,121.7c-0.2,0-0.3,0-0.4-0.2C136.3,121.1,136.4,121.4,136.4,121.7z"/>
	<path class="st18" d="M88.6,86.8c0-0.3,0.1-0.4,0.4-0.4C89,86.6,88.8,86.8,88.6,86.8z"/>
	<path class="st14" d="M138.3,122.5c-0.3,0-0.4-0.1-0.4-0.4C138.1,122.1,138.3,122.2,138.3,122.5z"/>
	<path class="st23" d="M165.6,146.3c0.1,1.8-0.4,3.6-1.3,5.2c-0.9,1.7-2.3,3-4.2,3.7c-1.4,0.5-2.9,0.8-4.3,0.4c-1-0.3-2-0.1-2.9-0.6
		c-0.3-0.2-0.8-0.1-1.1-0.1c-0.6,0.1-1.1-0.3-1.7-0.5c-0.2-0.1-0.5-0.3-0.6-0.7c0-0.7-0.1-1.4,0.1-2c0.4-1.2,0.4-2.5,0.8-3.7
		c0.3-1.1,0.2-2.3,0.7-3.4c0.3-0.6,0.2-1.4,0.4-2.1c0.3-1,0.3-2,0.6-3c0.1-0.4,0-0.9-0.6-0.8c-0.6,0-0.7-0.3-0.7-0.8
		c0-1.5,0.2-1.7,1.6-1.4c2.3,0.4,4.7,0.7,6.9,1.4c2.4,0.7,4.5,2,5.6,4.5C165.6,143.9,165.6,144.1,165.6,146.3z M156.7,153.2
		c2.4-0.1,4.3-0.9,5.3-3.2c0.4-0.9,0.6-1.8,0.8-2.8c0.4-2.1-0.1-3.9-1.6-5.4c-1.4-1.5-3.3-1.6-5.1-2.1c-0.3-0.1-0.6,0-0.8,0
		c-0.3,0-0.5,0.1-0.5,0.4c0,0.9-0.4,1.8-0.5,2.7c-0.1,0.8-0.2,1.7-0.5,2.6c-0.3,1.1-0.4,2.3-0.7,3.4c-0.2,0.5-0.1,1.1-0.4,1.6
		c-0.3,0.5-0.3,1.2-0.2,1.9c0,0.3,0.2,0.4,0.4,0.5C154.2,152.8,155.4,153.2,156.7,153.2z"/>
	<path class="st23" d="M75.8,131.2c0.9,0,1.8,0,2.7,0c1.9-0.1,4.1,1.8,4.3,3.7c0.1,0.6,0.4,1.1,0.3,1.7c-0.1,1.6-0.6,3-2,4
		c-0.6,0.4-0.6,0.5-0.2,1.2c0.7,1.3,1.5,2.6,2.1,3.9c0.3,0.5,0.7,0.8,1.2,0.9c0.4,0.1,0.6,0.1,0.6,0.6c0.2,1.6,0.2,1.5-1.3,1.6
		c-1.3,0.1-2.1-0.4-2.7-1.5c-0.8-1.5-1.7-2.9-2.6-4.4c-0.3-0.5-0.7-0.9-1.4-0.8c-0.6,0.1-1.2,0-1.8,0c-0.4,0-0.7,0.1-0.6,0.6
		c0.1,1.2-0.1,2.5,0.3,3.7c0.2,0.7,0.1,1.5,0.1,2.2c0,0.5-0.4,0.8-0.9,0.8c-0.5,0-1.3,0.2-1.5,0c-0.4-0.4-0.5-1.2-0.6-1.8
		c0-1.8-0.1-3.7-0.1-5.5c0-0.8-0.4-1.5-0.4-2.3c0-1.7-0.1-3.4-0.1-5.2c0-0.8,0-0.8-0.7-0.8c-0.9-0.1-0.9-0.1-0.9-1
		c0-1.2,0.2-1.4,1.5-1.5C72.7,131.3,74.3,131.2,75.8,131.2z M79.7,138.8c0.5,0,0.7-0.2,0.6-0.7c0.1-0.8,0.2-1.6,0-2.4
		c-0.1-0.9-1.3-2.1-2.2-2.2c-1.1,0-2.3,0-3.4,0c-0.4,0-0.5,0.2-0.5,0.5c0,1.8-0.1,3.5,0.2,5.3c0.1,0.7,0.4,0.9,1.1,0.7
		c0.7-0.3,1.4-0.3,2.2-0.3C78.5,139.7,79.1,139.4,79.7,138.8z"/>
	<path class="st23" d="M60.5,140.5c1,0.2,1.8-0.4,2.8-0.4c0.1,0,0.3,0,0.4,0c1.6-0.1,1.7,0.1,1.6,1.6c0,0.4-0.2,0.4-0.5,0.5
		c-1.6,0.6-3.2,0.5-4.8,0.8c-0.6,0.1-0.8,0.4-0.6,0.8c0.4,1.2,0.3,2.4,0.4,3.5c0.1,0.7,0.4,1,1.1,1c0.9,0,1.8,0.1,2.7-0.3
		c0.4-0.2,1-0.1,1.5-0.1c0.6,0,0.9-0.2,0.9-0.8c-0.1-0.7,0.4-0.9,0.9-1.1c0.3-0.2,0.7-0.2,1-0.2c0.4-0.1,0.6,0.2,0.6,0.5
		c0,0.6,0.2,1.1,0.3,1.7c0.2,1-0.3,2.1-1.7,2.1c-1,0.1-2,0.3-3,0.4c-1.6,0.1-3.2,0.6-4.8,0.6c-0.5,0-0.9,0.1-1.3-0.3
		c-0.2-0.2-0.4-0.3-0.4-0.6c-0.1-1.1-0.4-2.1-0.5-3.1c-0.2-1.7-0.2-3.3-0.7-5c0-0.1-0.1-0.2-0.1-0.3c0.1-1.7-0.5-3.3-0.5-5
		c0-0.9-0.1-0.9-0.9-0.9c-0.8,0-1-0.2-1.2-1c0-0.1,0-0.3,0-0.4c-0.1-0.8,0-0.8,0.8-0.9c1.4-0.1,2.8-0.4,4.1-0.5c1-0.1,2-0.2,3-0.3
		c0.9-0.1,1.8-0.4,2.7-0.4c1.4,0,1.7,0.5,2,1.6c0.2,0.6,0.1,1.3,0.1,1.9c0,0.3-0.2,0.5-0.4,0.5c-0.4,0-0.8,0-1.2,0.1
		c-0.5,0.1-0.8-0.1-0.9-0.6c-0.3-0.8-0.3-0.8-1.2-0.8c-0.8,0-1.7-0.1-2.4,0.4c-0.1,0-0.1,0-0.2,0c-0.5,0.2-1.1-0.1-1.4,0.3
		c-0.3,0.6-0.2,1.3,0,2c0.2,0.8,0.3,1.5,0.3,2.3c0.1,0.8,0.1,0.8,0.8,0.8C60,140.5,60.3,140.5,60.5,140.5z"/>
	<path class="st23" d="M143.9,143.1c0.9,0.1,0.9,0.1,0.8,1c-0.1,1.3-0.1,1.3-1.4,1.2c-1.3-0.1-2.5-0.4-3.8-0.5c-1-0.1-1.2,0-1.2,1
		c0,0.7,0,1.4-0.4,2c0,0.1,0,0.1-0.1,0.2c-0.4,1.7-0.2,2.1,1.5,2.4c1.1,0.2,2.2,0.2,3.3,0.5c0.7,0.2,1-0.2,1.2-1
		c0.2-0.7,0.2-0.7,0.9-0.4c0.4,0.2,0.8,0.1,1.1,0.2c0.5,0.1,0.7,0.3,0.4,0.8c-0.2,0.4-0.2,0.8-0.2,1.2c-0.1,1.5-1.3,2.3-2.7,1.7
		c-0.2-0.1-0.4-0.2-0.6-0.2c-2-0.2-4-0.7-6-0.9c-2.3-0.2-2.2-1.5-1.9-3c0-0.2,0.2-0.3,0.2-0.5c-0.1-1.4,0.3-2.6,0.5-4
		c0.2-1.4,0.3-2.9,0.7-4.3c0.1-0.3,0.1-0.7,0.1-1c0.1-0.6,0-1.2,0.3-1.8c0.3-0.7,0.1-1-0.6-1.3c-0.7-0.3-0.7-0.3-0.6-1.1
		c0.1-0.4-0.2-1.1,0.3-1.3c0.5-0.2,1.2-0.2,1.6,0.1c0.5,0.2,0.9,0.3,1.4,0.3c1.4,0,2.7,0.6,4,0.5c1.1,0.6,2.4,0.4,3.6,0.8
		c1,0.3,1.4,0.9,1.1,1.9c-0.1,0.5-0.1,1-0.1,1.5c0,0.5-0.2,0.7-0.7,0.6c-0.1,0-0.3,0-0.4,0c-0.4-0.1-1,0.1-1.3-0.2
		c-0.4-0.3-0.1-0.8-0.2-1.2c0-0.4-0.3-0.7-0.6-0.7c-1.3-0.1-2.6-0.5-3.9-0.5c-0.5,0-0.6,0.2-0.7,0.7c-0.2,1.4-0.3,2.8-0.7,4.2
		c-0.1,0.3,0.2,0.2,0.3,0.3c0.4,0.6,1,0.7,1.7,0.5c0.4,0,0.9,0.1,1.3,0.1C142.6,143.3,143.2,143.3,143.9,143.1z"/>
	<path class="st23" d="M50.7,139.6c-0.4,0.1-0.7,0.1-1.1,0.3c-0.2,0.2-0.6,0.2-0.9,0.1c-0.4-0.1-0.2-0.5-0.3-0.7
		c-0.2-0.7-0.6-1.2-1.3-1.4c-2.5-0.6-4.7,0-6.6,1.9c-1.4,1.4-1.9,3.2-1.6,5.1c0.3,2.4,1.5,4.3,3.5,5.5c2.1,1.3,4.4,1.1,6.5-0.1
		c1.1-0.6,1.9-1.5,2.6-2.5c0.3-0.4,0.5-0.4,0.8-0.1c0,0,0,0.1,0.1,0.1c1.4,1.1,1.5,1.4,0.3,2.8c-0.4,0.5-0.9,0.9-1.4,1.2
		c-0.4-0.1-0.6,0.1-0.7,0.5c-0.2,0.1-0.5,0.2-0.7,0.4c-0.3-0.1-0.5,0-0.5,0.3c-0.2,0.1-0.5,0.1-0.7,0.2c-0.5-0.2-0.6,0.1-0.7,0.5
		c-0.8-0.1-1.5,0.4-2.4,0.4c-1.7-0.1-3.2-0.5-4.7-1.4c-1.8-1-2.9-2.6-3.7-4.4c-1-2-0.9-4.1-0.7-6.2c1.1-3,2.8-5.5,6.1-6.4
		c1.7-0.5,3.3-0.6,5-0.4c1.1,0.1,2.3,0.5,2.9,1.6c0.2,0.4,0.3,0.8,0.4,1.2C50.4,138.6,50.6,139.1,50.7,139.6z"/>
	<path class="st23" d="M115,131.8c0.6,0,1.1,0,1.7,0.1c1.9,0.2,3.7,0.4,5.6,0.5c1.6,0.1,2.2,1.1,1.7,2.7c-0.1,0.2-0.1,0.5-0.1,0.7
		c-0.1,0.8-0.2,0.9-1,0.8c-0.3,0-0.6-0.1-0.8-0.1c-0.4,0-0.5-0.2-0.6-0.6c-0.2-1.1-0.5-1.4-1.6-1.5c-0.8,0-1.7,0-2.5-0.1
		c-0.4,0-0.5,0.1-0.5,0.5c-0.2,1.5-0.5,2.9-0.4,4.4c0,0.8,0,0.8,0.8,0.9c0.6,0,1.1,0.1,1.7,0c1-0.1,2,0.4,3,0.4
		c0.4,0,0.5,0.3,0.4,0.6c0,0.2-0.1,0.4-0.2,0.6c-0.2,1.1-0.2,1.1-1.2,1c-1,0-2,0.1-3-0.5c-0.1,0-0.1,0-0.2,0
		c-1.7-0.3-1.9-0.1-1.9,1.6c0,1.8-0.5,3.6-0.5,5.5c0,0.4-0.2,0.5-0.5,0.5c-0.4,0-0.8,0-1.3,0c-0.3,0-0.7,0-0.9-0.2
		c-0.2-0.3,0.2-0.5,0.1-0.8c0-0.4,0-0.8,0-1.2c0.1-1.2-0.1-2.4,0.4-3.5c0.1-0.3,0-0.8,0.1-1.2c0.1-1.3,0-2.6,0.3-3.9
		c0.3-1.2,0.1-2.5,0.2-3.7c0-0.4-0.1-0.8,0.3-1.1c-0.1-0.1-0.1-0.2-0.2-0.2c-0.5-0.2-1.1,0.2-1.4-0.3c-0.3-0.4,0-1-0.1-1.5
		c0-0.1,0-0.3,0-0.4C113.3,131.8,114.2,131.8,115,131.8z"/>
	<path class="st23" d="M94.6,141c0,2.3,0,4.7,0,7c0,0.8,0,0.8-0.8,0.8c-0.2,0-0.5,0-0.7,0c-1.3,0-1.2,0.1-1.2-1.2c0-4.3,0-8.7,0-13
		c0-1.6,0.3-1.5-1.5-1.5c-0.4,0-0.8,0-1.3,0c-0.8,0-1,0.1-1.1,0.9c0,0.7-0.3,0.8-0.9,0.7c-2-0.1-1.7,0.3-1.8-1.7c0-0.4,0-0.8,0-1.2
		c0.1-0.6,0.5-1,1.1-1.1c0.1,0,0.3,0,0.4,0c4.2,0,8.3-0.1,12.5,0.1c1.2,0,1.5,0.4,1.6,1.5c0,0.6,0,1.2,0,1.8c0,0.2,0,0.5-0.3,0.6
		c-0.6,0.1-1.3,0.1-1.9,0c-0.3,0-0.2-0.3-0.3-0.5c-0.1-0.9-0.4-1.1-1.3-1.1c-0.6,0-1.1,0-1.7,0c-0.9,0-0.9,0-0.9,0.9
		C94.7,136.3,94.7,138.6,94.6,141C94.7,141,94.7,141,94.6,141z"/>
	<path class="st23" d="M132.9,133.6c-0.4,0.5-0.3,1-0.3,1.5c0,0.6-0.3,0.8-0.8,0.7c-0.2,0-0.4,0-0.5,0c-0.4,0-0.6,0.1-0.6,0.5
		c-0.1,1.3-0.3,2.5-0.5,3.8c-0.3,1.7-0.2,3.5-0.6,5.2c-0.3,1,0,2.1-0.3,3.1c0,0.1,0,0.3,0.2,0.3c0.2,0.1,0.3,0.1,0.4,0.3
		c0.2,0.2,0.7,0,0.8,0.3c0.1,0.4,0,0.8,0,1.2c0,0.8-0.2,0.9-0.9,0.9c-0.1,0-0.3,0-0.4,0c-1.2-0.2-2.4-0.4-3.6-0.4
		c-1-0.1-1.1-0.2-1-1.2c0-0.2,0-0.4,0-0.5c0.1-0.8,0.1-0.8,0.9-0.9c0.7,0,0.9-0.1,1-0.8c0.1-0.4,0.1-0.9,0.2-1.4
		c0.1-0.7-0.1-1.5,0.4-2.1c0,0,0-0.1,0-0.2c-0.1-1.7,0.4-3.3,0.5-5c0-0.6,0-1.2,0.3-1.8c0.2-0.4,0.1-0.8,0.1-1.3
		c0-0.4-0.2-0.5-0.5-0.5c-0.4,0-1,0.1-1.2-0.5c-0.2-0.7,0-1.4,0.4-2c0.1-0.1,0.2-0.2,0.4-0.1c0.5,0.4,1.1,0.3,1.6,0.3
		C130.2,133,131.5,133.5,132.9,133.6z"/>
	<path class="st23" d="M107.2,149.2c-1.2,0-2.3-0.1-3.5,0c-1,0.1-1.2-0.6-1.1-1.4c0-0.2,0.1-0.4,0.2-0.6c0.1-0.4,0.3-0.5,0.8-0.5
		c0.8,0,0.8,0,0.9-0.9c0.2-1,0.1-2,0.1-3.1c0-1.8,0.2-3.6,0.3-5.5c0.1-1.1,0-2.1,0.1-3.2c0-0.5-0.2-0.6-0.7-0.7c-1,0-1-0.1-1-1
		c0-0.2,0-0.4,0-0.6c0-0.5,0.3-0.8,0.7-0.8c0.3,0,0.7-0.1,1.1,0c1.2,0.2,2.4,0.2,3.6,0.2c0.5,0,0.8,0.2,0.7,0.7c0,0.1,0,0.3,0,0.4
		c0,1.2,0,1.2-1.1,1.2c-0.7,0-0.8,0.1-0.8,0.8c-0.1,1.2,0,2.3-0.1,3.5c-0.1,2.7-0.4,5.3-0.4,8c0,0.2,0,0.4,0,0.6
		c0,0.4,0.2,0.6,0.6,0.6c0.3,0,0.6,0,0.8,0c0,0.3,0,0.5,0,0.8C108.3,149.1,108.4,149.1,107.2,149.2z"/>
	<path class="st13" d="M107.2,149.2c1.2-0.1,1.2-0.1,1.4-1.3c0.1-0.3,0.1-0.5,0-0.8c0.3,0,0.4,0.1,0.5,0.4c0,0.6-0.2,1.2-0.4,1.8
		c-0.2,0.4-0.6,0.5-1,0.5C107.3,149.8,107.2,149.6,107.2,149.2z"/>
	<path class="st12" d="M115,131.8c-0.8,0-1.7,0-2.5,0.1c0-0.2-0.1-0.5,0.2-0.6c0.5-0.2,1.1-0.1,1.6-0.1
		C114.6,131.2,114.9,131.4,115,131.8z"/>
	<path class="st18" d="M140.8,142.7c-0.7,0.2-1.3,0.2-1.7-0.5c0.4,0,0.8,0,1.2,0C140.6,142.2,140.8,142.4,140.8,142.7z"/>
	<path class="st18" d="M143.9,143.1c-0.6,0.2-1.3,0.2-1.8-0.4C142.8,142.5,143.3,142.7,143.9,143.1z"/>
	<path class="st18" d="M50.7,139.6c-0.1-0.5-0.3-1-0.1-1.5c0.5,0.4,0.7,0.8,0.5,1.4C51,139.7,50.8,139.6,50.7,139.6z"/>
	<path class="st18" d="M47.7,153.6c0.1-0.4,0.3-0.7,0.7-0.5C48.4,153.5,48.1,153.7,47.7,153.6z"/>
	<path class="st18" d="M50.4,152.3c0.1-0.4,0.3-0.6,0.7-0.5C51,152.1,50.8,152.4,50.4,152.3z"/>
	<path class="st18" d="M49.2,153c0-0.3,0.2-0.4,0.5-0.3C49.6,152.9,49.4,153,49.2,153z"/>
	<path class="st23" d="M101.4,37.6c-0.2,0.1-0.3,0.1-0.3,0.3c0,0.4-0.2,0.7-0.4,1.1c-0.4,0.7-1,0.9-1.7,0.6
		c-0.1-0.1-0.2-0.2-0.4-0.2c-0.7-0.3-0.7-0.3-0.3-0.9c0.6-1,0.8-2.2,1.4-3.2c0.5-1.1,0.9-2.2,1.3-3.3c0.7-1.3,1.3-2.7,1.9-4
		c0.2-0.5,0.5-0.8,1.1-0.7c0,0,0.1,0,0.1,0c1.8,0.2,1.9,0.2,2.1,2c0.1,0.8,0.4,1.6,0.6,2.3c0.5,2.1,1.1,4.2,1.6,6.3
		c0.2,0.7,0.4,1.5,0.6,2.2c-0.6,0.2-1.3,0-1.9,0.1c-0.3,0-0.4-0.2-0.5-0.4c-0.4-0.7-0.4-1.6-0.7-2.4c-0.2-0.5-0.4-0.6-0.8-0.6
		c-0.9,0-1.8,0-2.7-0.1c-0.4,0-0.8,0-0.9,0.5C101.4,37.3,101.4,37.4,101.4,37.6z M104.4,30.4c-0.2,0.1-0.4,0.2-0.5,0.4
		c-0.4,1.1-0.9,2.1-1.3,3.2c-0.1,0.3-0.1,0.6,0.2,0.6c0.7,0,1.4,0.3,2.2,0.2c0.4-0.1,0.5-0.3,0.4-0.7c-0.4-1-0.7-2-0.8-3.1
		C104.6,30.9,104.6,30.6,104.4,30.4z"/>
	<path class="st23" d="M145.1,59.6c-0.2-1.9,2.1-4.3,3.6-4.5c0.2,0,0.5,0,0.7-0.2c0.3-0.3,0.6-0.3,0.9-0.2c1.4,0.5,2.9,1,3.7,2.4
		c0.9,1.6,0.7,2.8-0.3,4.4c-0.2,0.3-0.4,0.5-0.7,0.8c-0.7,0.7-1.2,0.7-1.8-0.2c-0.8-1.2-1.9-2.3-2.8-3.5c-0.3-0.4-0.5-0.3-0.7,0.1
		c-0.6,1-0.5,1.8,0.3,2.7c0.4,0.5,1,0.9,1.6,1.1c0.8,0.4,0.8,0.4,0.4,1.2c0,0,0,0.1,0,0.1c-0.3,0.7-0.6,0.9-1.3,0.6
		c-0.8-0.4-1.6-0.8-2.1-1.5C145.8,62,144.9,61,145.1,59.6z M150.6,56.9c-0.3,0-0.6,0-0.8,0.3c-0.2,0.3,0,0.5,0.2,0.8
		c0.4,0.6,1,1.1,1.3,1.8c0.2,0.4,0.5,0.3,0.8,0c0.3-0.3,0.4-0.7,0.3-1.1C152.3,57.8,151.6,56.9,150.6,56.9z"/>
	<path class="st23" d="M136.4,42.3c0.9,0.1,1.7,0,2.5,0.4c1.7,1,2.3,2.4,1.4,4.2c-0.6,1.3-1.5,2.5-2.4,3.6c-0.4,0.4-0.6,1-0.9,1.4
		c-0.3,0.3-0.5,0.6-1,0.2c-1.3-1-1.4-1-0.5-2.3c0.8-1.2,1.6-2.5,2.5-3.7c0.4-0.5,0.2-0.9-0.3-1.3c-1.2-1-1.9-0.8-3.1,0
		c-1,0.7-1.4,1.8-2.1,2.7c-0.1,0.1-0.1,0.2-0.1,0.3c-0.7,1.2-0.9,1.2-2.1,0.5c-0.7-0.5-0.7-0.9-0.3-1.6c0.5-0.8,1.2-1.6,1.7-2.4
		c0.8-1.3,1.6-2.5,2.4-3.8c0.2-0.4,0.5-0.5,0.8-0.1c0.2,0.2,0.4,0.3,0.6,0.5C136.4,41.4,136.4,41.4,136.4,42.3z"/>
	<path class="st23" d="M128.4,47.1c-0.5-0.3-1-0.5-1.4-0.7c-0.3-0.1-0.5-0.2-0.4-0.6c0.1-0.2-0.1-0.3-0.3-0.3c-0.4,0-0.8,0-1.3,0
		c-1.7,0-2.7-1.4-3-2.8c-0.1-0.6,0.2-1.1,0.5-1.6c0.2-0.4,0.5-0.8,1.1-1c1.1-0.4,2.1-0.4,3.2,0c0.5,0.2,1.1,0.2,1.6,0.6
		c0.3,0.2,0.5,0.1,0.6-0.3c0.1-0.7-0.2-1.1-0.8-1.4c-0.6-0.4-1.2-0.4-1.9-0.4c-0.8,0-0.8,0-0.9-0.8c-0.2-1.1,0-1.4,1.2-1.3
		c1.8,0.1,3.3,0.9,4.5,2.3c0.2,0.3,0.3,0.6,0.3,0.9c0,1,0,1.9-0.5,2.8c-0.7,1.2-1.2,2.5-1.8,3.8C128.9,46.5,128.6,46.8,128.4,47.1z
		 M124.7,42.6c0,0.7,0.9,1.7,1.4,1.5c0.7-0.3,1.4-0.6,1.9-1.2c0.2-0.2,0.1-0.4-0.1-0.5c-0.7-0.5-1.5-0.7-2.4-0.7
		C124.9,41.7,124.7,42,124.7,42.6z"/>
	<path class="st23" d="M143.7,48.1c2.2,0,3.8,1.2,4.6,3.3c0,0.1,0,0.1,0.1,0.2c0.3,0.4,0.4,0.9,0.2,1.1c-0.4,0.3-0.9,0.6-1.4,0.6
		c-0.3,0-0.5-0.1-0.5-0.4c0-0.4-0.2-0.8-0.4-1.2c-0.5-1-1.3-1.4-2.3-1.4c-1,0-1.8,0.5-2.3,1.4c-1,1.7-0.2,3,1.4,3.8
		c0.3,0.2,0.6,0.3,1,0.4c0.4,0.1,0.7,0.1,0.7,0.7c-0.1,0.7-0.3,1.1-0.8,1.2c-0.8,0.1-1.4-0.2-2.1-0.5c-1.5-0.7-3.1-2.9-2.9-4.5
		C139.1,50.2,140.5,48,143.7,48.1z"/>
	<path class="st23" d="M109.9,38.3c0-1.5,0.4-2.9,0.7-4.3c0.2-0.9,0.3-1.9,0.5-2.8c0.1-0.8,0.5-1.6,0.5-2.5c0-0.4,0.3-0.5,0.7-0.5
		c0,0,0.1,0,0.1,0c0.5,0.2,1.1,0,1.5,0.4c0.5,0.5,0,1-0.1,1.5c-0.2,1.4-0.5,2.8-0.8,4.1c-0.3,1.3-0.6,2.6-0.8,3.9
		c-0.1,0.4,0.2,0.7,0.5,0.8c0.6,0.2,0.7,0.6,0.5,1.2c-0.3,1.1-0.9,1.4-2,0.9c-0.8-0.4-1.3-1-1.3-2C109.9,38.8,109.9,38.5,109.9,38.3
		z"/>
	<path class="st23" d="M116.8,30.6c0-0.3,0.1-0.5,0.1-0.8c0.3,0,0.5-0.4,0.9-0.1c0.1,0.1,0.5,0,0.8,0.1c0.4,0,0.7,0.1,0.6,0.6
		c-0.2,0.6-0.1,1.2-0.4,1.7c-0.3,0.7-0.3,1.4-0.6,2.1c-0.5,1.5-0.7,3-1.2,4.5c-0.2,0.7-0.1,1,0.5,1.5c0.2,0.1,0.2,0.3,0.2,0.4
		c0.1,0.6-0.4,1-0.5,1.6c0,0.2-0.3,0.1-0.5,0.1c-1.9-0.2-3.1-2.1-2.3-3.6c0.3-0.7,0.5-1.5,0.6-2.3c0-0.7,0.4-1.4,0.6-2.1
		c0.1-0.5,0.3-1,0.3-1.5c0.6-0.1,0.6-0.5,0.5-0.9c0-0.1,0-0.3,0-0.4C116.8,31.3,116.9,31,116.8,30.6z"/>
	<path class="st23" d="M120.1,43.3c-0.7-0.1-1.2-0.4-1.6-0.6c-0.2-0.1-0.3-0.3-0.2-0.5c0.8-1.7,1.1-3.6,1.9-5.3
		c0.2-0.5,0.5-1.1,0.5-1.7c0-0.3,0.3-0.6,0.4-0.8c0-0.1,0.1-0.1,0.1-0.2c0.6-0.1,1.1,0.2,1.7,0.5c0.4,0.2,0.3,0.6,0.2,0.9
		c-0.8,2.4-1.7,4.7-2.4,7.1C120.6,43.3,120.3,43.4,120.1,43.3z"/>
	<path class="st23" d="M124.7,31.7c-0.2,0.4-0.4,0.8-0.4,1.2c-0.1,0.8-0.4,0.9-1.1,0.6c-0.4-0.2-0.8-0.1-1.1-0.5
		c-0.2-0.3-0.5-0.4-0.1-0.8c0,0,0-0.1,0.1-0.2c0.1-0.3,0-0.7,0.3-0.8c0.4-0.2,1-0.1,1.3,0.1C123.9,31.4,124.3,31.4,124.7,31.7z"/>
	<path class="st17" d="M118.6,29.8c-0.3,0-0.7,0.1-0.8-0.1c-0.4-0.4-0.6,0.1-0.9,0.1c-0.3-0.3-0.1-0.4,0.1-0.6
		C117.6,29,118.2,29.2,118.6,29.8z"/>
	<path class="st12" d="M101.4,37.6c0-0.1,0-0.3,0.1-0.4c0.7,0.4,0.5,1.1,0.5,1.7c-0.3,0-0.6-0.1-0.6-0.5
		C101.5,38.1,101.4,37.8,101.4,37.6z"/>
	<path class="st17" d="M116.4,31.9c0.1,0.4,0.1,0.9-0.5,0.9C115.8,32.4,115.8,31.9,116.4,31.9z"/>
	<path class="st17" d="M116.8,30.6c0.1,0.4-0.1,0.7-0.4,0.9C116.3,31.1,116.5,30.8,116.8,30.6z"/>
	<path class="st12" d="M140,123.4c-0.2,0-0.3-0.1-0.4-0.2C139.9,122.8,140,123.1,140,123.4z"/>
	<path class="st12" d="M146,86.4c-0.3-0.1-0.4-0.3-0.3-0.5C146.1,85.9,146.1,86.1,146,86.4z"/>
	<path class="st12" d="M140.9,124c-0.3,0-0.4-0.1-0.4-0.4C140.7,123.6,140.8,123.7,140.9,124z"/>
	<path class="st24" d="M81.7,33.6c0.3,0,0.4-0.3,0.6-0.4c1.5-1.5,2.5-1.5,4-0.6c0.4,0.3,0.7,0.3,1-0.1c0.1-0.1,0.3-0.2,0.4-0.3
		c0.8-1.1,1.9-1.2,3.2-1.2c0.8,0,1.4,0.4,1.8,1.1c0.3,0.7,0.6,1.3,0.7,2.1c0.1,0.9,0.3,1.8,0.6,2.7c0.2,0.7,0.2,1.4,0.3,2.1
		c0.1,0.6-0.1,0.7-0.7,0.8c0,0-0.1,0-0.1,0c-0.4,0-1,0.3-1.2,0.1c-0.3-0.4-0.6-1-0.6-1.6c-0.1-1.4-0.5-2.8-0.9-4.1
		c-0.2-0.6-0.7-0.9-1.3-0.7c-0.6,0.2-1.2,0.9-1.2,1.5c0,1.2-0.2,2.5,0.3,3.6c0.2,0.5,0,1.1,0.2,1.7c0.1,0.1,0,0.3-0.1,0.4
		c-0.2,0.3-1.7,0.6-2,0.5c-0.1-0.1-0.3-0.2-0.3-0.3c0.1-0.8-0.4-1.5-0.5-2.3c-0.2-1.1-0.2-2.3-0.7-3.4c-0.3-0.5-0.6-0.6-1.1-0.5
		c-1,0.2-1.5,0.8-1.5,1.8c0,1-0.1,2.1,0.3,3.1c0.3,0.6,0.1,1.4,0.4,2c0.1,0.3-0.2,0.4-0.4,0.5c-0.5,0.1-1,0.1-1.4,0.3
		c-0.3,0.1-0.5-0.1-0.5-0.5c0-0.9-0.6-1.7-0.5-2.6c0-0.2-0.1-0.5-0.2-0.6c-0.4-0.3-0.3-0.8-0.4-1.2c-0.2-1.2-0.3-2.3-0.7-3.4
		c-0.2-0.5,0.1-0.6,0.5-0.7c0.5-0.1,1,0.1,1.4-0.3c0.1-0.1,0.2,0,0.3,0.2C81.3,33.3,81.5,33.5,81.7,33.6z"/>
	<path class="st24" d="M57.8,55.1c0.2,0.7-0.1,1.3-0.4,1.9c-0.8,1.5-2,2.5-3.7,2.9c-0.1,0-0.3,0-0.4,0.1c-0.9,0.3-0.9,0.3-1.2-0.4
		c-0.2-0.3-0.1-0.7-0.2-1c-0.1-0.5,0.1-0.7,0.6-0.8c0.8-0.1,1.6-0.4,2.3-1c0.5-0.5,0.7-1.4,0.5-2c-0.1-0.4-0.4-0.5-0.8-0.5
		c-1,0-1.8,0.3-2.6,0.8c-1.4,0.8-2.8,1.1-4.3,0.2c-1.3-0.7-1.8-2.4-1.6-3.8c0.3-1.8,1.7-2.6,3-3.6c0.3-0.3,0.8-0.3,1.2-0.5
		c0.4-0.2,0.7-0.1,0.9,0.5c0.6,1.6,0.6,1.6-1,2.1c-0.8,0.3-1.3,0.8-1.7,1.5c-0.4,0.7,0.2,2,0.9,1.8c0.6-0.2,1.2-0.2,1.8-0.5
		c1.1-0.5,2.1-1.1,3.4-1.1c1,0,1.8,0.5,2.4,1.1C57.5,53.4,58.1,54.1,57.8,55.1z"/>
	<path class="st24" d="M77.4,42.9c-0.4,0.6-0.7,1.1-1.2,1.6c-1,0.9-2.2,1.2-3.5,0.9c-0.7-0.1-1.3-0.8-1.6-1.4
		c-0.9-2-1.7-4.1-2.6-6.2c0.4-0.3,0.9-0.3,1.3-0.6c0.5-0.3,0.9,0,1.2,0.5c0.5,1,0.9,1.9,1.3,3c0.2,0.7,0.7,1.3,1.1,1.9
		c0.3,0.4,0.7,0.4,1.2,0.3c0.9-0.3,1.5-1.3,1.4-2.3c-0.1-0.9-0.4-1.8-0.8-2.6c-0.3-0.6-0.5-1.1-0.7-1.7c-0.2-0.8-0.3-0.8,0.4-1.2
		c1.5-0.7,1.5-0.8,2.1,0.7c0.9,2.1,1.7,4.2,2.6,6.3c0.3,0.6,0.1,1-0.6,1.2c-0.2,0.1-0.5,0.2-0.7,0.2C77.9,43.6,77.9,43.6,77.4,42.9z
		"/>
	<path class="st24" d="M63.7,47.7c0.3,0.2,0.4,0.3,0.5,0.3c1.2,0.4,1.4,0.9,0.9,2c-0.6,1.1-1.4,2.2-2.5,2.6
		c-1.1,0.4-2.1,0.8-3.5,0.3c-1.5-0.5-2.4-1.4-3.1-2.7c-0.5-1-0.5-3.1,0.1-4.1c0.9-1.4,2.1-2.4,3.7-2.8c0.2-0.1,0.5-0.1,0.7-0.1
		c0.7,0,0.8,0.1,0.8,0.8c0,0.1,0,0.3,0,0.4c0,0.8,0,0.8-0.8,0.9c-1.4,0.1-2.9,1.7-2.7,2.9c0.1,0.9,1.3,2.1,2.4,2.3
		c1.1,0.2,2.4-0.3,2.8-1.3C63.4,48.9,63.7,48.4,63.7,47.7z"/>
	<path class="st24" d="M64.2,40.2c0.3,0.4,0.6,0.7,0.9,1c0.2,0,0.2-0.2,0.2-0.2c-0.1-1.1,0.7-1.6,1.4-2.2c0.4-0.3,0.5-0.1,0.7,0.1
		c0.3,0.4,0.5,0.9,0.8,1.3c0.1,0.2,0,0.3-0.1,0.5c-0.1,0.1-0.2,0.2-0.4,0.4c-1,0.9-1.2,2-0.6,3.3c0.5,1,1,2,1.6,2.9
		c0.4,0.6,0.3,1-0.3,1.4c-1.2,0.7-1.4,0.7-2.1-0.6c-0.7-1.3-1.5-2.5-2.3-3.7c-0.4-0.7-0.8-1.5-1.3-2.3c-0.2-0.4-0.1-0.7,0.3-1
		C63.4,40.8,63.9,40.7,64.2,40.2z"/>
	<path class="st16" d="M37.9,90.8c0.1,0.4,0.1,0.8-0.4,1.1c-0.4-0.4,0.1-0.7,0-1.1C37.7,90.8,37.8,90.8,37.9,90.8z"/>
	<path class="st16" d="M39.2,87.2c0.1,0.4-0.1,0.8-0.4,1C38.5,87.7,38.7,87.4,39.2,87.2z"/>
	<path class="st16" d="M40.1,84.8c0,0.4,0.1,0.8-0.4,0.8C39.4,85.1,39.4,85.1,40.1,84.8z"/>
	<path class="st16" d="M38.3,89.5c0,0.3,0.2,0.7-0.4,0.8C37.7,89.9,38,89.7,38.3,89.5z"/>
	<path class="st16" d="M39.6,86.1c0.1,0.3,0,0.6-0.3,0.6C38.9,86.3,39.3,86.2,39.6,86.1z"/>
	<path class="st16" d="M40.5,83.8c0,0.4,0.1,0.7-0.4,0.9C40.1,84.3,39.9,83.9,40.5,83.8z"/>
	<path class="st16" d="M38.7,88.6c0.1,0.3-0.1,0.4-0.3,0.4C38.1,88.6,38.5,88.7,38.7,88.6z"/>
	<path class="st23" d="M40.1,102.6c0.2-0.6,0.7-0.6,1.1-0.6c2.7,0,5.5,0,8.2,0c0.5,0,0.6,0.2,0.6,0.6
		C46.7,102.6,43.4,102.6,40.1,102.6z"/>
	<path class="st16" d="M36.6,94.5c0.1,0.4-0.1,0.7-0.5,0.7C36,94.8,36.1,94.6,36.6,94.5z"/>
	<path class="st16" d="M37.1,93.3c0.1,0.4,0,0.7-0.4,0.9C36.4,93.7,36.7,93.5,37.1,93.3z"/>
	<path class="st16" d="M37.5,92.2c0.1,0.3,0,0.6-0.4,0.7C37.1,92.6,37.1,92.3,37.5,92.2z"/>
	<path class="st2" d="M43.1,92.4c0-0.1,0-0.1,0.1-0.2c0.7-0.1,1.3,0.3,2,0.2c0.7-0.1,1.3,0,1.9,0.4c0.7,1.1,0.9,2.4,1.3,3.6
		c0.1,0.3,0.3,0.7,0.3,1.1c-0.2,0.2-0.4,0.2-0.6,0.2c-2,0-3.9,0-5.9,0c-0.7,0-0.9-0.3-0.7-1c0.1-0.4,0.3-0.7,0.4-1.1
		c0.4-0.2,0.6-0.4,0.4-0.9c0-0.1,0-0.3,0.1-0.4c0.4-0.1,0.4-0.4,0.3-0.7c0-0.2,0.1-0.4,0.1-0.6C43.1,93,43.1,92.7,43.1,92.4z"/>
	<path class="st16" d="M47,92.9c-0.6-0.4-1.2-0.5-1.9-0.4c-0.7,0.1-1.3-0.3-2-0.2c0-0.3,0-0.5,0.1-0.7c0.7-1.3,1.1-2.7,1.3-4.2
		c0.1-0.4,0.2-0.7,0.7-1C45.6,88.6,46.4,90.7,47,92.9z"/>
	<path class="st16" d="M42.2,94.8c0.3,0.4,0,0.7-0.4,0.9C41.8,95.3,42,95,42.2,94.8z"/>
	<path class="st16" d="M42.6,93.7c0.1,0.3,0.1,0.6-0.3,0.7C42.2,94.1,42.2,93.8,42.6,93.7z"/>
	<path class="st16" d="M43.1,92.4c0,0.3,0,0.6-0.3,0.7C42.6,92.8,42.6,92.5,43.1,92.4z"/>
	<path class="st2" d="M156.7,153.2c-1.3,0.1-2.5-0.4-3.8-0.6c-0.3-0.1-0.4-0.2-0.4-0.5c0-0.6-0.1-1.3,0.2-1.9
		c0.3-0.5,0.2-1.1,0.4-1.6c0.3-1.1,0.4-2.3,0.7-3.4c0.2-0.8,0.4-1.7,0.5-2.6c0.1-0.9,0.5-1.8,0.5-2.7c0-0.3,0.2-0.4,0.5-0.4
		c0.3,0,0.6,0,0.8,0c1.8,0.4,3.7,0.6,5.1,2.1c1.4,1.5,1.9,3.3,1.6,5.4c-0.2,1-0.4,1.9-0.8,2.8C161,152.2,159.1,153.1,156.7,153.2z"
		/>
	<path class="st2" d="M79.7,138.8c-0.5,0.6-1.2,0.9-2,0.9c-0.7,0-1.4,0-2.2,0.3c-0.7,0.3-1,0-1.1-0.7c-0.3-1.7-0.2-3.5-0.2-5.3
		c0-0.3,0.2-0.5,0.5-0.5c1.1,0,2.3-0.1,3.4,0c0.9,0,2.1,1.2,2.2,2.2c0.1,0.8,0.1,1.6,0,2.4C79.8,138.1,79.6,138.4,79.7,138.8z"/>
	<path class="st18" d="M79.7,138.8c-0.1-0.4,0.1-0.7,0.6-0.7C80.4,138.6,80.2,138.8,79.7,138.8z"/>
	<path class="st12" d="M104.4,30.4c0.2,0.2,0.2,0.4,0.2,0.7c0.1,1.1,0.4,2.1,0.8,3.1c0.1,0.4,0.1,0.6-0.4,0.7
		c-0.8,0.1-1.5-0.2-2.2-0.2c-0.3,0-0.3-0.3-0.2-0.6c0.4-1.1,0.8-2.1,1.3-3.2C103.9,30.6,104.2,30.5,104.4,30.4z"/>
	<path class="st12" d="M150.6,56.9c1,0,1.7,1,1.9,1.7c0.1,0.4,0,0.7-0.3,1.1c-0.3,0.3-0.7,0.4-0.8,0c-0.3-0.7-0.9-1.1-1.3-1.8
		c-0.1-0.2-0.4-0.4-0.2-0.8C150,56.9,150.3,56.9,150.6,56.9z"/>
	<path class="st12" d="M124.7,42.6c0-0.6,0.2-0.9,0.9-1c0.8,0,1.6,0.2,2.4,0.7c0.2,0.1,0.2,0.3,0.1,0.5c-0.5,0.7-1.2,0.9-1.9,1.2
		C125.6,44.3,124.7,43.3,124.7,42.6z"/>
</g>
</svg>
